G04 #@! TF.GenerationSoftware,KiCad,Pcbnew,8.0.8*
G04 #@! TF.CreationDate,2025-04-19T00:37:25+02:00*
G04 #@! TF.ProjectId,noise_reduction_microphone,6e6f6973-655f-4726-9564-756374696f6e,rev?*
G04 #@! TF.SameCoordinates,Original*
G04 #@! TF.FileFunction,Legend,Bot*
G04 #@! TF.FilePolarity,Positive*
%FSLAX46Y46*%
G04 Gerber Fmt 4.6, Leading zero omitted, Abs format (unit mm)*
G04 Created by KiCad (PCBNEW 8.0.8) date 2025-04-19 00:37:25*
%MOMM*%
%LPD*%
G01*
G04 APERTURE LIST*
%ADD10C,3.000000*%
%ADD11O,1.800000X1.800000*%
%ADD12O,1.500000X1.500000*%
%ADD13O,1.700000X1.700000*%
%ADD14R,1.700000X1.700000*%
%ADD15C,0.750000*%
G04 APERTURE END LIST*
%LPC*%
D10*
G04 #@! TO.C,J4*
X86000000Y-121000000D03*
G04 #@! TD*
G04 #@! TO.C,J3*
X86000000Y-114000000D03*
G04 #@! TD*
G04 #@! TO.C,J2*
X79000000Y-114000000D03*
G04 #@! TD*
G04 #@! TO.C,J1*
X79000000Y-121000000D03*
G04 #@! TD*
D11*
G04 #@! TO.C,U2*
X115385000Y-77650000D03*
D12*
X115685000Y-80680000D03*
X120535000Y-80680000D03*
D11*
X120835000Y-77650000D03*
D13*
X109220000Y-77520000D03*
X109220000Y-80060000D03*
D14*
X109220000Y-82600000D03*
D13*
X109220000Y-85140000D03*
X109220000Y-87680000D03*
X109220000Y-90220000D03*
X109220000Y-92760000D03*
D14*
X109220000Y-95300000D03*
D13*
X109220000Y-97840000D03*
X109220000Y-100380000D03*
X109220000Y-102920000D03*
X109220000Y-105460000D03*
D14*
X109220000Y-108000000D03*
D13*
X109220000Y-110540000D03*
X109220000Y-113080000D03*
X109220000Y-115620000D03*
X109220000Y-118160000D03*
D14*
X109220000Y-120700000D03*
D13*
X109220000Y-123240000D03*
X109220000Y-125780000D03*
X127000000Y-125780000D03*
X127000000Y-123240000D03*
D14*
X127000000Y-120700000D03*
D13*
X127000000Y-118160000D03*
X127000000Y-115620000D03*
X127000000Y-113080000D03*
X127000000Y-110540000D03*
D14*
X127000000Y-108000000D03*
D13*
X127000000Y-105460000D03*
X127000000Y-102920000D03*
X127000000Y-100380000D03*
X127000000Y-97840000D03*
D14*
X127000000Y-95300000D03*
D13*
X127000000Y-92760000D03*
X127000000Y-90220000D03*
X127000000Y-87680000D03*
X127000000Y-85140000D03*
D14*
X127000000Y-82600000D03*
D13*
X127000000Y-80060000D03*
X127000000Y-77520000D03*
X115570000Y-125550000D03*
D14*
X118110000Y-125550000D03*
D13*
X120650000Y-125550000D03*
G04 #@! TD*
D15*
G04 #@! TO.C,MK1*
X144840000Y-91130000D03*
G04 #@! TD*
G04 #@! TO.C,MK4*
X144840000Y-112130000D03*
G04 #@! TD*
G04 #@! TO.C,MK2*
X165840000Y-91130000D03*
G04 #@! TD*
G04 #@! TO.C,MK3*
X165840000Y-111870000D03*
G04 #@! TD*
%LPD*%
M02*
