M48
; DRILL file {KiCad 8.0.8} date 2025-04-19T00:37:25+0200
; FORMAT={-:-/ absolute / metric / decimal}
; #@! TF.CreationDate,2025-04-19T00:37:25+02:00
; #@! TF.GenerationSoftware,Kicad,Pcbnew,8.0.8
; #@! TF.FileFunction,Plated,1,2,PTH
FMAT,2
METRIC
; #@! TA.AperFunction,Plated,PTH,ViaDrill
T1C0.300
; #@! TA.AperFunction,Plated,PTH,ComponentDrill
T2C1.020
; #@! TA.AperFunction,Plated,PTH,ComponentDrill
T3C2.000
%
G90
G05
T1
X81.0Y-76.0
X83.0Y-83.0
X84.0Y-79.0
X86.0Y-94.0
X88.0Y-102.0
X89.0Y-98.0
X91.0Y-93.0
X93.0Y-98.0
X94.0Y-128.0
X95.0Y-91.0
X95.0Y-103.0
X98.0Y-78.0
X98.0Y-89.0
X100.0Y-103.0
X115.0Y-98.0
X115.0Y-113.0
X116.0Y-104.0
X119.0Y-113.0
X121.0Y-109.0
X122.0Y-100.0
X131.0Y-124.0
X131.0Y-130.0
X132.0Y-106.0
X133.0Y-111.0
X133.0Y-114.0
X133.0Y-120.0
X133.0Y-128.0
X133.0Y-132.0
X135.0Y-101.0
X136.0Y-95.0
X136.0Y-109.0
X142.0Y-80.0
X142.0Y-99.0
X144.0Y-91.0
X144.0Y-112.0
X144.0Y-121.0
X145.0Y-129.0
X146.0Y-93.4
X146.0Y-109.0
X149.0Y-113.0
X150.0Y-114.0
X151.0Y-94.0
X153.0Y-83.0
X160.0Y-91.0
X160.0Y-119.0
X161.0Y-85.0
X161.0Y-105.0
X161.0Y-121.0
X162.0Y-97.0
X162.0Y-111.0
X163.0Y-110.0
X165.0Y-91.0
X165.0Y-112.0
X165.0Y-120.0
X167.0Y-93.4
X167.0Y-114.644
X168.0Y-103.0
X168.0Y-106.0
X171.0Y-93.0
X171.0Y-113.0
T2
X109.22Y-77.52
X109.22Y-80.06
X109.22Y-82.6
X109.22Y-85.14
X109.22Y-87.68
X109.22Y-90.22
X109.22Y-92.76
X109.22Y-95.3
X109.22Y-97.84
X109.22Y-100.38
X109.22Y-102.92
X109.22Y-105.46
X109.22Y-108.0
X109.22Y-110.54
X109.22Y-113.08
X109.22Y-115.62
X109.22Y-118.16
X109.22Y-120.7
X109.22Y-123.24
X109.22Y-125.78
X115.57Y-125.55
X118.11Y-125.55
X120.65Y-125.55
X127.0Y-77.52
X127.0Y-80.06
X127.0Y-82.6
X127.0Y-85.14
X127.0Y-87.68
X127.0Y-90.22
X127.0Y-92.76
X127.0Y-95.3
X127.0Y-97.84
X127.0Y-100.38
X127.0Y-102.92
X127.0Y-105.46
X127.0Y-108.0
X127.0Y-110.54
X127.0Y-113.08
X127.0Y-115.62
X127.0Y-118.16
X127.0Y-120.7
X127.0Y-123.24
X127.0Y-125.78
T3
X79.0Y-114.0
X79.0Y-121.0
X86.0Y-114.0
X86.0Y-121.0
M30
