G04 #@! TF.GenerationSoftware,KiCad,Pcbnew,8.0.8*
G04 #@! TF.CreationDate,2025-04-19T00:37:25+02:00*
G04 #@! TF.ProjectId,noise_reduction_microphone,6e6f6973-655f-4726-9564-756374696f6e,rev?*
G04 #@! TF.SameCoordinates,Original*
G04 #@! TF.FileFunction,Soldermask,Top*
G04 #@! TF.FilePolarity,Negative*
%FSLAX46Y46*%
G04 Gerber Fmt 4.6, Leading zero omitted, Abs format (unit mm)*
G04 Created by KiCad (PCBNEW 8.0.8) date 2025-04-19 00:37:25*
%MOMM*%
%LPD*%
G01*
G04 APERTURE LIST*
G04 Aperture macros list*
%AMRoundRect*
0 Rectangle with rounded corners*
0 $1 Rounding radius*
0 $2 $3 $4 $5 $6 $7 $8 $9 X,Y pos of 4 corners*
0 Add a 4 corners polygon primitive as box body*
4,1,4,$2,$3,$4,$5,$6,$7,$8,$9,$2,$3,0*
0 Add four circle primitives for the rounded corners*
1,1,$1+$1,$2,$3*
1,1,$1+$1,$4,$5*
1,1,$1+$1,$6,$7*
1,1,$1+$1,$8,$9*
0 Add four rect primitives between the rounded corners*
20,1,$1+$1,$2,$3,$4,$5,0*
20,1,$1+$1,$4,$5,$6,$7,0*
20,1,$1+$1,$6,$7,$8,$9,0*
20,1,$1+$1,$8,$9,$2,$3,0*%
G04 Aperture macros list end*
%ADD10C,0.880000*%
%ADD11C,3.000000*%
%ADD12O,1.800000X1.800000*%
%ADD13O,1.500000X1.500000*%
%ADD14O,1.700000X1.700000*%
%ADD15R,3.500000X1.700000*%
%ADD16R,1.700000X1.700000*%
%ADD17R,1.700000X3.500000*%
%ADD18RoundRect,0.100000X0.100000X-0.637500X0.100000X0.637500X-0.100000X0.637500X-0.100000X-0.637500X0*%
%ADD19RoundRect,0.250000X-0.450000X0.350000X-0.450000X-0.350000X0.450000X-0.350000X0.450000X0.350000X0*%
%ADD20RoundRect,0.102000X-0.200000X-0.300000X0.200000X-0.300000X0.200000X0.300000X-0.200000X0.300000X0*%
%ADD21C,0.750000*%
%ADD22RoundRect,0.250000X-0.475000X0.337500X-0.475000X-0.337500X0.475000X-0.337500X0.475000X0.337500X0*%
%ADD23RoundRect,0.250000X0.475000X-0.337500X0.475000X0.337500X-0.475000X0.337500X-0.475000X-0.337500X0*%
%ADD24RoundRect,0.250000X-0.337500X-0.475000X0.337500X-0.475000X0.337500X0.475000X-0.337500X0.475000X0*%
G04 APERTURE END LIST*
D10*
G04 #@! TO.C,MK1*
X145280000Y-91130000D02*
G75*
G02*
X144400000Y-91130000I-440000J0D01*
G01*
X144400000Y-91130000D02*
G75*
G02*
X145280000Y-91130000I440000J0D01*
G01*
G04 #@! TO.C,MK4*
X145280000Y-112130000D02*
G75*
G02*
X144400000Y-112130000I-440000J0D01*
G01*
X144400000Y-112130000D02*
G75*
G02*
X145280000Y-112130000I440000J0D01*
G01*
G04 #@! TO.C,MK2*
X166280000Y-91130000D02*
G75*
G02*
X165400000Y-91130000I-440000J0D01*
G01*
X165400000Y-91130000D02*
G75*
G02*
X166280000Y-91130000I440000J0D01*
G01*
G04 #@! TO.C,MK3*
X166280000Y-111870000D02*
G75*
G02*
X165400000Y-111870000I-440000J0D01*
G01*
X165400000Y-111870000D02*
G75*
G02*
X166280000Y-111870000I440000J0D01*
G01*
G04 #@! TD*
D11*
G04 #@! TO.C,J4*
X86000000Y-121000000D03*
G04 #@! TD*
G04 #@! TO.C,J3*
X86000000Y-114000000D03*
G04 #@! TD*
G04 #@! TO.C,J2*
X79000000Y-114000000D03*
G04 #@! TD*
G04 #@! TO.C,J1*
X79000000Y-121000000D03*
G04 #@! TD*
D12*
G04 #@! TO.C,U2*
X115385000Y-77650000D03*
D13*
X115685000Y-80680000D03*
X120535000Y-80680000D03*
D12*
X120835000Y-77650000D03*
D14*
X109220000Y-77520000D03*
D15*
X108320000Y-77520000D03*
D14*
X109220000Y-80060000D03*
D15*
X108320000Y-80060000D03*
D16*
X109220000Y-82600000D03*
D15*
X108320000Y-82600000D03*
D14*
X109220000Y-85140000D03*
D15*
X108320000Y-85140000D03*
D14*
X109220000Y-87680000D03*
D15*
X108320000Y-87680000D03*
D14*
X109220000Y-90220000D03*
D15*
X108320000Y-90220000D03*
D14*
X109220000Y-92760000D03*
D15*
X108320000Y-92760000D03*
D16*
X109220000Y-95300000D03*
D15*
X108320000Y-95300000D03*
D14*
X109220000Y-97840000D03*
D15*
X108320000Y-97840000D03*
D14*
X109220000Y-100380000D03*
D15*
X108320000Y-100380000D03*
D14*
X109220000Y-102920000D03*
D15*
X108320000Y-102920000D03*
D14*
X109220000Y-105460000D03*
D15*
X108320000Y-105460000D03*
D16*
X109220000Y-108000000D03*
D15*
X108320000Y-108000000D03*
D14*
X109220000Y-110540000D03*
D15*
X108320000Y-110540000D03*
D14*
X109220000Y-113080000D03*
D15*
X108320000Y-113080000D03*
D14*
X109220000Y-115620000D03*
D15*
X108320000Y-115620000D03*
D14*
X109220000Y-118160000D03*
D15*
X108320000Y-118160000D03*
D16*
X109220000Y-120700000D03*
D15*
X108320000Y-120700000D03*
D14*
X109220000Y-123240000D03*
D15*
X108320000Y-123240000D03*
D14*
X109220000Y-125780000D03*
D15*
X108320000Y-125780000D03*
D14*
X127000000Y-125780000D03*
D15*
X127900000Y-125780000D03*
D14*
X127000000Y-123240000D03*
D15*
X127900000Y-123240000D03*
D16*
X127000000Y-120700000D03*
D15*
X127900000Y-120700000D03*
D14*
X127000000Y-118160000D03*
D15*
X127900000Y-118160000D03*
D14*
X127000000Y-115620000D03*
D15*
X127900000Y-115620000D03*
D14*
X127000000Y-113080000D03*
D15*
X127900000Y-113080000D03*
D14*
X127000000Y-110540000D03*
D15*
X127900000Y-110540000D03*
D16*
X127000000Y-108000000D03*
D15*
X127900000Y-108000000D03*
D14*
X127000000Y-105460000D03*
D15*
X127900000Y-105460000D03*
D14*
X127000000Y-102920000D03*
D15*
X127900000Y-102920000D03*
D14*
X127000000Y-100380000D03*
D15*
X127900000Y-100380000D03*
D14*
X127000000Y-97840000D03*
D15*
X127900000Y-97840000D03*
D16*
X127000000Y-95300000D03*
D15*
X127900000Y-95300000D03*
D14*
X127000000Y-92760000D03*
D15*
X127900000Y-92760000D03*
D14*
X127000000Y-90220000D03*
D15*
X127900000Y-90220000D03*
D14*
X127000000Y-87680000D03*
D15*
X127900000Y-87680000D03*
D14*
X127000000Y-85140000D03*
D15*
X127900000Y-85140000D03*
D16*
X127000000Y-82600000D03*
D15*
X127900000Y-82600000D03*
D14*
X127000000Y-80060000D03*
D15*
X127900000Y-80060000D03*
D14*
X127000000Y-77520000D03*
D15*
X127900000Y-77520000D03*
D14*
X115570000Y-125550000D03*
D17*
X115570000Y-126450000D03*
D16*
X118110000Y-125550000D03*
D17*
X118110000Y-126450000D03*
D14*
X120650000Y-125550000D03*
D17*
X120650000Y-126450000D03*
G04 #@! TD*
D18*
G04 #@! TO.C,U1*
X91050000Y-101000000D03*
X91700000Y-101000000D03*
X92350000Y-101000000D03*
X93000000Y-101000000D03*
X93650000Y-101000000D03*
X94300000Y-101000000D03*
X94950000Y-101000000D03*
X95600000Y-101000000D03*
X96250000Y-101000000D03*
X96900000Y-101000000D03*
X96900000Y-95275000D03*
X96250000Y-95275000D03*
X95600000Y-95275000D03*
X94950000Y-95275000D03*
X94300000Y-95275000D03*
X93650000Y-95275000D03*
X93000000Y-95275000D03*
X92350000Y-95275000D03*
X91700000Y-95275000D03*
X91050000Y-95275000D03*
G04 #@! TD*
D19*
G04 #@! TO.C,R2*
X92425000Y-112275000D03*
X92425000Y-114275000D03*
G04 #@! TD*
G04 #@! TO.C,R1*
X96425000Y-112275000D03*
X96425000Y-114275000D03*
G04 #@! TD*
D20*
G04 #@! TO.C,MK1*
X144850000Y-92460000D03*
X145900000Y-92460000D03*
X144850000Y-89800000D03*
X145900000Y-89800000D03*
D21*
X144840000Y-91130000D03*
D20*
X146950000Y-92460000D03*
X148000000Y-92460000D03*
X146950000Y-89800000D03*
X148000000Y-89800000D03*
G04 #@! TD*
D22*
G04 #@! TO.C,C15*
X168520000Y-115962500D03*
X168520000Y-118037500D03*
G04 #@! TD*
G04 #@! TO.C,C14*
X147520000Y-115962500D03*
X147520000Y-118037500D03*
G04 #@! TD*
G04 #@! TO.C,C13*
X168520000Y-94962500D03*
X168520000Y-97037500D03*
G04 #@! TD*
G04 #@! TO.C,C12*
X147520000Y-95000000D03*
X147520000Y-97075000D03*
G04 #@! TD*
D23*
G04 #@! TO.C,C11*
X80475000Y-90350000D03*
X80475000Y-88275000D03*
G04 #@! TD*
G04 #@! TO.C,C10*
X85475000Y-90350000D03*
X85475000Y-88275000D03*
G04 #@! TD*
G04 #@! TO.C,C9*
X80475000Y-99350000D03*
X80475000Y-97275000D03*
G04 #@! TD*
G04 #@! TO.C,C8*
X85475000Y-99350000D03*
X85475000Y-97275000D03*
G04 #@! TD*
G04 #@! TO.C,C7*
X80475000Y-108350000D03*
X80475000Y-106275000D03*
G04 #@! TD*
G04 #@! TO.C,C6*
X85475000Y-108350000D03*
X85475000Y-106275000D03*
G04 #@! TD*
G04 #@! TO.C,C5*
X96455000Y-118967500D03*
X96455000Y-121042500D03*
G04 #@! TD*
D24*
G04 #@! TO.C,C4*
X95475000Y-106275000D03*
X97550000Y-106275000D03*
G04 #@! TD*
G04 #@! TO.C,C3*
X90400000Y-106275000D03*
X92475000Y-106275000D03*
G04 #@! TD*
D23*
G04 #@! TO.C,C2*
X92475000Y-86350000D03*
X92475000Y-84275000D03*
G04 #@! TD*
D22*
G04 #@! TO.C,C1*
X92455000Y-118967500D03*
X92455000Y-121042500D03*
G04 #@! TD*
D20*
G04 #@! TO.C,MK4*
X148000000Y-110800000D03*
X146950000Y-110800000D03*
X148000000Y-113460000D03*
X146950000Y-113460000D03*
D21*
X144840000Y-112130000D03*
D20*
X145900000Y-110800000D03*
X144850000Y-110800000D03*
X145900000Y-113460000D03*
X144850000Y-113460000D03*
G04 #@! TD*
G04 #@! TO.C,MK2*
X165850000Y-92460000D03*
X166900000Y-92460000D03*
X165850000Y-89800000D03*
X166900000Y-89800000D03*
D21*
X165840000Y-91130000D03*
D20*
X167950000Y-92460000D03*
X169000000Y-92460000D03*
X167950000Y-89800000D03*
X169000000Y-89800000D03*
G04 #@! TD*
G04 #@! TO.C,MK3*
X169000000Y-110540000D03*
X167950000Y-110540000D03*
X169000000Y-113200000D03*
X167950000Y-113200000D03*
D21*
X165840000Y-111870000D03*
D20*
X166900000Y-110540000D03*
X165850000Y-110540000D03*
X166900000Y-113200000D03*
X165850000Y-113200000D03*
G04 #@! TD*
M02*
