G04 #@! TF.GenerationSoftware,KiCad,Pcbnew,8.0.8*
G04 #@! TF.CreationDate,2025-04-19T00:37:25+02:00*
G04 #@! TF.ProjectId,noise_reduction_microphone,6e6f6973-655f-4726-9564-756374696f6e,rev?*
G04 #@! TF.SameCoordinates,Original*
G04 #@! TF.FileFunction,Copper,L2,Bot*
G04 #@! TF.FilePolarity,Positive*
%FSLAX46Y46*%
G04 Gerber Fmt 4.6, Leading zero omitted, Abs format (unit mm)*
G04 Created by KiCad (PCBNEW 8.0.8) date 2025-04-19 00:37:25*
%MOMM*%
%LPD*%
G01*
G04 APERTURE LIST*
G04 #@! TA.AperFunction,ComponentPad*
%ADD10C,3.000000*%
G04 #@! TD*
G04 #@! TA.AperFunction,ComponentPad*
%ADD11O,1.700000X1.700000*%
G04 #@! TD*
G04 #@! TA.AperFunction,ComponentPad*
%ADD12R,1.700000X1.700000*%
G04 #@! TD*
G04 #@! TA.AperFunction,ViaPad*
%ADD13C,0.600000*%
G04 #@! TD*
G04 #@! TA.AperFunction,Conductor*
%ADD14C,0.200000*%
G04 #@! TD*
G04 APERTURE END LIST*
D10*
G04 #@! TO.P,J4,1,Pin_1*
G04 #@! TO.N,GND*
X86000000Y-121000000D03*
G04 #@! TD*
G04 #@! TO.P,J3,1,Pin_1*
G04 #@! TO.N,GND*
X86000000Y-114000000D03*
G04 #@! TD*
G04 #@! TO.P,J2,1,Pin_1*
G04 #@! TO.N,AUDIO_R*
X79000000Y-114000000D03*
G04 #@! TD*
G04 #@! TO.P,J1,1,Pin_1*
G04 #@! TO.N,AUDIO_L*
X79000000Y-121000000D03*
G04 #@! TD*
D11*
G04 #@! TO.P,U2,1,GPIO0*
G04 #@! TO.N,unconnected-(U2-GPIO0-Pad1)*
X109220000Y-77520000D03*
G04 #@! TO.P,U2,2,GPIO1*
G04 #@! TO.N,unconnected-(U2-GPIO1-Pad2)*
X109220000Y-80060000D03*
D12*
G04 #@! TO.P,U2,3,GND*
G04 #@! TO.N,GND*
X109220000Y-82600000D03*
D11*
G04 #@! TO.P,U2,4,GPIO2*
G04 #@! TO.N,unconnected-(U2-GPIO2-Pad4)*
X109220000Y-85140000D03*
G04 #@! TO.P,U2,5,GPIO3*
G04 #@! TO.N,unconnected-(U2-GPIO3-Pad5)*
X109220000Y-87680000D03*
G04 #@! TO.P,U2,6,GPIO4*
G04 #@! TO.N,unconnected-(U2-GPIO4-Pad6)*
X109220000Y-90220000D03*
G04 #@! TO.P,U2,7,GPIO5*
G04 #@! TO.N,unconnected-(U2-GPIO5-Pad7)*
X109220000Y-92760000D03*
D12*
G04 #@! TO.P,U2,8,GND*
G04 #@! TO.N,GND*
X109220000Y-95300000D03*
D11*
G04 #@! TO.P,U2,9,GPIO6*
G04 #@! TO.N,unconnected-(U2-GPIO6-Pad9)*
X109220000Y-97840000D03*
G04 #@! TO.P,U2,10,GPIO7*
G04 #@! TO.N,unconnected-(U2-GPIO7-Pad10)*
X109220000Y-100380000D03*
G04 #@! TO.P,U2,11,GPIO8*
G04 #@! TO.N,unconnected-(U2-GPIO8-Pad11)*
X109220000Y-102920000D03*
G04 #@! TO.P,U2,12,GPIO9*
G04 #@! TO.N,unconnected-(U2-GPIO9-Pad12)*
X109220000Y-105460000D03*
D12*
G04 #@! TO.P,U2,13,GND*
G04 #@! TO.N,GND*
X109220000Y-108000000D03*
D11*
G04 #@! TO.P,U2,14,GPIO10*
G04 #@! TO.N,unconnected-(U2-GPIO10-Pad14)*
X109220000Y-110540000D03*
G04 #@! TO.P,U2,15,GPIO11*
G04 #@! TO.N,unconnected-(U2-GPIO11-Pad15)*
X109220000Y-113080000D03*
G04 #@! TO.P,U2,16,GPIO12*
G04 #@! TO.N,unconnected-(U2-GPIO12-Pad16)*
X109220000Y-115620000D03*
G04 #@! TO.P,U2,17,GPIO13*
G04 #@! TO.N,unconnected-(U2-GPIO13-Pad17)*
X109220000Y-118160000D03*
D12*
G04 #@! TO.P,U2,18,GND*
G04 #@! TO.N,GND*
X109220000Y-120700000D03*
D11*
G04 #@! TO.P,U2,19,GPIO14*
G04 #@! TO.N,unconnected-(U2-GPIO14-Pad19)*
X109220000Y-123240000D03*
G04 #@! TO.P,U2,20,GPIO15*
G04 #@! TO.N,unconnected-(U2-GPIO15-Pad20)*
X109220000Y-125780000D03*
G04 #@! TO.P,U2,21,GPIO16*
G04 #@! TO.N,WS*
X127000000Y-125780000D03*
G04 #@! TO.P,U2,22,GPIO17*
G04 #@! TO.N,BCLK*
X127000000Y-123240000D03*
D12*
G04 #@! TO.P,U2,23,GND*
G04 #@! TO.N,unconnected-(U2-GND-Pad23)*
X127000000Y-120700000D03*
D11*
G04 #@! TO.P,U2,24,GPIO18*
G04 #@! TO.N,DAC_DIN*
X127000000Y-118160000D03*
G04 #@! TO.P,U2,25,GPIO19*
G04 #@! TO.N,MIC1_DOUT*
X127000000Y-115620000D03*
G04 #@! TO.P,U2,26,GPIO20*
G04 #@! TO.N,MIC2_DOUT*
X127000000Y-113080000D03*
G04 #@! TO.P,U2,27,GPIO21*
G04 #@! TO.N,MIC3_DOUT*
X127000000Y-110540000D03*
D12*
G04 #@! TO.P,U2,28,GND*
G04 #@! TO.N,unconnected-(U2-GND-Pad28)*
X127000000Y-108000000D03*
D11*
G04 #@! TO.P,U2,29,GPIO22*
G04 #@! TO.N,MIC4_DOUT*
X127000000Y-105460000D03*
G04 #@! TO.P,U2,30,RUN*
G04 #@! TO.N,unconnected-(U2-RUN-Pad30)*
X127000000Y-102920000D03*
G04 #@! TO.P,U2,31,GPIO26_ADC0*
G04 #@! TO.N,unconnected-(U2-GPIO26_ADC0-Pad31)*
X127000000Y-100380000D03*
G04 #@! TO.P,U2,32,GPIO27_ADC1*
G04 #@! TO.N,unconnected-(U2-GPIO27_ADC1-Pad32)*
X127000000Y-97840000D03*
D12*
G04 #@! TO.P,U2,33,AGND*
G04 #@! TO.N,unconnected-(U2-AGND-Pad33)*
X127000000Y-95300000D03*
D11*
G04 #@! TO.P,U2,34,GPIO28_ADC2*
G04 #@! TO.N,unconnected-(U2-GPIO28_ADC2-Pad34)*
X127000000Y-92760000D03*
G04 #@! TO.P,U2,35,ADC_VREF*
G04 #@! TO.N,unconnected-(U2-ADC_VREF-Pad35)*
X127000000Y-90220000D03*
G04 #@! TO.P,U2,36,3V3*
G04 #@! TO.N,+3.3V*
X127000000Y-87680000D03*
G04 #@! TO.P,U2,37,3V3_EN*
G04 #@! TO.N,unconnected-(U2-3V3_EN-Pad37)*
X127000000Y-85140000D03*
D12*
G04 #@! TO.P,U2,38,GND*
G04 #@! TO.N,unconnected-(U2-GND-Pad38)*
X127000000Y-82600000D03*
D11*
G04 #@! TO.P,U2,39,VSYS*
G04 #@! TO.N,unconnected-(U2-VSYS-Pad39)*
X127000000Y-80060000D03*
G04 #@! TO.P,U2,40,VBUS*
G04 #@! TO.N,unconnected-(U2-VBUS-Pad40)*
X127000000Y-77520000D03*
G04 #@! TO.P,U2,41,SWCLK*
G04 #@! TO.N,unconnected-(U2-SWCLK-Pad41)*
X115570000Y-125550000D03*
D12*
G04 #@! TO.P,U2,42,GND*
G04 #@! TO.N,GND*
X118110000Y-125550000D03*
D11*
G04 #@! TO.P,U2,43,SWDIO*
G04 #@! TO.N,unconnected-(U2-SWDIO-Pad43)*
X120650000Y-125550000D03*
G04 #@! TD*
D13*
G04 #@! TO.N,GND*
X165000000Y-112000000D03*
X144000000Y-112000000D03*
X165000000Y-91000000D03*
X144000000Y-91000000D03*
X160000000Y-119000000D03*
X161000000Y-121000000D03*
X168000000Y-103000000D03*
X168000000Y-106000000D03*
X163000000Y-110000000D03*
X149000000Y-113000000D03*
X91000000Y-93000000D03*
X95000000Y-91000000D03*
X100000000Y-103000000D03*
X95000000Y-103000000D03*
X88000000Y-102000000D03*
X89000000Y-98000000D03*
X93000000Y-98000000D03*
X121000000Y-109000000D03*
X122000000Y-100000000D03*
X115000000Y-98000000D03*
X116000000Y-104000000D03*
X115000000Y-113000000D03*
X119000000Y-113000000D03*
X86000000Y-94000000D03*
X98000000Y-89000000D03*
X98000000Y-78000000D03*
X83000000Y-83000000D03*
X84000000Y-79000000D03*
X81000000Y-76000000D03*
X94000000Y-128000000D03*
X133000000Y-120000000D03*
X165000000Y-120000000D03*
X144000000Y-121000000D03*
X145000000Y-129000000D03*
X135000000Y-101000000D03*
X142000000Y-99000000D03*
X142000000Y-80000000D03*
X153000000Y-83000000D03*
X161000000Y-85000000D03*
X160000000Y-91000000D03*
X162000000Y-97000000D03*
X161000000Y-105000000D03*
X162000000Y-111000000D03*
G04 #@! TO.N,+3.3V*
X150000000Y-114000000D03*
X167000000Y-114644475D03*
X167000000Y-93400000D03*
X146000000Y-93400000D03*
X136000000Y-95000000D03*
G04 #@! TO.N,MIC1_DOUT*
X136000000Y-109000000D03*
G04 #@! TO.N,MIC4_DOUT*
X132000000Y-106000000D03*
G04 #@! TO.N,MIC3_DOUT*
X133000000Y-111000000D03*
G04 #@! TO.N,MIC2_DOUT*
X133000000Y-114000000D03*
G04 #@! TO.N,MIC1_DOUT*
X151000000Y-94000000D03*
G04 #@! TO.N,MIC2_DOUT*
X171000000Y-93000000D03*
G04 #@! TO.N,MIC4_DOUT*
X146000000Y-109000000D03*
G04 #@! TO.N,MIC3_DOUT*
X171000000Y-113000000D03*
G04 #@! TO.N,WS*
X131000000Y-130000000D03*
X133000000Y-128000000D03*
G04 #@! TO.N,BCLK*
X131000000Y-124000000D03*
X133000000Y-132000000D03*
G04 #@! TD*
D14*
G04 #@! TO.N,+3.3V*
X167000000Y-114644475D02*
X167001530Y-114644475D01*
X150000000Y-113000000D02*
X150000000Y-114000000D01*
X154000000Y-109000000D02*
X150000000Y-113000000D01*
G04 #@! TO.N,MIC4_DOUT*
X146000000Y-109000000D02*
X145400000Y-109600000D01*
X145400000Y-109600000D02*
X135600000Y-109600000D01*
X135600000Y-109600000D02*
X132000000Y-106000000D01*
G04 #@! TO.N,+3.3V*
X159644475Y-114644475D02*
X167000000Y-114644475D01*
X158500000Y-113500000D02*
X159644475Y-114644475D01*
X154000000Y-93400000D02*
X167000000Y-93400000D01*
X146000000Y-93400000D02*
X154000000Y-93400000D01*
X154000000Y-109000000D02*
X158500000Y-113500000D01*
X154000000Y-93400000D02*
X154000000Y-109000000D01*
X137600000Y-93400000D02*
X146000000Y-93400000D01*
X136000000Y-95000000D02*
X137600000Y-93400000D01*
G04 #@! TO.N,MIC2_DOUT*
X135000000Y-116000000D02*
X133000000Y-114000000D01*
X168848529Y-116000000D02*
X135000000Y-116000000D01*
X171600000Y-113248529D02*
X168848529Y-116000000D01*
X171600000Y-93600000D02*
X171600000Y-113248529D01*
X171000000Y-93000000D02*
X171600000Y-93600000D01*
G04 #@! TO.N,MIC3_DOUT*
X137600000Y-115600000D02*
X133000000Y-111000000D01*
X168400000Y-115600000D02*
X137600000Y-115600000D01*
X171000000Y-113000000D02*
X168400000Y-115600000D01*
G04 #@! TO.N,MIC1_DOUT*
X151000000Y-94000000D02*
X136000000Y-109000000D01*
G04 #@! TO.N,WS*
X133000000Y-128000000D02*
X131000000Y-130000000D01*
G04 #@! TO.N,BCLK*
X129000000Y-126000000D02*
X129000000Y-130000000D01*
X132000000Y-131000000D02*
X133000000Y-132000000D01*
X131000000Y-124000000D02*
X129000000Y-126000000D01*
X129000000Y-130000000D02*
X130000000Y-131000000D01*
X130000000Y-131000000D02*
X132000000Y-131000000D01*
G04 #@! TD*
G04 #@! TA.AperFunction,Conductor*
G04 #@! TO.N,GND*
G36*
X173442539Y-74520185D02*
G01*
X173488294Y-74572989D01*
X173499500Y-74624500D01*
X173499500Y-133375500D01*
X173479815Y-133442539D01*
X173427011Y-133488294D01*
X173375500Y-133499500D01*
X75624500Y-133499500D01*
X75557461Y-133479815D01*
X75511706Y-133427011D01*
X75500500Y-133375500D01*
X75500500Y-120999998D01*
X76994390Y-120999998D01*
X76994390Y-121000001D01*
X77014804Y-121285433D01*
X77075628Y-121565037D01*
X77075630Y-121565043D01*
X77075631Y-121565046D01*
X77160403Y-121792328D01*
X77175635Y-121833166D01*
X77312770Y-122084309D01*
X77312775Y-122084317D01*
X77484254Y-122313387D01*
X77484270Y-122313405D01*
X77686594Y-122515729D01*
X77686612Y-122515745D01*
X77915682Y-122687224D01*
X77915690Y-122687229D01*
X78166833Y-122824364D01*
X78166832Y-122824364D01*
X78166836Y-122824365D01*
X78166839Y-122824367D01*
X78434954Y-122924369D01*
X78434960Y-122924370D01*
X78434962Y-122924371D01*
X78714566Y-122985195D01*
X78714568Y-122985195D01*
X78714572Y-122985196D01*
X78968220Y-123003337D01*
X78999999Y-123005610D01*
X79000000Y-123005610D01*
X79000001Y-123005610D01*
X79028595Y-123003564D01*
X79285428Y-122985196D01*
X79565046Y-122924369D01*
X79833161Y-122824367D01*
X80084315Y-122687226D01*
X80313395Y-122515739D01*
X80515739Y-122313395D01*
X80687226Y-122084315D01*
X80824367Y-121833161D01*
X80924369Y-121565046D01*
X80985196Y-121285428D01*
X81005610Y-121000000D01*
X81005610Y-120999998D01*
X83994891Y-120999998D01*
X83994891Y-121000001D01*
X84015300Y-121285362D01*
X84076109Y-121564895D01*
X84176091Y-121832958D01*
X84313191Y-122084038D01*
X84313196Y-122084046D01*
X84419882Y-122226562D01*
X84419883Y-122226563D01*
X85137426Y-121509020D01*
X85223249Y-121637463D01*
X85362537Y-121776751D01*
X85490978Y-121862573D01*
X84773435Y-122580115D01*
X84773436Y-122580116D01*
X84915953Y-122686803D01*
X84915961Y-122686808D01*
X85167042Y-122823908D01*
X85167041Y-122823908D01*
X85435104Y-122923890D01*
X85714637Y-122984699D01*
X85999999Y-123005109D01*
X86000001Y-123005109D01*
X86285362Y-122984699D01*
X86564895Y-122923890D01*
X86832958Y-122823908D01*
X87084038Y-122686808D01*
X87084039Y-122686807D01*
X87226563Y-122580115D01*
X86509020Y-121862573D01*
X86637463Y-121776751D01*
X86776751Y-121637463D01*
X86862573Y-121509020D01*
X87580115Y-122226563D01*
X87686807Y-122084039D01*
X87686808Y-122084038D01*
X87823908Y-121832958D01*
X87923890Y-121564895D01*
X87984699Y-121285362D01*
X88005109Y-121000001D01*
X88005109Y-120999998D01*
X87984699Y-120714637D01*
X87923890Y-120435104D01*
X87823908Y-120167041D01*
X87686808Y-119915961D01*
X87686803Y-119915953D01*
X87580116Y-119773436D01*
X87580115Y-119773435D01*
X86862572Y-120490978D01*
X86776751Y-120362537D01*
X86637463Y-120223249D01*
X86509020Y-120137425D01*
X87226563Y-119419883D01*
X87226562Y-119419882D01*
X87084046Y-119313196D01*
X87084038Y-119313191D01*
X86832957Y-119176091D01*
X86832958Y-119176091D01*
X86564895Y-119076109D01*
X86285362Y-119015300D01*
X86000001Y-118994891D01*
X85999999Y-118994891D01*
X85714637Y-119015300D01*
X85435104Y-119076109D01*
X85167041Y-119176091D01*
X84915961Y-119313191D01*
X84915953Y-119313196D01*
X84773435Y-119419882D01*
X85490979Y-120137426D01*
X85362537Y-120223249D01*
X85223249Y-120362537D01*
X85137426Y-120490979D01*
X84419882Y-119773435D01*
X84313196Y-119915953D01*
X84313191Y-119915961D01*
X84176091Y-120167041D01*
X84076109Y-120435104D01*
X84015300Y-120714637D01*
X83994891Y-120999998D01*
X81005610Y-120999998D01*
X80985196Y-120714572D01*
X80939203Y-120503147D01*
X80924371Y-120434962D01*
X80924370Y-120434960D01*
X80924369Y-120434954D01*
X80824367Y-120166839D01*
X80795411Y-120113811D01*
X80687229Y-119915690D01*
X80687224Y-119915682D01*
X80515745Y-119686612D01*
X80515729Y-119686594D01*
X80313405Y-119484270D01*
X80313387Y-119484254D01*
X80084317Y-119312775D01*
X80084309Y-119312770D01*
X79833166Y-119175635D01*
X79833167Y-119175635D01*
X79725915Y-119135632D01*
X79565046Y-119075631D01*
X79565043Y-119075630D01*
X79565037Y-119075628D01*
X79285433Y-119014804D01*
X79000001Y-118994390D01*
X78999999Y-118994390D01*
X78714566Y-119014804D01*
X78434962Y-119075628D01*
X78166833Y-119175635D01*
X77915690Y-119312770D01*
X77915682Y-119312775D01*
X77686612Y-119484254D01*
X77686594Y-119484270D01*
X77484270Y-119686594D01*
X77484254Y-119686612D01*
X77312775Y-119915682D01*
X77312770Y-119915690D01*
X77175635Y-120166833D01*
X77075628Y-120434962D01*
X77014804Y-120714566D01*
X76994390Y-120999998D01*
X75500500Y-120999998D01*
X75500500Y-113999998D01*
X76994390Y-113999998D01*
X76994390Y-114000001D01*
X77014804Y-114285433D01*
X77075628Y-114565037D01*
X77075630Y-114565043D01*
X77075631Y-114565046D01*
X77172118Y-114823736D01*
X77175635Y-114833166D01*
X77312770Y-115084309D01*
X77312775Y-115084317D01*
X77484254Y-115313387D01*
X77484270Y-115313405D01*
X77686594Y-115515729D01*
X77686612Y-115515745D01*
X77915682Y-115687224D01*
X77915690Y-115687229D01*
X78166833Y-115824364D01*
X78166832Y-115824364D01*
X78166836Y-115824365D01*
X78166839Y-115824367D01*
X78434954Y-115924369D01*
X78434960Y-115924370D01*
X78434962Y-115924371D01*
X78714566Y-115985195D01*
X78714568Y-115985195D01*
X78714572Y-115985196D01*
X78968220Y-116003337D01*
X78999999Y-116005610D01*
X79000000Y-116005610D01*
X79000001Y-116005610D01*
X79028595Y-116003564D01*
X79285428Y-115985196D01*
X79565046Y-115924369D01*
X79833161Y-115824367D01*
X80084315Y-115687226D01*
X80313395Y-115515739D01*
X80515739Y-115313395D01*
X80687226Y-115084315D01*
X80824367Y-114833161D01*
X80924369Y-114565046D01*
X80985196Y-114285428D01*
X81005610Y-114000000D01*
X81005610Y-113999998D01*
X83994891Y-113999998D01*
X83994891Y-114000001D01*
X84015300Y-114285362D01*
X84076109Y-114564895D01*
X84176091Y-114832958D01*
X84313191Y-115084038D01*
X84313196Y-115084046D01*
X84419882Y-115226562D01*
X84419883Y-115226563D01*
X85137426Y-114509020D01*
X85223249Y-114637463D01*
X85362537Y-114776751D01*
X85490978Y-114862573D01*
X84773435Y-115580115D01*
X84773436Y-115580116D01*
X84915953Y-115686803D01*
X84915961Y-115686808D01*
X85167042Y-115823908D01*
X85167041Y-115823908D01*
X85435104Y-115923890D01*
X85714637Y-115984699D01*
X85999999Y-116005109D01*
X86000001Y-116005109D01*
X86285362Y-115984699D01*
X86564895Y-115923890D01*
X86832958Y-115823908D01*
X87084038Y-115686808D01*
X87084039Y-115686807D01*
X87226563Y-115580115D01*
X86509020Y-114862573D01*
X86637463Y-114776751D01*
X86776751Y-114637463D01*
X86862573Y-114509020D01*
X87580115Y-115226563D01*
X87686807Y-115084039D01*
X87686808Y-115084038D01*
X87823908Y-114832958D01*
X87923890Y-114564895D01*
X87984699Y-114285362D01*
X88005109Y-114000001D01*
X88005109Y-113999998D01*
X87984699Y-113714637D01*
X87923890Y-113435104D01*
X87823908Y-113167041D01*
X87686808Y-112915961D01*
X87686803Y-112915953D01*
X87580116Y-112773436D01*
X87580115Y-112773435D01*
X86862572Y-113490978D01*
X86776751Y-113362537D01*
X86637463Y-113223249D01*
X86509020Y-113137425D01*
X87226563Y-112419883D01*
X87226562Y-112419882D01*
X87084046Y-112313196D01*
X87084038Y-112313191D01*
X86832957Y-112176091D01*
X86832958Y-112176091D01*
X86564895Y-112076109D01*
X86285362Y-112015300D01*
X86000001Y-111994891D01*
X85999999Y-111994891D01*
X85714637Y-112015300D01*
X85435104Y-112076109D01*
X85167041Y-112176091D01*
X84915961Y-112313191D01*
X84915953Y-112313196D01*
X84773435Y-112419882D01*
X85490979Y-113137426D01*
X85362537Y-113223249D01*
X85223249Y-113362537D01*
X85137426Y-113490979D01*
X84419882Y-112773435D01*
X84313196Y-112915953D01*
X84313191Y-112915961D01*
X84176091Y-113167041D01*
X84076109Y-113435104D01*
X84015300Y-113714637D01*
X83994891Y-113999998D01*
X81005610Y-113999998D01*
X80985196Y-113714572D01*
X80971253Y-113650478D01*
X80924371Y-113434962D01*
X80924370Y-113434960D01*
X80924369Y-113434954D01*
X80824367Y-113166839D01*
X80795411Y-113113811D01*
X80687229Y-112915690D01*
X80687224Y-112915682D01*
X80515745Y-112686612D01*
X80515729Y-112686594D01*
X80313405Y-112484270D01*
X80313387Y-112484254D01*
X80084317Y-112312775D01*
X80084309Y-112312770D01*
X79833166Y-112175635D01*
X79833167Y-112175635D01*
X79725915Y-112135632D01*
X79565046Y-112075631D01*
X79565043Y-112075630D01*
X79565037Y-112075628D01*
X79285433Y-112014804D01*
X79000001Y-111994390D01*
X78999999Y-111994390D01*
X78714566Y-112014804D01*
X78434962Y-112075628D01*
X78166833Y-112175635D01*
X77915690Y-112312770D01*
X77915682Y-112312775D01*
X77686612Y-112484254D01*
X77686594Y-112484270D01*
X77484270Y-112686594D01*
X77484254Y-112686612D01*
X77312775Y-112915682D01*
X77312770Y-112915690D01*
X77175635Y-113166833D01*
X77075628Y-113434962D01*
X77014804Y-113714566D01*
X76994390Y-113999998D01*
X75500500Y-113999998D01*
X75500500Y-77519999D01*
X107864341Y-77519999D01*
X107864341Y-77520000D01*
X107884936Y-77755403D01*
X107884938Y-77755413D01*
X107946094Y-77983655D01*
X107946096Y-77983659D01*
X107946097Y-77983663D01*
X108003284Y-78106300D01*
X108045965Y-78197830D01*
X108045967Y-78197834D01*
X108181501Y-78391395D01*
X108181506Y-78391402D01*
X108348597Y-78558493D01*
X108348603Y-78558498D01*
X108534158Y-78688425D01*
X108577783Y-78743002D01*
X108584977Y-78812500D01*
X108553454Y-78874855D01*
X108534158Y-78891575D01*
X108348597Y-79021505D01*
X108181505Y-79188597D01*
X108045965Y-79382169D01*
X108045964Y-79382171D01*
X107946098Y-79596335D01*
X107946094Y-79596344D01*
X107884938Y-79824586D01*
X107884936Y-79824596D01*
X107864341Y-80059999D01*
X107864341Y-80060000D01*
X107884936Y-80295403D01*
X107884938Y-80295413D01*
X107946094Y-80523655D01*
X107946096Y-80523659D01*
X107946097Y-80523663D01*
X108018997Y-80679997D01*
X108045965Y-80737830D01*
X108045967Y-80737834D01*
X108154281Y-80892521D01*
X108181501Y-80931396D01*
X108181506Y-80931402D01*
X108303818Y-81053714D01*
X108337303Y-81115037D01*
X108332319Y-81184729D01*
X108290447Y-81240662D01*
X108259471Y-81257577D01*
X108127912Y-81306646D01*
X108127906Y-81306649D01*
X108012812Y-81392809D01*
X108012809Y-81392812D01*
X107926649Y-81507906D01*
X107926645Y-81507913D01*
X107876403Y-81642620D01*
X107876401Y-81642627D01*
X107870000Y-81702155D01*
X107870000Y-82350000D01*
X108775440Y-82350000D01*
X108744755Y-82403147D01*
X108710000Y-82532857D01*
X108710000Y-82667143D01*
X108744755Y-82796853D01*
X108775440Y-82850000D01*
X107870000Y-82850000D01*
X107870000Y-83497844D01*
X107876401Y-83557372D01*
X107876403Y-83557379D01*
X107926645Y-83692086D01*
X107926649Y-83692093D01*
X108012809Y-83807187D01*
X108012812Y-83807190D01*
X108127906Y-83893350D01*
X108127913Y-83893354D01*
X108259470Y-83942421D01*
X108315403Y-83984292D01*
X108339821Y-84049756D01*
X108324970Y-84118029D01*
X108303819Y-84146284D01*
X108181503Y-84268600D01*
X108045965Y-84462169D01*
X108045964Y-84462171D01*
X107946098Y-84676335D01*
X107946094Y-84676344D01*
X107884938Y-84904586D01*
X107884936Y-84904596D01*
X107864341Y-85139999D01*
X107864341Y-85140000D01*
X107884936Y-85375403D01*
X107884938Y-85375413D01*
X107946094Y-85603655D01*
X107946096Y-85603659D01*
X107946097Y-85603663D01*
X108045965Y-85817830D01*
X108045967Y-85817834D01*
X108181501Y-86011395D01*
X108181506Y-86011402D01*
X108348597Y-86178493D01*
X108348603Y-86178498D01*
X108534158Y-86308425D01*
X108577783Y-86363002D01*
X108584977Y-86432500D01*
X108553454Y-86494855D01*
X108534158Y-86511575D01*
X108348597Y-86641505D01*
X108181505Y-86808597D01*
X108045965Y-87002169D01*
X108045964Y-87002171D01*
X107946098Y-87216335D01*
X107946094Y-87216344D01*
X107884938Y-87444586D01*
X107884936Y-87444596D01*
X107864341Y-87679999D01*
X107864341Y-87680000D01*
X107884936Y-87915403D01*
X107884938Y-87915413D01*
X107946094Y-88143655D01*
X107946096Y-88143659D01*
X107946097Y-88143663D01*
X108045965Y-88357830D01*
X108045967Y-88357834D01*
X108181501Y-88551395D01*
X108181506Y-88551402D01*
X108348597Y-88718493D01*
X108348603Y-88718498D01*
X108534158Y-88848425D01*
X108577783Y-88903002D01*
X108584977Y-88972500D01*
X108553454Y-89034855D01*
X108534158Y-89051575D01*
X108348597Y-89181505D01*
X108181505Y-89348597D01*
X108045965Y-89542169D01*
X108045964Y-89542171D01*
X107946098Y-89756335D01*
X107946094Y-89756344D01*
X107884938Y-89984586D01*
X107884936Y-89984596D01*
X107864341Y-90219999D01*
X107864341Y-90220000D01*
X107884936Y-90455403D01*
X107884938Y-90455413D01*
X107946094Y-90683655D01*
X107946096Y-90683659D01*
X107946097Y-90683663D01*
X108016064Y-90833707D01*
X108045965Y-90897830D01*
X108045967Y-90897834D01*
X108181501Y-91091395D01*
X108181506Y-91091402D01*
X108348597Y-91258493D01*
X108348603Y-91258498D01*
X108534158Y-91388425D01*
X108577783Y-91443002D01*
X108584977Y-91512500D01*
X108553454Y-91574855D01*
X108534158Y-91591575D01*
X108348597Y-91721505D01*
X108181505Y-91888597D01*
X108045965Y-92082169D01*
X108045964Y-92082171D01*
X107946098Y-92296335D01*
X107946094Y-92296344D01*
X107884938Y-92524586D01*
X107884936Y-92524596D01*
X107864341Y-92759999D01*
X107864341Y-92760000D01*
X107884936Y-92995403D01*
X107884938Y-92995413D01*
X107946094Y-93223655D01*
X107946096Y-93223659D01*
X107946097Y-93223663D01*
X108013503Y-93368215D01*
X108045965Y-93437830D01*
X108045967Y-93437834D01*
X108144988Y-93579249D01*
X108181501Y-93631396D01*
X108181506Y-93631402D01*
X108303818Y-93753714D01*
X108337303Y-93815037D01*
X108332319Y-93884729D01*
X108290447Y-93940662D01*
X108259471Y-93957577D01*
X108127912Y-94006646D01*
X108127906Y-94006649D01*
X108012812Y-94092809D01*
X108012809Y-94092812D01*
X107926649Y-94207906D01*
X107926645Y-94207913D01*
X107876403Y-94342620D01*
X107876401Y-94342627D01*
X107870000Y-94402155D01*
X107870000Y-95050000D01*
X108775440Y-95050000D01*
X108744755Y-95103147D01*
X108710000Y-95232857D01*
X108710000Y-95367143D01*
X108744755Y-95496853D01*
X108775440Y-95550000D01*
X107870000Y-95550000D01*
X107870000Y-96197844D01*
X107876401Y-96257372D01*
X107876403Y-96257379D01*
X107926645Y-96392086D01*
X107926649Y-96392093D01*
X108012809Y-96507187D01*
X108012812Y-96507190D01*
X108127906Y-96593350D01*
X108127913Y-96593354D01*
X108259470Y-96642421D01*
X108315403Y-96684292D01*
X108339821Y-96749756D01*
X108324970Y-96818029D01*
X108303819Y-96846284D01*
X108181503Y-96968600D01*
X108045965Y-97162169D01*
X108045964Y-97162171D01*
X107946098Y-97376335D01*
X107946094Y-97376344D01*
X107884938Y-97604586D01*
X107884936Y-97604596D01*
X107864341Y-97839999D01*
X107864341Y-97840000D01*
X107884936Y-98075403D01*
X107884938Y-98075413D01*
X107946094Y-98303655D01*
X107946096Y-98303659D01*
X107946097Y-98303663D01*
X108045965Y-98517830D01*
X108045967Y-98517834D01*
X108181501Y-98711395D01*
X108181506Y-98711402D01*
X108348597Y-98878493D01*
X108348603Y-98878498D01*
X108534158Y-99008425D01*
X108577783Y-99063002D01*
X108584977Y-99132500D01*
X108553454Y-99194855D01*
X108534158Y-99211575D01*
X108348597Y-99341505D01*
X108181505Y-99508597D01*
X108045965Y-99702169D01*
X108045964Y-99702171D01*
X107946098Y-99916335D01*
X107946094Y-99916344D01*
X107884938Y-100144586D01*
X107884936Y-100144596D01*
X107864341Y-100379999D01*
X107864341Y-100380000D01*
X107884936Y-100615403D01*
X107884938Y-100615413D01*
X107946094Y-100843655D01*
X107946096Y-100843659D01*
X107946097Y-100843663D01*
X108045965Y-101057830D01*
X108045967Y-101057834D01*
X108181501Y-101251395D01*
X108181506Y-101251402D01*
X108348597Y-101418493D01*
X108348603Y-101418498D01*
X108534158Y-101548425D01*
X108577783Y-101603002D01*
X108584977Y-101672500D01*
X108553454Y-101734855D01*
X108534158Y-101751575D01*
X108348597Y-101881505D01*
X108181505Y-102048597D01*
X108045965Y-102242169D01*
X108045964Y-102242171D01*
X107946098Y-102456335D01*
X107946094Y-102456344D01*
X107884938Y-102684586D01*
X107884936Y-102684596D01*
X107864341Y-102919999D01*
X107864341Y-102920000D01*
X107884936Y-103155403D01*
X107884938Y-103155413D01*
X107946094Y-103383655D01*
X107946096Y-103383659D01*
X107946097Y-103383663D01*
X108045965Y-103597830D01*
X108045967Y-103597834D01*
X108181501Y-103791395D01*
X108181506Y-103791402D01*
X108348597Y-103958493D01*
X108348603Y-103958498D01*
X108534158Y-104088425D01*
X108577783Y-104143002D01*
X108584977Y-104212500D01*
X108553454Y-104274855D01*
X108534158Y-104291575D01*
X108348597Y-104421505D01*
X108181505Y-104588597D01*
X108045965Y-104782169D01*
X108045964Y-104782171D01*
X107946098Y-104996335D01*
X107946094Y-104996344D01*
X107884938Y-105224586D01*
X107884936Y-105224596D01*
X107864341Y-105459999D01*
X107864341Y-105460000D01*
X107884936Y-105695403D01*
X107884938Y-105695413D01*
X107946094Y-105923655D01*
X107946096Y-105923659D01*
X107946097Y-105923663D01*
X107958744Y-105950784D01*
X108045965Y-106137830D01*
X108045967Y-106137834D01*
X108074970Y-106179254D01*
X108181501Y-106331396D01*
X108181506Y-106331402D01*
X108303818Y-106453714D01*
X108337303Y-106515037D01*
X108332319Y-106584729D01*
X108290447Y-106640662D01*
X108259471Y-106657577D01*
X108127912Y-106706646D01*
X108127906Y-106706649D01*
X108012812Y-106792809D01*
X108012809Y-106792812D01*
X107926649Y-106907906D01*
X107926645Y-106907913D01*
X107876403Y-107042620D01*
X107876401Y-107042627D01*
X107870000Y-107102155D01*
X107870000Y-107750000D01*
X108775440Y-107750000D01*
X108744755Y-107803147D01*
X108710000Y-107932857D01*
X108710000Y-108067143D01*
X108744755Y-108196853D01*
X108775440Y-108250000D01*
X107870000Y-108250000D01*
X107870000Y-108897844D01*
X107876401Y-108957372D01*
X107876403Y-108957379D01*
X107926645Y-109092086D01*
X107926649Y-109092093D01*
X108012809Y-109207187D01*
X108012812Y-109207190D01*
X108127906Y-109293350D01*
X108127913Y-109293354D01*
X108259470Y-109342421D01*
X108315403Y-109384292D01*
X108339821Y-109449756D01*
X108324970Y-109518029D01*
X108303819Y-109546284D01*
X108181503Y-109668600D01*
X108045965Y-109862169D01*
X108045964Y-109862171D01*
X107946098Y-110076335D01*
X107946094Y-110076344D01*
X107884938Y-110304586D01*
X107884936Y-110304596D01*
X107864341Y-110539999D01*
X107864341Y-110540000D01*
X107884936Y-110775403D01*
X107884938Y-110775413D01*
X107946094Y-111003655D01*
X107946096Y-111003659D01*
X107946097Y-111003663D01*
X108027974Y-111179249D01*
X108045965Y-111217830D01*
X108045967Y-111217834D01*
X108181501Y-111411395D01*
X108181506Y-111411402D01*
X108348597Y-111578493D01*
X108348603Y-111578498D01*
X108534158Y-111708425D01*
X108577783Y-111763002D01*
X108584977Y-111832500D01*
X108553454Y-111894855D01*
X108534158Y-111911575D01*
X108348597Y-112041505D01*
X108181505Y-112208597D01*
X108045965Y-112402169D01*
X108045964Y-112402171D01*
X107946098Y-112616335D01*
X107946094Y-112616344D01*
X107884938Y-112844586D01*
X107884936Y-112844596D01*
X107864341Y-113079999D01*
X107864341Y-113080000D01*
X107884936Y-113315403D01*
X107884938Y-113315413D01*
X107946094Y-113543655D01*
X107946096Y-113543659D01*
X107946097Y-113543663D01*
X108025824Y-113714637D01*
X108045965Y-113757830D01*
X108045967Y-113757834D01*
X108181501Y-113951395D01*
X108181506Y-113951402D01*
X108348597Y-114118493D01*
X108348603Y-114118498D01*
X108534158Y-114248425D01*
X108577783Y-114303002D01*
X108584977Y-114372500D01*
X108553454Y-114434855D01*
X108534158Y-114451575D01*
X108348597Y-114581505D01*
X108181505Y-114748597D01*
X108045965Y-114942169D01*
X108045964Y-114942171D01*
X107946098Y-115156335D01*
X107946094Y-115156344D01*
X107884938Y-115384586D01*
X107884936Y-115384596D01*
X107864341Y-115619999D01*
X107864341Y-115620000D01*
X107884936Y-115855403D01*
X107884938Y-115855413D01*
X107946094Y-116083655D01*
X107946096Y-116083659D01*
X107946097Y-116083663D01*
X108045965Y-116297830D01*
X108045967Y-116297834D01*
X108181501Y-116491395D01*
X108181506Y-116491402D01*
X108348597Y-116658493D01*
X108348603Y-116658498D01*
X108534158Y-116788425D01*
X108577783Y-116843002D01*
X108584977Y-116912500D01*
X108553454Y-116974855D01*
X108534158Y-116991575D01*
X108348597Y-117121505D01*
X108181505Y-117288597D01*
X108045965Y-117482169D01*
X108045964Y-117482171D01*
X107946098Y-117696335D01*
X107946094Y-117696344D01*
X107884938Y-117924586D01*
X107884936Y-117924596D01*
X107864341Y-118159999D01*
X107864341Y-118160000D01*
X107884936Y-118395403D01*
X107884938Y-118395413D01*
X107946094Y-118623655D01*
X107946096Y-118623659D01*
X107946097Y-118623663D01*
X108045965Y-118837830D01*
X108045967Y-118837834D01*
X108154281Y-118992521D01*
X108181501Y-119031396D01*
X108181506Y-119031402D01*
X108303818Y-119153714D01*
X108337303Y-119215037D01*
X108332319Y-119284729D01*
X108290447Y-119340662D01*
X108259471Y-119357577D01*
X108127912Y-119406646D01*
X108127906Y-119406649D01*
X108012812Y-119492809D01*
X108012809Y-119492812D01*
X107926649Y-119607906D01*
X107926645Y-119607913D01*
X107876403Y-119742620D01*
X107876401Y-119742627D01*
X107870000Y-119802155D01*
X107870000Y-120450000D01*
X108775440Y-120450000D01*
X108744755Y-120503147D01*
X108710000Y-120632857D01*
X108710000Y-120767143D01*
X108744755Y-120896853D01*
X108775440Y-120950000D01*
X107870000Y-120950000D01*
X107870000Y-121597844D01*
X107876401Y-121657372D01*
X107876403Y-121657379D01*
X107926645Y-121792086D01*
X107926649Y-121792093D01*
X108012809Y-121907187D01*
X108012812Y-121907190D01*
X108127906Y-121993350D01*
X108127913Y-121993354D01*
X108259470Y-122042421D01*
X108315403Y-122084292D01*
X108339821Y-122149756D01*
X108324970Y-122218029D01*
X108303819Y-122246284D01*
X108181503Y-122368600D01*
X108045965Y-122562169D01*
X108045964Y-122562171D01*
X107946098Y-122776335D01*
X107946094Y-122776344D01*
X107884938Y-123004586D01*
X107884936Y-123004596D01*
X107864341Y-123239999D01*
X107864341Y-123240000D01*
X107884936Y-123475403D01*
X107884938Y-123475413D01*
X107946094Y-123703655D01*
X107946096Y-123703659D01*
X107946097Y-123703663D01*
X108000696Y-123820750D01*
X108045965Y-123917830D01*
X108045967Y-123917834D01*
X108181501Y-124111395D01*
X108181506Y-124111402D01*
X108348597Y-124278493D01*
X108348603Y-124278498D01*
X108534158Y-124408425D01*
X108577783Y-124463002D01*
X108584977Y-124532500D01*
X108553454Y-124594855D01*
X108534158Y-124611575D01*
X108348597Y-124741505D01*
X108181505Y-124908597D01*
X108045965Y-125102169D01*
X108045964Y-125102171D01*
X107946098Y-125316335D01*
X107946094Y-125316344D01*
X107884938Y-125544586D01*
X107884936Y-125544596D01*
X107864341Y-125779999D01*
X107864341Y-125780000D01*
X107884936Y-126015403D01*
X107884938Y-126015413D01*
X107946094Y-126243655D01*
X107946096Y-126243659D01*
X107946097Y-126243663D01*
X108028975Y-126421395D01*
X108045965Y-126457830D01*
X108045967Y-126457834D01*
X108137456Y-126588493D01*
X108181505Y-126651401D01*
X108348599Y-126818495D01*
X108443665Y-126885061D01*
X108542165Y-126954032D01*
X108542167Y-126954033D01*
X108542170Y-126954035D01*
X108756337Y-127053903D01*
X108984592Y-127115063D01*
X109172918Y-127131539D01*
X109219999Y-127135659D01*
X109220000Y-127135659D01*
X109220001Y-127135659D01*
X109259234Y-127132226D01*
X109455408Y-127115063D01*
X109683663Y-127053903D01*
X109897830Y-126954035D01*
X110091401Y-126818495D01*
X110258495Y-126651401D01*
X110394035Y-126457830D01*
X110493903Y-126243663D01*
X110555063Y-126015408D01*
X110575659Y-125780000D01*
X110555536Y-125549999D01*
X114214341Y-125549999D01*
X114214341Y-125550000D01*
X114234936Y-125785403D01*
X114234938Y-125785413D01*
X114296094Y-126013655D01*
X114296096Y-126013659D01*
X114296097Y-126013663D01*
X114388777Y-126212415D01*
X114395965Y-126227830D01*
X114395967Y-126227834D01*
X114446566Y-126300096D01*
X114531505Y-126421401D01*
X114698599Y-126588495D01*
X114775135Y-126642086D01*
X114892165Y-126724032D01*
X114892167Y-126724033D01*
X114892170Y-126724035D01*
X115106337Y-126823903D01*
X115334592Y-126885063D01*
X115505319Y-126900000D01*
X115569999Y-126905659D01*
X115570000Y-126905659D01*
X115570001Y-126905659D01*
X115634681Y-126900000D01*
X115805408Y-126885063D01*
X116033663Y-126823903D01*
X116247830Y-126724035D01*
X116441401Y-126588495D01*
X116563717Y-126466178D01*
X116625036Y-126432696D01*
X116694728Y-126437680D01*
X116750662Y-126479551D01*
X116767577Y-126510528D01*
X116816646Y-126642088D01*
X116816649Y-126642093D01*
X116902809Y-126757187D01*
X116902812Y-126757190D01*
X117017906Y-126843350D01*
X117017913Y-126843354D01*
X117152620Y-126893596D01*
X117152627Y-126893598D01*
X117212155Y-126899999D01*
X117212172Y-126900000D01*
X117860000Y-126900000D01*
X117860000Y-125994560D01*
X117913147Y-126025245D01*
X118042857Y-126060000D01*
X118177143Y-126060000D01*
X118306853Y-126025245D01*
X118360000Y-125994560D01*
X118360000Y-126900000D01*
X119007828Y-126900000D01*
X119007844Y-126899999D01*
X119067372Y-126893598D01*
X119067379Y-126893596D01*
X119202086Y-126843354D01*
X119202093Y-126843350D01*
X119317187Y-126757190D01*
X119317190Y-126757187D01*
X119403350Y-126642093D01*
X119403354Y-126642086D01*
X119452422Y-126510529D01*
X119494293Y-126454595D01*
X119559757Y-126430178D01*
X119628030Y-126445030D01*
X119656285Y-126466181D01*
X119778599Y-126588495D01*
X119855135Y-126642086D01*
X119972165Y-126724032D01*
X119972167Y-126724033D01*
X119972170Y-126724035D01*
X120186337Y-126823903D01*
X120414592Y-126885063D01*
X120585319Y-126900000D01*
X120649999Y-126905659D01*
X120650000Y-126905659D01*
X120650001Y-126905659D01*
X120714681Y-126900000D01*
X120885408Y-126885063D01*
X121113663Y-126823903D01*
X121327830Y-126724035D01*
X121521401Y-126588495D01*
X121688495Y-126421401D01*
X121824035Y-126227830D01*
X121923903Y-126013663D01*
X121985063Y-125785408D01*
X122005659Y-125550000D01*
X121985063Y-125314592D01*
X121923903Y-125086337D01*
X121824035Y-124872171D01*
X121771551Y-124797215D01*
X121688494Y-124678597D01*
X121521402Y-124511506D01*
X121521395Y-124511501D01*
X121519251Y-124510000D01*
X121444854Y-124457906D01*
X121327834Y-124375967D01*
X121327830Y-124375965D01*
X121256727Y-124342809D01*
X121113663Y-124276097D01*
X121113659Y-124276096D01*
X121113655Y-124276094D01*
X120885413Y-124214938D01*
X120885403Y-124214936D01*
X120650001Y-124194341D01*
X120649999Y-124194341D01*
X120414596Y-124214936D01*
X120414586Y-124214938D01*
X120186344Y-124276094D01*
X120186335Y-124276098D01*
X119972171Y-124375964D01*
X119972169Y-124375965D01*
X119778600Y-124511503D01*
X119656284Y-124633819D01*
X119594961Y-124667303D01*
X119525269Y-124662319D01*
X119469336Y-124620447D01*
X119452421Y-124589470D01*
X119403354Y-124457913D01*
X119403350Y-124457906D01*
X119317190Y-124342812D01*
X119317187Y-124342809D01*
X119202093Y-124256649D01*
X119202086Y-124256645D01*
X119067379Y-124206403D01*
X119067372Y-124206401D01*
X119007844Y-124200000D01*
X118360000Y-124200000D01*
X118360000Y-125105439D01*
X118306853Y-125074755D01*
X118177143Y-125040000D01*
X118042857Y-125040000D01*
X117913147Y-125074755D01*
X117860000Y-125105439D01*
X117860000Y-124200000D01*
X117212155Y-124200000D01*
X117152627Y-124206401D01*
X117152620Y-124206403D01*
X117017913Y-124256645D01*
X117017906Y-124256649D01*
X116902812Y-124342809D01*
X116902809Y-124342812D01*
X116816649Y-124457906D01*
X116816645Y-124457913D01*
X116767578Y-124589470D01*
X116725707Y-124645404D01*
X116660242Y-124669821D01*
X116591969Y-124654969D01*
X116563715Y-124633819D01*
X116519366Y-124589470D01*
X116441401Y-124511505D01*
X116441397Y-124511502D01*
X116441396Y-124511501D01*
X116247834Y-124375967D01*
X116247830Y-124375965D01*
X116176727Y-124342809D01*
X116033663Y-124276097D01*
X116033659Y-124276096D01*
X116033655Y-124276094D01*
X115805413Y-124214938D01*
X115805403Y-124214936D01*
X115570001Y-124194341D01*
X115569999Y-124194341D01*
X115334596Y-124214936D01*
X115334586Y-124214938D01*
X115106344Y-124276094D01*
X115106335Y-124276098D01*
X114892171Y-124375964D01*
X114892169Y-124375965D01*
X114698597Y-124511505D01*
X114531505Y-124678597D01*
X114395965Y-124872169D01*
X114395964Y-124872171D01*
X114296098Y-125086335D01*
X114296094Y-125086344D01*
X114234938Y-125314586D01*
X114234936Y-125314596D01*
X114214341Y-125549999D01*
X110555536Y-125549999D01*
X110555063Y-125544592D01*
X110493903Y-125316337D01*
X110394035Y-125102171D01*
X110374839Y-125074755D01*
X110258494Y-124908597D01*
X110091402Y-124741506D01*
X110091396Y-124741501D01*
X109905842Y-124611575D01*
X109862217Y-124556998D01*
X109855023Y-124487500D01*
X109886546Y-124425145D01*
X109905842Y-124408425D01*
X109952197Y-124375967D01*
X110091401Y-124278495D01*
X110258495Y-124111401D01*
X110394035Y-123917830D01*
X110493903Y-123703663D01*
X110555063Y-123475408D01*
X110575659Y-123240000D01*
X110555063Y-123004592D01*
X110493903Y-122776337D01*
X110394035Y-122562171D01*
X110361527Y-122515745D01*
X110258496Y-122368600D01*
X110203283Y-122313387D01*
X110136179Y-122246283D01*
X110102696Y-122184963D01*
X110107680Y-122115271D01*
X110149551Y-122059337D01*
X110180529Y-122042422D01*
X110312086Y-121993354D01*
X110312093Y-121993350D01*
X110427187Y-121907190D01*
X110427190Y-121907187D01*
X110513350Y-121792093D01*
X110513354Y-121792086D01*
X110563596Y-121657379D01*
X110563598Y-121657372D01*
X110569999Y-121597844D01*
X110570000Y-121597827D01*
X110570000Y-120950000D01*
X109664560Y-120950000D01*
X109695245Y-120896853D01*
X109730000Y-120767143D01*
X109730000Y-120632857D01*
X109695245Y-120503147D01*
X109664560Y-120450000D01*
X110570000Y-120450000D01*
X110570000Y-119802172D01*
X110569999Y-119802155D01*
X110563598Y-119742627D01*
X110563596Y-119742620D01*
X110513354Y-119607913D01*
X110513350Y-119607906D01*
X110427190Y-119492812D01*
X110427187Y-119492809D01*
X110312093Y-119406649D01*
X110312088Y-119406646D01*
X110180528Y-119357577D01*
X110124595Y-119315705D01*
X110100178Y-119250241D01*
X110115030Y-119181968D01*
X110136175Y-119153720D01*
X110258495Y-119031401D01*
X110394035Y-118837830D01*
X110493903Y-118623663D01*
X110555063Y-118395408D01*
X110575659Y-118160000D01*
X110555063Y-117924592D01*
X110493903Y-117696337D01*
X110394035Y-117482171D01*
X110258495Y-117288599D01*
X110258494Y-117288597D01*
X110091402Y-117121506D01*
X110091396Y-117121501D01*
X109905842Y-116991575D01*
X109862217Y-116936998D01*
X109855023Y-116867500D01*
X109886546Y-116805145D01*
X109905842Y-116788425D01*
X109928026Y-116772891D01*
X110091401Y-116658495D01*
X110258495Y-116491401D01*
X110394035Y-116297830D01*
X110493903Y-116083663D01*
X110555063Y-115855408D01*
X110575659Y-115620000D01*
X110555063Y-115384592D01*
X110508626Y-115211285D01*
X110493905Y-115156344D01*
X110493904Y-115156343D01*
X110493903Y-115156337D01*
X110394035Y-114942171D01*
X110387400Y-114932694D01*
X110258494Y-114748597D01*
X110091402Y-114581506D01*
X110091396Y-114581501D01*
X109905842Y-114451575D01*
X109862217Y-114396998D01*
X109855023Y-114327500D01*
X109886546Y-114265145D01*
X109905842Y-114248425D01*
X109928026Y-114232891D01*
X110091401Y-114118495D01*
X110258495Y-113951401D01*
X110394035Y-113757830D01*
X110493903Y-113543663D01*
X110555063Y-113315408D01*
X110575659Y-113080000D01*
X110575576Y-113079057D01*
X110561283Y-112915685D01*
X110555063Y-112844592D01*
X110497908Y-112631284D01*
X110493905Y-112616344D01*
X110493904Y-112616343D01*
X110493903Y-112616337D01*
X110394035Y-112402171D01*
X110361607Y-112355858D01*
X110258494Y-112208597D01*
X110091402Y-112041506D01*
X110091396Y-112041501D01*
X109905842Y-111911575D01*
X109862217Y-111856998D01*
X109855023Y-111787500D01*
X109886546Y-111725145D01*
X109905842Y-111708425D01*
X109935662Y-111687545D01*
X110091401Y-111578495D01*
X110258495Y-111411401D01*
X110394035Y-111217830D01*
X110493903Y-111003663D01*
X110555063Y-110775408D01*
X110575659Y-110540000D01*
X110555063Y-110304592D01*
X110493903Y-110076337D01*
X110394035Y-109862171D01*
X110384977Y-109849235D01*
X110258496Y-109668600D01*
X110219711Y-109629815D01*
X110136179Y-109546283D01*
X110102696Y-109484963D01*
X110107680Y-109415271D01*
X110149551Y-109359337D01*
X110180529Y-109342422D01*
X110312086Y-109293354D01*
X110312093Y-109293350D01*
X110427187Y-109207190D01*
X110427190Y-109207187D01*
X110513350Y-109092093D01*
X110513354Y-109092086D01*
X110563596Y-108957379D01*
X110563598Y-108957372D01*
X110569999Y-108897844D01*
X110570000Y-108897827D01*
X110570000Y-108250000D01*
X109664560Y-108250000D01*
X109695245Y-108196853D01*
X109730000Y-108067143D01*
X109730000Y-107932857D01*
X109695245Y-107803147D01*
X109664560Y-107750000D01*
X110570000Y-107750000D01*
X110570000Y-107102172D01*
X110569999Y-107102155D01*
X110563598Y-107042627D01*
X110563596Y-107042620D01*
X110513354Y-106907913D01*
X110513350Y-106907906D01*
X110427190Y-106792812D01*
X110427187Y-106792809D01*
X110312093Y-106706649D01*
X110312088Y-106706646D01*
X110180528Y-106657577D01*
X110124595Y-106615705D01*
X110100178Y-106550241D01*
X110115030Y-106481968D01*
X110136175Y-106453720D01*
X110258495Y-106331401D01*
X110394035Y-106137830D01*
X110493903Y-105923663D01*
X110555063Y-105695408D01*
X110575659Y-105460000D01*
X110555063Y-105224592D01*
X110493903Y-104996337D01*
X110394035Y-104782171D01*
X110258495Y-104588599D01*
X110258494Y-104588597D01*
X110091402Y-104421506D01*
X110091396Y-104421501D01*
X109905842Y-104291575D01*
X109862217Y-104236998D01*
X109855023Y-104167500D01*
X109886546Y-104105145D01*
X109905842Y-104088425D01*
X109928026Y-104072891D01*
X110091401Y-103958495D01*
X110258495Y-103791401D01*
X110394035Y-103597830D01*
X110493903Y-103383663D01*
X110555063Y-103155408D01*
X110575659Y-102920000D01*
X110555063Y-102684592D01*
X110493903Y-102456337D01*
X110394035Y-102242171D01*
X110258495Y-102048599D01*
X110258494Y-102048597D01*
X110091402Y-101881506D01*
X110091396Y-101881501D01*
X109905842Y-101751575D01*
X109862217Y-101696998D01*
X109855023Y-101627500D01*
X109886546Y-101565145D01*
X109905842Y-101548425D01*
X109928026Y-101532891D01*
X110091401Y-101418495D01*
X110258495Y-101251401D01*
X110394035Y-101057830D01*
X110493903Y-100843663D01*
X110555063Y-100615408D01*
X110575659Y-100380000D01*
X110555063Y-100144592D01*
X110493903Y-99916337D01*
X110394035Y-99702171D01*
X110258495Y-99508599D01*
X110258494Y-99508597D01*
X110091402Y-99341506D01*
X110091396Y-99341501D01*
X109905842Y-99211575D01*
X109862217Y-99156998D01*
X109855023Y-99087500D01*
X109886546Y-99025145D01*
X109905842Y-99008425D01*
X109928026Y-98992891D01*
X110091401Y-98878495D01*
X110258495Y-98711401D01*
X110394035Y-98517830D01*
X110493903Y-98303663D01*
X110555063Y-98075408D01*
X110575659Y-97840000D01*
X110555063Y-97604592D01*
X110493903Y-97376337D01*
X110394035Y-97162171D01*
X110258495Y-96968599D01*
X110136179Y-96846283D01*
X110102696Y-96784963D01*
X110107680Y-96715271D01*
X110149551Y-96659337D01*
X110180529Y-96642422D01*
X110312086Y-96593354D01*
X110312093Y-96593350D01*
X110427187Y-96507190D01*
X110427190Y-96507187D01*
X110513350Y-96392093D01*
X110513354Y-96392086D01*
X110563596Y-96257379D01*
X110563598Y-96257372D01*
X110569999Y-96197844D01*
X110570000Y-96197827D01*
X110570000Y-95550000D01*
X109664560Y-95550000D01*
X109695245Y-95496853D01*
X109730000Y-95367143D01*
X109730000Y-95232857D01*
X109695245Y-95103147D01*
X109664560Y-95050000D01*
X110570000Y-95050000D01*
X110570000Y-94402172D01*
X110569999Y-94402155D01*
X110563598Y-94342627D01*
X110563596Y-94342620D01*
X110513354Y-94207913D01*
X110513350Y-94207906D01*
X110427190Y-94092812D01*
X110427187Y-94092809D01*
X110312093Y-94006649D01*
X110312088Y-94006646D01*
X110180528Y-93957577D01*
X110124595Y-93915705D01*
X110100178Y-93850241D01*
X110115030Y-93781968D01*
X110136175Y-93753720D01*
X110258495Y-93631401D01*
X110394035Y-93437830D01*
X110493903Y-93223663D01*
X110555063Y-92995408D01*
X110575659Y-92760000D01*
X110555063Y-92524592D01*
X110493903Y-92296337D01*
X110394035Y-92082171D01*
X110258495Y-91888599D01*
X110258494Y-91888597D01*
X110091402Y-91721506D01*
X110091396Y-91721501D01*
X109905842Y-91591575D01*
X109862217Y-91536998D01*
X109855023Y-91467500D01*
X109886546Y-91405145D01*
X109905842Y-91388425D01*
X109928026Y-91372891D01*
X110091401Y-91258495D01*
X110258495Y-91091401D01*
X110394035Y-90897830D01*
X110493903Y-90683663D01*
X110555063Y-90455408D01*
X110575659Y-90220000D01*
X110555063Y-89984592D01*
X110493903Y-89756337D01*
X110394035Y-89542171D01*
X110258495Y-89348599D01*
X110258494Y-89348597D01*
X110091402Y-89181506D01*
X110091396Y-89181501D01*
X109905842Y-89051575D01*
X109862217Y-88996998D01*
X109855023Y-88927500D01*
X109886546Y-88865145D01*
X109905842Y-88848425D01*
X109928026Y-88832891D01*
X110091401Y-88718495D01*
X110258495Y-88551401D01*
X110394035Y-88357830D01*
X110493903Y-88143663D01*
X110555063Y-87915408D01*
X110575659Y-87680000D01*
X110555063Y-87444592D01*
X110493903Y-87216337D01*
X110394035Y-87002171D01*
X110258495Y-86808599D01*
X110258494Y-86808597D01*
X110091402Y-86641506D01*
X110091396Y-86641501D01*
X109905842Y-86511575D01*
X109862217Y-86456998D01*
X109855023Y-86387500D01*
X109886546Y-86325145D01*
X109905842Y-86308425D01*
X109928026Y-86292891D01*
X110091401Y-86178495D01*
X110258495Y-86011401D01*
X110394035Y-85817830D01*
X110493903Y-85603663D01*
X110555063Y-85375408D01*
X110575659Y-85140000D01*
X110555063Y-84904592D01*
X110493903Y-84676337D01*
X110394035Y-84462171D01*
X110258495Y-84268599D01*
X110136179Y-84146283D01*
X110102696Y-84084963D01*
X110107680Y-84015271D01*
X110149551Y-83959337D01*
X110180529Y-83942422D01*
X110312086Y-83893354D01*
X110312093Y-83893350D01*
X110427187Y-83807190D01*
X110427190Y-83807187D01*
X110513350Y-83692093D01*
X110513354Y-83692086D01*
X110563596Y-83557379D01*
X110563598Y-83557372D01*
X110569999Y-83497844D01*
X110570000Y-83497827D01*
X110570000Y-82850000D01*
X109664560Y-82850000D01*
X109695245Y-82796853D01*
X109730000Y-82667143D01*
X109730000Y-82532857D01*
X109695245Y-82403147D01*
X109664560Y-82350000D01*
X110570000Y-82350000D01*
X110570000Y-81702172D01*
X110569999Y-81702155D01*
X110563598Y-81642627D01*
X110563596Y-81642620D01*
X110513354Y-81507913D01*
X110513350Y-81507906D01*
X110427190Y-81392812D01*
X110427187Y-81392809D01*
X110312093Y-81306649D01*
X110312088Y-81306646D01*
X110180528Y-81257577D01*
X110124595Y-81215705D01*
X110100178Y-81150241D01*
X110115030Y-81081968D01*
X110136175Y-81053720D01*
X110258495Y-80931401D01*
X110394035Y-80737830D01*
X110421003Y-80679997D01*
X114429723Y-80679997D01*
X114429723Y-80680002D01*
X114448793Y-80897975D01*
X114448793Y-80897979D01*
X114505422Y-81109322D01*
X114505424Y-81109326D01*
X114505425Y-81109330D01*
X114524321Y-81149853D01*
X114597897Y-81307638D01*
X114597898Y-81307639D01*
X114723402Y-81486877D01*
X114878123Y-81641598D01*
X115057361Y-81767102D01*
X115255670Y-81859575D01*
X115467023Y-81916207D01*
X115649926Y-81932208D01*
X115684998Y-81935277D01*
X115685000Y-81935277D01*
X115685002Y-81935277D01*
X115713254Y-81932805D01*
X115902977Y-81916207D01*
X116114330Y-81859575D01*
X116312639Y-81767102D01*
X116491877Y-81641598D01*
X116646598Y-81486877D01*
X116772102Y-81307639D01*
X116864575Y-81109330D01*
X116921207Y-80897977D01*
X116940277Y-80680000D01*
X116940277Y-80679997D01*
X119279723Y-80679997D01*
X119279723Y-80680002D01*
X119298793Y-80897975D01*
X119298793Y-80897979D01*
X119355422Y-81109322D01*
X119355424Y-81109326D01*
X119355425Y-81109330D01*
X119374321Y-81149853D01*
X119447897Y-81307638D01*
X119447898Y-81307639D01*
X119573402Y-81486877D01*
X119728123Y-81641598D01*
X119907361Y-81767102D01*
X120105670Y-81859575D01*
X120317023Y-81916207D01*
X120499926Y-81932208D01*
X120534998Y-81935277D01*
X120535000Y-81935277D01*
X120535002Y-81935277D01*
X120563254Y-81932805D01*
X120752977Y-81916207D01*
X120964330Y-81859575D01*
X121162639Y-81767102D01*
X121341877Y-81641598D01*
X121496598Y-81486877D01*
X121622102Y-81307639D01*
X121714575Y-81109330D01*
X121771207Y-80897977D01*
X121790277Y-80680000D01*
X121771207Y-80462023D01*
X121714575Y-80250670D01*
X121622102Y-80052362D01*
X121622100Y-80052359D01*
X121622099Y-80052357D01*
X121496599Y-79873124D01*
X121448061Y-79824586D01*
X121341877Y-79718402D01*
X121203978Y-79621844D01*
X121162638Y-79592897D01*
X121063484Y-79546661D01*
X120964330Y-79500425D01*
X120964326Y-79500424D01*
X120964322Y-79500422D01*
X120752977Y-79443793D01*
X120535002Y-79424723D01*
X120534998Y-79424723D01*
X120389682Y-79437436D01*
X120317023Y-79443793D01*
X120317020Y-79443793D01*
X120105677Y-79500422D01*
X120105668Y-79500426D01*
X119907361Y-79592898D01*
X119907357Y-79592900D01*
X119728121Y-79718402D01*
X119573402Y-79873121D01*
X119447900Y-80052357D01*
X119447898Y-80052361D01*
X119355426Y-80250668D01*
X119355422Y-80250677D01*
X119298793Y-80462020D01*
X119298793Y-80462024D01*
X119279723Y-80679997D01*
X116940277Y-80679997D01*
X116921207Y-80462023D01*
X116864575Y-80250670D01*
X116772102Y-80052362D01*
X116772100Y-80052359D01*
X116772099Y-80052357D01*
X116646599Y-79873124D01*
X116598061Y-79824586D01*
X116491877Y-79718402D01*
X116353978Y-79621844D01*
X116312638Y-79592897D01*
X116213484Y-79546661D01*
X116114330Y-79500425D01*
X116114326Y-79500424D01*
X116114322Y-79500422D01*
X115902977Y-79443793D01*
X115685002Y-79424723D01*
X115684998Y-79424723D01*
X115539682Y-79437436D01*
X115467023Y-79443793D01*
X115467020Y-79443793D01*
X115255677Y-79500422D01*
X115255668Y-79500426D01*
X115057361Y-79592898D01*
X115057357Y-79592900D01*
X114878121Y-79718402D01*
X114723402Y-79873121D01*
X114597900Y-80052357D01*
X114597898Y-80052361D01*
X114505426Y-80250668D01*
X114505422Y-80250677D01*
X114448793Y-80462020D01*
X114448793Y-80462024D01*
X114429723Y-80679997D01*
X110421003Y-80679997D01*
X110493903Y-80523663D01*
X110555063Y-80295408D01*
X110575659Y-80060000D01*
X110555063Y-79824592D01*
X110493903Y-79596337D01*
X110394035Y-79382171D01*
X110258495Y-79188599D01*
X110258494Y-79188597D01*
X110091402Y-79021506D01*
X110091396Y-79021501D01*
X109905842Y-78891575D01*
X109862217Y-78836998D01*
X109855023Y-78767500D01*
X109886546Y-78705145D01*
X109905842Y-78688425D01*
X109928026Y-78672891D01*
X110091401Y-78558495D01*
X110258495Y-78391401D01*
X110394035Y-78197830D01*
X110493903Y-77983663D01*
X110555063Y-77755408D01*
X110564286Y-77649993D01*
X113979700Y-77649993D01*
X113979700Y-77650006D01*
X113998864Y-77881297D01*
X113998866Y-77881308D01*
X114055842Y-78106300D01*
X114149075Y-78318848D01*
X114276016Y-78513147D01*
X114276019Y-78513151D01*
X114276021Y-78513153D01*
X114433216Y-78683913D01*
X114433219Y-78683915D01*
X114433222Y-78683918D01*
X114616365Y-78826464D01*
X114616371Y-78826468D01*
X114616374Y-78826470D01*
X114820497Y-78936936D01*
X114934487Y-78976068D01*
X115040015Y-79012297D01*
X115040017Y-79012297D01*
X115040019Y-79012298D01*
X115268951Y-79050500D01*
X115268952Y-79050500D01*
X115501048Y-79050500D01*
X115501049Y-79050500D01*
X115729981Y-79012298D01*
X115949503Y-78936936D01*
X116153626Y-78826470D01*
X116336784Y-78683913D01*
X116493979Y-78513153D01*
X116620924Y-78318849D01*
X116714157Y-78106300D01*
X116771134Y-77881305D01*
X116771135Y-77881297D01*
X116790300Y-77650006D01*
X116790300Y-77649993D01*
X119429700Y-77649993D01*
X119429700Y-77650006D01*
X119448864Y-77881297D01*
X119448866Y-77881308D01*
X119505842Y-78106300D01*
X119599075Y-78318848D01*
X119726016Y-78513147D01*
X119726019Y-78513151D01*
X119726021Y-78513153D01*
X119883216Y-78683913D01*
X119883219Y-78683915D01*
X119883222Y-78683918D01*
X120066365Y-78826464D01*
X120066371Y-78826468D01*
X120066374Y-78826470D01*
X120270497Y-78936936D01*
X120384487Y-78976068D01*
X120490015Y-79012297D01*
X120490017Y-79012297D01*
X120490019Y-79012298D01*
X120718951Y-79050500D01*
X120718952Y-79050500D01*
X120951048Y-79050500D01*
X120951049Y-79050500D01*
X121179981Y-79012298D01*
X121399503Y-78936936D01*
X121603626Y-78826470D01*
X121786784Y-78683913D01*
X121943979Y-78513153D01*
X122070924Y-78318849D01*
X122164157Y-78106300D01*
X122221134Y-77881305D01*
X122221135Y-77881297D01*
X122240300Y-77650006D01*
X122240300Y-77649993D01*
X122229529Y-77519999D01*
X125644341Y-77519999D01*
X125644341Y-77520000D01*
X125664936Y-77755403D01*
X125664938Y-77755413D01*
X125726094Y-77983655D01*
X125726096Y-77983659D01*
X125726097Y-77983663D01*
X125783284Y-78106300D01*
X125825965Y-78197830D01*
X125825967Y-78197834D01*
X125961501Y-78391395D01*
X125961506Y-78391402D01*
X126128597Y-78558493D01*
X126128603Y-78558498D01*
X126314158Y-78688425D01*
X126357783Y-78743002D01*
X126364977Y-78812500D01*
X126333454Y-78874855D01*
X126314158Y-78891575D01*
X126128597Y-79021505D01*
X125961505Y-79188597D01*
X125825965Y-79382169D01*
X125825964Y-79382171D01*
X125726098Y-79596335D01*
X125726094Y-79596344D01*
X125664938Y-79824586D01*
X125664936Y-79824596D01*
X125644341Y-80059999D01*
X125644341Y-80060000D01*
X125664936Y-80295403D01*
X125664938Y-80295413D01*
X125726094Y-80523655D01*
X125726096Y-80523659D01*
X125726097Y-80523663D01*
X125798997Y-80679997D01*
X125825965Y-80737830D01*
X125825967Y-80737834D01*
X125934281Y-80892521D01*
X125961501Y-80931396D01*
X125961506Y-80931402D01*
X126083430Y-81053326D01*
X126116915Y-81114649D01*
X126111931Y-81184341D01*
X126070059Y-81240274D01*
X126039083Y-81257189D01*
X125907669Y-81306203D01*
X125907664Y-81306206D01*
X125792455Y-81392452D01*
X125792452Y-81392455D01*
X125706206Y-81507664D01*
X125706202Y-81507671D01*
X125655908Y-81642517D01*
X125649501Y-81702116D01*
X125649501Y-81702123D01*
X125649500Y-81702135D01*
X125649500Y-83497870D01*
X125649501Y-83497876D01*
X125655908Y-83557483D01*
X125706202Y-83692328D01*
X125706206Y-83692335D01*
X125792452Y-83807544D01*
X125792455Y-83807547D01*
X125907664Y-83893793D01*
X125907671Y-83893797D01*
X126039081Y-83942810D01*
X126095015Y-83984681D01*
X126119432Y-84050145D01*
X126104580Y-84118418D01*
X126083430Y-84146673D01*
X125961503Y-84268600D01*
X125825965Y-84462169D01*
X125825964Y-84462171D01*
X125726098Y-84676335D01*
X125726094Y-84676344D01*
X125664938Y-84904586D01*
X125664936Y-84904596D01*
X125644341Y-85139999D01*
X125644341Y-85140000D01*
X125664936Y-85375403D01*
X125664938Y-85375413D01*
X125726094Y-85603655D01*
X125726096Y-85603659D01*
X125726097Y-85603663D01*
X125825965Y-85817830D01*
X125825967Y-85817834D01*
X125961501Y-86011395D01*
X125961506Y-86011402D01*
X126128597Y-86178493D01*
X126128603Y-86178498D01*
X126314158Y-86308425D01*
X126357783Y-86363002D01*
X126364977Y-86432500D01*
X126333454Y-86494855D01*
X126314158Y-86511575D01*
X126128597Y-86641505D01*
X125961505Y-86808597D01*
X125825965Y-87002169D01*
X125825964Y-87002171D01*
X125726098Y-87216335D01*
X125726094Y-87216344D01*
X125664938Y-87444586D01*
X125664936Y-87444596D01*
X125644341Y-87679999D01*
X125644341Y-87680000D01*
X125664936Y-87915403D01*
X125664938Y-87915413D01*
X125726094Y-88143655D01*
X125726096Y-88143659D01*
X125726097Y-88143663D01*
X125825965Y-88357830D01*
X125825967Y-88357834D01*
X125961501Y-88551395D01*
X125961506Y-88551402D01*
X126128597Y-88718493D01*
X126128603Y-88718498D01*
X126314158Y-88848425D01*
X126357783Y-88903002D01*
X126364977Y-88972500D01*
X126333454Y-89034855D01*
X126314158Y-89051575D01*
X126128597Y-89181505D01*
X125961505Y-89348597D01*
X125825965Y-89542169D01*
X125825964Y-89542171D01*
X125726098Y-89756335D01*
X125726094Y-89756344D01*
X125664938Y-89984586D01*
X125664936Y-89984596D01*
X125644341Y-90219999D01*
X125644341Y-90220000D01*
X125664936Y-90455403D01*
X125664938Y-90455413D01*
X125726094Y-90683655D01*
X125726096Y-90683659D01*
X125726097Y-90683663D01*
X125796064Y-90833707D01*
X125825965Y-90897830D01*
X125825967Y-90897834D01*
X125961501Y-91091395D01*
X125961506Y-91091402D01*
X126128597Y-91258493D01*
X126128603Y-91258498D01*
X126314158Y-91388425D01*
X126357783Y-91443002D01*
X126364977Y-91512500D01*
X126333454Y-91574855D01*
X126314158Y-91591575D01*
X126128597Y-91721505D01*
X125961505Y-91888597D01*
X125825965Y-92082169D01*
X125825964Y-92082171D01*
X125726098Y-92296335D01*
X125726094Y-92296344D01*
X125664938Y-92524586D01*
X125664936Y-92524596D01*
X125644341Y-92759999D01*
X125644341Y-92760000D01*
X125664936Y-92995403D01*
X125664938Y-92995413D01*
X125726094Y-93223655D01*
X125726096Y-93223659D01*
X125726097Y-93223663D01*
X125793503Y-93368215D01*
X125825965Y-93437830D01*
X125825967Y-93437834D01*
X125924988Y-93579249D01*
X125961501Y-93631396D01*
X125961506Y-93631402D01*
X126083430Y-93753326D01*
X126116915Y-93814649D01*
X126111931Y-93884341D01*
X126070059Y-93940274D01*
X126039083Y-93957189D01*
X125907669Y-94006203D01*
X125907664Y-94006206D01*
X125792455Y-94092452D01*
X125792452Y-94092455D01*
X125706206Y-94207664D01*
X125706202Y-94207671D01*
X125655908Y-94342517D01*
X125652934Y-94370184D01*
X125649501Y-94402123D01*
X125649500Y-94402135D01*
X125649500Y-96197870D01*
X125649501Y-96197876D01*
X125655908Y-96257483D01*
X125706202Y-96392328D01*
X125706206Y-96392335D01*
X125792452Y-96507544D01*
X125792455Y-96507547D01*
X125907664Y-96593793D01*
X125907671Y-96593797D01*
X126039081Y-96642810D01*
X126095015Y-96684681D01*
X126119432Y-96750145D01*
X126104580Y-96818418D01*
X126083430Y-96846673D01*
X125961503Y-96968600D01*
X125825965Y-97162169D01*
X125825964Y-97162171D01*
X125726098Y-97376335D01*
X125726094Y-97376344D01*
X125664938Y-97604586D01*
X125664936Y-97604596D01*
X125644341Y-97839999D01*
X125644341Y-97840000D01*
X125664936Y-98075403D01*
X125664938Y-98075413D01*
X125726094Y-98303655D01*
X125726096Y-98303659D01*
X125726097Y-98303663D01*
X125825965Y-98517830D01*
X125825967Y-98517834D01*
X125961501Y-98711395D01*
X125961506Y-98711402D01*
X126128597Y-98878493D01*
X126128603Y-98878498D01*
X126314158Y-99008425D01*
X126357783Y-99063002D01*
X126364977Y-99132500D01*
X126333454Y-99194855D01*
X126314158Y-99211575D01*
X126128597Y-99341505D01*
X125961505Y-99508597D01*
X125825965Y-99702169D01*
X125825964Y-99702171D01*
X125726098Y-99916335D01*
X125726094Y-99916344D01*
X125664938Y-100144586D01*
X125664936Y-100144596D01*
X125644341Y-100379999D01*
X125644341Y-100380000D01*
X125664936Y-100615403D01*
X125664938Y-100615413D01*
X125726094Y-100843655D01*
X125726096Y-100843659D01*
X125726097Y-100843663D01*
X125825965Y-101057830D01*
X125825967Y-101057834D01*
X125961501Y-101251395D01*
X125961506Y-101251402D01*
X126128597Y-101418493D01*
X126128603Y-101418498D01*
X126314158Y-101548425D01*
X126357783Y-101603002D01*
X126364977Y-101672500D01*
X126333454Y-101734855D01*
X126314158Y-101751575D01*
X126128597Y-101881505D01*
X125961505Y-102048597D01*
X125825965Y-102242169D01*
X125825964Y-102242171D01*
X125726098Y-102456335D01*
X125726094Y-102456344D01*
X125664938Y-102684586D01*
X125664936Y-102684596D01*
X125644341Y-102919999D01*
X125644341Y-102920000D01*
X125664936Y-103155403D01*
X125664938Y-103155413D01*
X125726094Y-103383655D01*
X125726096Y-103383659D01*
X125726097Y-103383663D01*
X125825965Y-103597830D01*
X125825967Y-103597834D01*
X125961501Y-103791395D01*
X125961506Y-103791402D01*
X126128597Y-103958493D01*
X126128603Y-103958498D01*
X126314158Y-104088425D01*
X126357783Y-104143002D01*
X126364977Y-104212500D01*
X126333454Y-104274855D01*
X126314158Y-104291575D01*
X126128597Y-104421505D01*
X125961505Y-104588597D01*
X125825965Y-104782169D01*
X125825964Y-104782171D01*
X125726098Y-104996335D01*
X125726094Y-104996344D01*
X125664938Y-105224586D01*
X125664936Y-105224596D01*
X125644341Y-105459999D01*
X125644341Y-105460000D01*
X125664936Y-105695403D01*
X125664938Y-105695413D01*
X125726094Y-105923655D01*
X125726096Y-105923659D01*
X125726097Y-105923663D01*
X125738744Y-105950784D01*
X125825965Y-106137830D01*
X125825967Y-106137834D01*
X125854970Y-106179254D01*
X125961501Y-106331396D01*
X125961506Y-106331402D01*
X126083430Y-106453326D01*
X126116915Y-106514649D01*
X126111931Y-106584341D01*
X126070059Y-106640274D01*
X126039083Y-106657189D01*
X125907669Y-106706203D01*
X125907664Y-106706206D01*
X125792455Y-106792452D01*
X125792452Y-106792455D01*
X125706206Y-106907664D01*
X125706202Y-106907671D01*
X125655908Y-107042517D01*
X125649501Y-107102116D01*
X125649501Y-107102123D01*
X125649500Y-107102135D01*
X125649500Y-108897870D01*
X125649501Y-108897876D01*
X125655908Y-108957483D01*
X125706202Y-109092328D01*
X125706206Y-109092335D01*
X125792452Y-109207544D01*
X125792455Y-109207547D01*
X125907664Y-109293793D01*
X125907671Y-109293797D01*
X126039081Y-109342810D01*
X126095015Y-109384681D01*
X126119432Y-109450145D01*
X126104580Y-109518418D01*
X126083430Y-109546673D01*
X125961503Y-109668600D01*
X125825965Y-109862169D01*
X125825964Y-109862171D01*
X125726098Y-110076335D01*
X125726094Y-110076344D01*
X125664938Y-110304586D01*
X125664936Y-110304596D01*
X125644341Y-110539999D01*
X125644341Y-110540000D01*
X125664936Y-110775403D01*
X125664938Y-110775413D01*
X125726094Y-111003655D01*
X125726096Y-111003659D01*
X125726097Y-111003663D01*
X125807974Y-111179249D01*
X125825965Y-111217830D01*
X125825967Y-111217834D01*
X125961501Y-111411395D01*
X125961506Y-111411402D01*
X126128597Y-111578493D01*
X126128603Y-111578498D01*
X126314158Y-111708425D01*
X126357783Y-111763002D01*
X126364977Y-111832500D01*
X126333454Y-111894855D01*
X126314158Y-111911575D01*
X126128597Y-112041505D01*
X125961505Y-112208597D01*
X125825965Y-112402169D01*
X125825964Y-112402171D01*
X125726098Y-112616335D01*
X125726094Y-112616344D01*
X125664938Y-112844586D01*
X125664936Y-112844596D01*
X125644341Y-113079999D01*
X125644341Y-113080000D01*
X125664936Y-113315403D01*
X125664938Y-113315413D01*
X125726094Y-113543655D01*
X125726096Y-113543659D01*
X125726097Y-113543663D01*
X125805824Y-113714637D01*
X125825965Y-113757830D01*
X125825967Y-113757834D01*
X125961501Y-113951395D01*
X125961506Y-113951402D01*
X126128597Y-114118493D01*
X126128603Y-114118498D01*
X126314158Y-114248425D01*
X126357783Y-114303002D01*
X126364977Y-114372500D01*
X126333454Y-114434855D01*
X126314158Y-114451575D01*
X126128597Y-114581505D01*
X125961505Y-114748597D01*
X125825965Y-114942169D01*
X125825964Y-114942171D01*
X125726098Y-115156335D01*
X125726094Y-115156344D01*
X125664938Y-115384586D01*
X125664936Y-115384596D01*
X125644341Y-115619999D01*
X125644341Y-115620000D01*
X125664936Y-115855403D01*
X125664938Y-115855413D01*
X125726094Y-116083655D01*
X125726096Y-116083659D01*
X125726097Y-116083663D01*
X125825965Y-116297830D01*
X125825967Y-116297834D01*
X125961501Y-116491395D01*
X125961506Y-116491402D01*
X126128597Y-116658493D01*
X126128603Y-116658498D01*
X126314158Y-116788425D01*
X126357783Y-116843002D01*
X126364977Y-116912500D01*
X126333454Y-116974855D01*
X126314158Y-116991575D01*
X126128597Y-117121505D01*
X125961505Y-117288597D01*
X125825965Y-117482169D01*
X125825964Y-117482171D01*
X125726098Y-117696335D01*
X125726094Y-117696344D01*
X125664938Y-117924586D01*
X125664936Y-117924596D01*
X125644341Y-118159999D01*
X125644341Y-118160000D01*
X125664936Y-118395403D01*
X125664938Y-118395413D01*
X125726094Y-118623655D01*
X125726096Y-118623659D01*
X125726097Y-118623663D01*
X125825965Y-118837830D01*
X125825967Y-118837834D01*
X125934281Y-118992521D01*
X125961501Y-119031396D01*
X125961506Y-119031402D01*
X126083430Y-119153326D01*
X126116915Y-119214649D01*
X126111931Y-119284341D01*
X126070059Y-119340274D01*
X126039083Y-119357189D01*
X125907669Y-119406203D01*
X125907664Y-119406206D01*
X125792455Y-119492452D01*
X125792452Y-119492455D01*
X125706206Y-119607664D01*
X125706202Y-119607671D01*
X125655908Y-119742517D01*
X125649501Y-119802116D01*
X125649501Y-119802123D01*
X125649500Y-119802135D01*
X125649500Y-121597870D01*
X125649501Y-121597876D01*
X125655908Y-121657483D01*
X125706202Y-121792328D01*
X125706206Y-121792335D01*
X125792452Y-121907544D01*
X125792455Y-121907547D01*
X125907664Y-121993793D01*
X125907671Y-121993797D01*
X126039081Y-122042810D01*
X126095015Y-122084681D01*
X126119432Y-122150145D01*
X126104580Y-122218418D01*
X126083430Y-122246673D01*
X125961503Y-122368600D01*
X125825965Y-122562169D01*
X125825964Y-122562171D01*
X125726098Y-122776335D01*
X125726094Y-122776344D01*
X125664938Y-123004586D01*
X125664936Y-123004596D01*
X125644341Y-123239999D01*
X125644341Y-123240000D01*
X125664936Y-123475403D01*
X125664938Y-123475413D01*
X125726094Y-123703655D01*
X125726096Y-123703659D01*
X125726097Y-123703663D01*
X125780696Y-123820750D01*
X125825965Y-123917830D01*
X125825967Y-123917834D01*
X125961501Y-124111395D01*
X125961506Y-124111402D01*
X126128597Y-124278493D01*
X126128603Y-124278498D01*
X126314158Y-124408425D01*
X126357783Y-124463002D01*
X126364977Y-124532500D01*
X126333454Y-124594855D01*
X126314158Y-124611575D01*
X126128597Y-124741505D01*
X125961505Y-124908597D01*
X125825965Y-125102169D01*
X125825964Y-125102171D01*
X125726098Y-125316335D01*
X125726094Y-125316344D01*
X125664938Y-125544586D01*
X125664936Y-125544596D01*
X125644341Y-125779999D01*
X125644341Y-125780000D01*
X125664936Y-126015403D01*
X125664938Y-126015413D01*
X125726094Y-126243655D01*
X125726096Y-126243659D01*
X125726097Y-126243663D01*
X125808975Y-126421395D01*
X125825965Y-126457830D01*
X125825967Y-126457834D01*
X125917456Y-126588493D01*
X125961505Y-126651401D01*
X126128599Y-126818495D01*
X126223665Y-126885061D01*
X126322165Y-126954032D01*
X126322167Y-126954033D01*
X126322170Y-126954035D01*
X126536337Y-127053903D01*
X126764592Y-127115063D01*
X126952918Y-127131539D01*
X126999999Y-127135659D01*
X127000000Y-127135659D01*
X127000001Y-127135659D01*
X127039234Y-127132226D01*
X127235408Y-127115063D01*
X127463663Y-127053903D01*
X127677830Y-126954035D01*
X127871401Y-126818495D01*
X128038495Y-126651401D01*
X128173925Y-126457986D01*
X128228502Y-126414362D01*
X128298000Y-126407168D01*
X128360355Y-126438691D01*
X128395769Y-126498921D01*
X128399500Y-126529110D01*
X128399500Y-129913330D01*
X128399499Y-129913348D01*
X128399499Y-130079054D01*
X128399498Y-130079054D01*
X128440423Y-130231785D01*
X128469358Y-130281900D01*
X128469359Y-130281904D01*
X128469360Y-130281904D01*
X128519479Y-130368714D01*
X128519481Y-130368717D01*
X128638349Y-130487585D01*
X128638354Y-130487589D01*
X129631284Y-131480520D01*
X129631286Y-131480521D01*
X129631290Y-131480524D01*
X129768209Y-131559573D01*
X129768216Y-131559577D01*
X129920943Y-131600501D01*
X129920945Y-131600501D01*
X130086654Y-131600501D01*
X130086670Y-131600500D01*
X131699903Y-131600500D01*
X131766942Y-131620185D01*
X131787584Y-131636819D01*
X132169298Y-132018533D01*
X132202783Y-132079856D01*
X132204837Y-132092330D01*
X132214630Y-132179249D01*
X132274210Y-132349521D01*
X132370184Y-132502262D01*
X132497738Y-132629816D01*
X132650478Y-132725789D01*
X132820745Y-132785368D01*
X132820750Y-132785369D01*
X132999996Y-132805565D01*
X133000000Y-132805565D01*
X133000004Y-132805565D01*
X133179249Y-132785369D01*
X133179252Y-132785368D01*
X133179255Y-132785368D01*
X133349522Y-132725789D01*
X133502262Y-132629816D01*
X133629816Y-132502262D01*
X133725789Y-132349522D01*
X133785368Y-132179255D01*
X133795162Y-132092330D01*
X133805565Y-132000003D01*
X133805565Y-131999996D01*
X133785369Y-131820750D01*
X133785368Y-131820745D01*
X133725788Y-131650476D01*
X133668671Y-131559576D01*
X133629816Y-131497738D01*
X133502262Y-131370184D01*
X133349521Y-131274210D01*
X133179249Y-131214630D01*
X133092330Y-131204837D01*
X133027916Y-131177770D01*
X133018533Y-131169298D01*
X132487590Y-130638355D01*
X132487588Y-130638352D01*
X132368717Y-130519481D01*
X132368716Y-130519480D01*
X132281904Y-130469360D01*
X132281904Y-130469359D01*
X132281900Y-130469358D01*
X132231785Y-130440423D01*
X132079057Y-130399499D01*
X131920943Y-130399499D01*
X131913347Y-130399499D01*
X131913331Y-130399500D01*
X131883063Y-130399500D01*
X131816024Y-130379815D01*
X131770269Y-130327011D01*
X131760325Y-130257853D01*
X131766021Y-130234546D01*
X131768655Y-130227017D01*
X131785368Y-130179255D01*
X131795161Y-130092329D01*
X131822226Y-130027918D01*
X131830690Y-130018543D01*
X133018535Y-128830698D01*
X133079856Y-128797215D01*
X133092311Y-128795163D01*
X133179255Y-128785368D01*
X133349522Y-128725789D01*
X133502262Y-128629816D01*
X133629816Y-128502262D01*
X133725789Y-128349522D01*
X133785368Y-128179255D01*
X133805565Y-128000000D01*
X133802419Y-127972082D01*
X133785369Y-127820750D01*
X133785368Y-127820745D01*
X133725788Y-127650476D01*
X133629815Y-127497737D01*
X133502262Y-127370184D01*
X133349523Y-127274211D01*
X133179254Y-127214631D01*
X133179249Y-127214630D01*
X133000004Y-127194435D01*
X132999996Y-127194435D01*
X132820750Y-127214630D01*
X132820745Y-127214631D01*
X132650476Y-127274211D01*
X132497737Y-127370184D01*
X132370184Y-127497737D01*
X132274210Y-127650478D01*
X132214630Y-127820750D01*
X132204837Y-127907668D01*
X132177770Y-127972082D01*
X132169298Y-127981465D01*
X130981465Y-129169298D01*
X130920142Y-129202783D01*
X130907668Y-129204837D01*
X130820750Y-129214630D01*
X130650478Y-129274210D01*
X130497737Y-129370184D01*
X130370184Y-129497737D01*
X130274211Y-129650476D01*
X130214631Y-129820745D01*
X130214630Y-129820750D01*
X130194435Y-129999996D01*
X130194435Y-129999998D01*
X130198591Y-130036891D01*
X130186534Y-130105713D01*
X130139184Y-130157091D01*
X130071573Y-130174714D01*
X130005168Y-130152986D01*
X129987689Y-130138453D01*
X129636819Y-129787583D01*
X129603334Y-129726260D01*
X129600500Y-129699902D01*
X129600500Y-126300096D01*
X129620185Y-126233057D01*
X129636814Y-126212420D01*
X131018535Y-124830698D01*
X131079856Y-124797215D01*
X131092311Y-124795163D01*
X131179255Y-124785368D01*
X131349522Y-124725789D01*
X131502262Y-124629816D01*
X131629816Y-124502262D01*
X131725789Y-124349522D01*
X131785368Y-124179255D01*
X131793013Y-124111402D01*
X131805565Y-124000003D01*
X131805565Y-123999996D01*
X131785369Y-123820750D01*
X131785368Y-123820745D01*
X131725789Y-123650478D01*
X131629816Y-123497738D01*
X131502262Y-123370184D01*
X131349523Y-123274211D01*
X131179254Y-123214631D01*
X131179249Y-123214630D01*
X131000004Y-123194435D01*
X130999996Y-123194435D01*
X130820750Y-123214630D01*
X130820745Y-123214631D01*
X130650476Y-123274211D01*
X130497737Y-123370184D01*
X130370184Y-123497737D01*
X130274210Y-123650478D01*
X130214630Y-123820750D01*
X130204837Y-123907668D01*
X130177770Y-123972082D01*
X130169298Y-123981465D01*
X129365397Y-124785367D01*
X128631286Y-125519478D01*
X128631284Y-125519480D01*
X128557507Y-125593257D01*
X128544135Y-125606629D01*
X128482811Y-125640113D01*
X128413120Y-125635129D01*
X128357186Y-125593257D01*
X128338181Y-125549360D01*
X128336464Y-125549821D01*
X128273905Y-125316344D01*
X128273904Y-125316343D01*
X128273903Y-125316337D01*
X128174035Y-125102171D01*
X128154839Y-125074755D01*
X128038494Y-124908597D01*
X127871402Y-124741506D01*
X127871396Y-124741501D01*
X127685842Y-124611575D01*
X127642217Y-124556998D01*
X127635023Y-124487500D01*
X127666546Y-124425145D01*
X127685842Y-124408425D01*
X127732197Y-124375967D01*
X127871401Y-124278495D01*
X128038495Y-124111401D01*
X128174035Y-123917830D01*
X128273903Y-123703663D01*
X128335063Y-123475408D01*
X128355659Y-123240000D01*
X128335063Y-123004592D01*
X128273903Y-122776337D01*
X128174035Y-122562171D01*
X128141527Y-122515745D01*
X128038496Y-122368600D01*
X127983283Y-122313387D01*
X127916567Y-122246671D01*
X127883084Y-122185351D01*
X127888068Y-122115659D01*
X127929939Y-122059725D01*
X127960915Y-122042810D01*
X128092331Y-121993796D01*
X128207546Y-121907546D01*
X128293796Y-121792331D01*
X128344091Y-121657483D01*
X128350500Y-121597873D01*
X128350499Y-119802128D01*
X128344091Y-119742517D01*
X128323237Y-119686605D01*
X128293797Y-119607671D01*
X128293793Y-119607664D01*
X128207547Y-119492455D01*
X128207544Y-119492452D01*
X128092335Y-119406206D01*
X128092328Y-119406202D01*
X127960917Y-119357189D01*
X127904983Y-119315318D01*
X127880566Y-119249853D01*
X127895418Y-119181580D01*
X127916563Y-119153332D01*
X128038495Y-119031401D01*
X128174035Y-118837830D01*
X128273903Y-118623663D01*
X128335063Y-118395408D01*
X128355659Y-118160000D01*
X128335063Y-117924592D01*
X128273903Y-117696337D01*
X128174035Y-117482171D01*
X128038495Y-117288599D01*
X128038494Y-117288597D01*
X127871402Y-117121506D01*
X127871396Y-117121501D01*
X127685842Y-116991575D01*
X127642217Y-116936998D01*
X127635023Y-116867500D01*
X127666546Y-116805145D01*
X127685842Y-116788425D01*
X127708026Y-116772891D01*
X127871401Y-116658495D01*
X128038495Y-116491401D01*
X128174035Y-116297830D01*
X128273903Y-116083663D01*
X128335063Y-115855408D01*
X128355659Y-115620000D01*
X128335063Y-115384592D01*
X128288626Y-115211285D01*
X128273905Y-115156344D01*
X128273904Y-115156343D01*
X128273903Y-115156337D01*
X128174035Y-114942171D01*
X128167400Y-114932694D01*
X128038494Y-114748597D01*
X127871402Y-114581506D01*
X127871396Y-114581501D01*
X127685842Y-114451575D01*
X127642217Y-114396998D01*
X127635023Y-114327500D01*
X127666546Y-114265145D01*
X127685842Y-114248425D01*
X127708026Y-114232891D01*
X127871401Y-114118495D01*
X128038495Y-113951401D01*
X128174035Y-113757830D01*
X128273903Y-113543663D01*
X128335063Y-113315408D01*
X128355659Y-113080000D01*
X128355576Y-113079057D01*
X128341283Y-112915685D01*
X128335063Y-112844592D01*
X128277908Y-112631284D01*
X128273905Y-112616344D01*
X128273904Y-112616343D01*
X128273903Y-112616337D01*
X128174035Y-112402171D01*
X128141607Y-112355858D01*
X128038494Y-112208597D01*
X127871402Y-112041506D01*
X127871396Y-112041501D01*
X127685842Y-111911575D01*
X127642217Y-111856998D01*
X127635023Y-111787500D01*
X127666546Y-111725145D01*
X127685842Y-111708425D01*
X127715662Y-111687545D01*
X127871401Y-111578495D01*
X128038495Y-111411401D01*
X128174035Y-111217830D01*
X128273903Y-111003663D01*
X128335063Y-110775408D01*
X128355659Y-110540000D01*
X128335063Y-110304592D01*
X128273903Y-110076337D01*
X128174035Y-109862171D01*
X128164977Y-109849235D01*
X128038496Y-109668600D01*
X127999711Y-109629815D01*
X127916567Y-109546671D01*
X127883084Y-109485351D01*
X127888068Y-109415659D01*
X127929939Y-109359725D01*
X127960915Y-109342810D01*
X128092331Y-109293796D01*
X128207546Y-109207546D01*
X128293796Y-109092331D01*
X128344091Y-108957483D01*
X128350500Y-108897873D01*
X128350499Y-107102128D01*
X128344091Y-107042517D01*
X128293884Y-106907906D01*
X128293797Y-106907671D01*
X128293793Y-106907664D01*
X128207547Y-106792455D01*
X128207544Y-106792452D01*
X128092335Y-106706206D01*
X128092328Y-106706202D01*
X127960917Y-106657189D01*
X127904983Y-106615318D01*
X127880566Y-106549853D01*
X127895418Y-106481580D01*
X127916563Y-106453332D01*
X128038495Y-106331401D01*
X128174035Y-106137830D01*
X128238308Y-105999996D01*
X131194435Y-105999996D01*
X131194435Y-106000003D01*
X131214630Y-106179249D01*
X131214631Y-106179254D01*
X131274211Y-106349523D01*
X131339679Y-106453714D01*
X131370184Y-106502262D01*
X131497738Y-106629816D01*
X131650478Y-106725789D01*
X131820745Y-106785368D01*
X131907669Y-106795161D01*
X131972080Y-106822226D01*
X131981465Y-106830700D01*
X135115139Y-109964374D01*
X135115149Y-109964385D01*
X135119479Y-109968715D01*
X135119480Y-109968716D01*
X135231284Y-110080520D01*
X135318095Y-110130639D01*
X135318097Y-110130641D01*
X135356151Y-110152611D01*
X135368215Y-110159577D01*
X135520943Y-110200501D01*
X135520946Y-110200501D01*
X135686653Y-110200501D01*
X135686669Y-110200500D01*
X145313331Y-110200500D01*
X145313347Y-110200501D01*
X145320943Y-110200501D01*
X145479054Y-110200501D01*
X145479057Y-110200501D01*
X145631785Y-110159577D01*
X145681904Y-110130639D01*
X145768716Y-110080520D01*
X145880520Y-109968716D01*
X145880520Y-109968714D01*
X145890728Y-109958507D01*
X145890730Y-109958504D01*
X146018535Y-109830698D01*
X146079856Y-109797215D01*
X146092311Y-109795163D01*
X146179255Y-109785368D01*
X146349522Y-109725789D01*
X146502262Y-109629816D01*
X146629816Y-109502262D01*
X146725789Y-109349522D01*
X146785368Y-109179255D01*
X146785369Y-109179249D01*
X146805565Y-109000003D01*
X146805565Y-108999996D01*
X146785369Y-108820750D01*
X146785368Y-108820745D01*
X146761056Y-108751265D01*
X146725789Y-108650478D01*
X146629816Y-108497738D01*
X146502262Y-108370184D01*
X146349523Y-108274211D01*
X146179254Y-108214631D01*
X146179249Y-108214630D01*
X146000004Y-108194435D01*
X145999996Y-108194435D01*
X145820750Y-108214630D01*
X145820745Y-108214631D01*
X145650476Y-108274211D01*
X145497737Y-108370184D01*
X145370184Y-108497737D01*
X145274210Y-108650478D01*
X145214630Y-108820750D01*
X145206898Y-108889383D01*
X145179832Y-108953797D01*
X145122237Y-108993352D01*
X145083678Y-108999500D01*
X137149097Y-108999500D01*
X137082058Y-108979815D01*
X137036303Y-108927011D01*
X137026359Y-108857853D01*
X137055384Y-108794297D01*
X137061416Y-108787819D01*
X140479051Y-105370184D01*
X151018535Y-94830698D01*
X151079856Y-94797215D01*
X151092311Y-94795163D01*
X151179255Y-94785368D01*
X151349522Y-94725789D01*
X151502262Y-94629816D01*
X151629816Y-94502262D01*
X151725789Y-94349522D01*
X151785368Y-94179255D01*
X151791393Y-94125789D01*
X151793102Y-94110617D01*
X151820168Y-94046203D01*
X151877763Y-94006648D01*
X151916322Y-94000500D01*
X153275500Y-94000500D01*
X153342539Y-94020185D01*
X153388294Y-94072989D01*
X153399500Y-94124500D01*
X153399500Y-108699902D01*
X153379815Y-108766941D01*
X153363181Y-108787583D01*
X149519481Y-112631282D01*
X149519477Y-112631287D01*
X149487540Y-112686605D01*
X149470190Y-112716657D01*
X149440423Y-112768215D01*
X149399499Y-112920943D01*
X149399499Y-112920945D01*
X149399499Y-113089046D01*
X149399500Y-113089059D01*
X149399500Y-113417587D01*
X149379815Y-113484626D01*
X149372450Y-113494896D01*
X149370186Y-113497734D01*
X149274211Y-113650476D01*
X149214631Y-113820745D01*
X149214630Y-113820750D01*
X149194435Y-113999996D01*
X149194435Y-114000003D01*
X149214630Y-114179249D01*
X149214631Y-114179254D01*
X149274211Y-114349523D01*
X149288649Y-114372500D01*
X149370184Y-114502262D01*
X149497738Y-114629816D01*
X149650478Y-114725789D01*
X149743840Y-114758458D01*
X149800617Y-114799180D01*
X149826364Y-114864133D01*
X149812908Y-114932694D01*
X149764521Y-114983097D01*
X149702886Y-114999500D01*
X137900097Y-114999500D01*
X137833058Y-114979815D01*
X137812416Y-114963181D01*
X134917624Y-112068389D01*
X144214500Y-112068389D01*
X144214500Y-112191610D01*
X144238535Y-112312444D01*
X144238537Y-112312452D01*
X144238671Y-112312775D01*
X144285687Y-112426283D01*
X144285692Y-112426292D01*
X144354141Y-112528732D01*
X144354144Y-112528736D01*
X144441263Y-112615855D01*
X144441267Y-112615858D01*
X144543707Y-112684307D01*
X144543716Y-112684312D01*
X144549252Y-112686605D01*
X144657548Y-112731463D01*
X144778389Y-112755499D01*
X144778393Y-112755500D01*
X144778394Y-112755500D01*
X144901607Y-112755500D01*
X144901608Y-112755499D01*
X145022452Y-112731463D01*
X145136286Y-112684311D01*
X145238733Y-112615858D01*
X145325858Y-112528733D01*
X145394311Y-112426286D01*
X145441463Y-112312452D01*
X145465500Y-112191606D01*
X145465500Y-112068394D01*
X145441463Y-111947548D01*
X145394311Y-111833714D01*
X145394310Y-111833713D01*
X145394307Y-111833707D01*
X145325858Y-111731267D01*
X145325855Y-111731263D01*
X145238736Y-111644144D01*
X145238732Y-111644141D01*
X145136292Y-111575692D01*
X145136283Y-111575687D01*
X145022454Y-111528538D01*
X145022455Y-111528538D01*
X145022452Y-111528537D01*
X145022448Y-111528536D01*
X145022444Y-111528535D01*
X144901610Y-111504500D01*
X144901606Y-111504500D01*
X144778394Y-111504500D01*
X144778389Y-111504500D01*
X144657555Y-111528535D01*
X144657545Y-111528538D01*
X144543716Y-111575687D01*
X144543707Y-111575692D01*
X144441267Y-111644141D01*
X144441263Y-111644144D01*
X144354144Y-111731263D01*
X144354141Y-111731267D01*
X144285692Y-111833707D01*
X144285687Y-111833716D01*
X144238538Y-111947545D01*
X144238535Y-111947555D01*
X144214500Y-112068389D01*
X134917624Y-112068389D01*
X133830700Y-110981465D01*
X133797215Y-110920142D01*
X133795163Y-110907686D01*
X133785368Y-110820745D01*
X133725789Y-110650478D01*
X133629816Y-110497738D01*
X133502262Y-110370184D01*
X133349523Y-110274211D01*
X133179254Y-110214631D01*
X133179249Y-110214630D01*
X133000004Y-110194435D01*
X132999996Y-110194435D01*
X132820750Y-110214630D01*
X132820745Y-110214631D01*
X132650476Y-110274211D01*
X132497737Y-110370184D01*
X132370184Y-110497737D01*
X132274211Y-110650476D01*
X132214631Y-110820745D01*
X132214630Y-110820750D01*
X132194435Y-110999996D01*
X132194435Y-111000003D01*
X132214630Y-111179249D01*
X132214631Y-111179254D01*
X132274211Y-111349523D01*
X132370184Y-111502262D01*
X132497738Y-111629816D01*
X132650478Y-111725789D01*
X132820745Y-111785368D01*
X132907669Y-111795161D01*
X132972080Y-111822226D01*
X132981465Y-111830700D01*
X136338584Y-115187819D01*
X136372069Y-115249142D01*
X136367085Y-115318834D01*
X136325213Y-115374767D01*
X136259749Y-115399184D01*
X136250903Y-115399500D01*
X135300097Y-115399500D01*
X135233058Y-115379815D01*
X135212416Y-115363181D01*
X133830700Y-113981465D01*
X133797215Y-113920142D01*
X133795163Y-113907686D01*
X133785368Y-113820745D01*
X133725789Y-113650478D01*
X133629816Y-113497738D01*
X133502262Y-113370184D01*
X133415079Y-113315403D01*
X133349523Y-113274211D01*
X133179254Y-113214631D01*
X133179249Y-113214630D01*
X133000004Y-113194435D01*
X132999996Y-113194435D01*
X132820750Y-113214630D01*
X132820745Y-113214631D01*
X132650476Y-113274211D01*
X132497737Y-113370184D01*
X132370184Y-113497737D01*
X132274211Y-113650476D01*
X132214631Y-113820745D01*
X132214630Y-113820750D01*
X132194435Y-113999996D01*
X132194435Y-114000003D01*
X132214630Y-114179249D01*
X132214631Y-114179254D01*
X132274211Y-114349523D01*
X132288649Y-114372500D01*
X132370184Y-114502262D01*
X132497738Y-114629816D01*
X132650478Y-114725789D01*
X132820745Y-114785368D01*
X132907669Y-114795161D01*
X132972080Y-114822226D01*
X132981465Y-114830700D01*
X134515139Y-116364374D01*
X134515149Y-116364385D01*
X134519479Y-116368715D01*
X134519480Y-116368716D01*
X134631284Y-116480520D01*
X134691860Y-116515493D01*
X134730037Y-116537535D01*
X134768212Y-116559576D01*
X134768214Y-116559576D01*
X134768215Y-116559577D01*
X134920943Y-116600500D01*
X168761860Y-116600500D01*
X168761876Y-116600501D01*
X168769472Y-116600501D01*
X168927583Y-116600501D01*
X168927586Y-116600501D01*
X169080314Y-116559577D01*
X169156669Y-116515493D01*
X169217245Y-116480520D01*
X169329049Y-116368716D01*
X169329049Y-116368714D01*
X169339253Y-116358511D01*
X169339256Y-116358506D01*
X172080520Y-113617245D01*
X172159577Y-113480313D01*
X172200501Y-113327586D01*
X172200501Y-113169471D01*
X172200501Y-113161876D01*
X172200500Y-113161858D01*
X172200500Y-93520945D01*
X172200500Y-93520943D01*
X172169207Y-93404156D01*
X172159577Y-93368215D01*
X172159576Y-93368214D01*
X172159576Y-93368212D01*
X172122804Y-93304522D01*
X172080522Y-93231287D01*
X172080521Y-93231286D01*
X172080520Y-93231284D01*
X171968716Y-93119480D01*
X171968715Y-93119479D01*
X171964385Y-93115149D01*
X171964374Y-93115139D01*
X171830700Y-92981465D01*
X171797215Y-92920142D01*
X171795163Y-92907686D01*
X171785368Y-92820745D01*
X171725789Y-92650478D01*
X171629816Y-92497738D01*
X171502262Y-92370184D01*
X171349523Y-92274211D01*
X171179254Y-92214631D01*
X171179249Y-92214630D01*
X171000004Y-92194435D01*
X170999996Y-92194435D01*
X170820750Y-92214630D01*
X170820745Y-92214631D01*
X170650476Y-92274211D01*
X170497737Y-92370184D01*
X170370184Y-92497737D01*
X170274211Y-92650476D01*
X170214631Y-92820745D01*
X170214630Y-92820750D01*
X170194435Y-92999996D01*
X170194435Y-93000003D01*
X170214630Y-93179249D01*
X170214631Y-93179254D01*
X170274211Y-93349523D01*
X170329701Y-93437834D01*
X170370184Y-93502262D01*
X170497738Y-93629816D01*
X170650478Y-93725789D01*
X170820745Y-93785368D01*
X170889384Y-93793101D01*
X170953796Y-93820166D01*
X170993352Y-93877760D01*
X170999500Y-93916321D01*
X170999500Y-112083677D01*
X170979815Y-112150716D01*
X170927011Y-112196471D01*
X170889384Y-112206897D01*
X170820750Y-112214630D01*
X170650478Y-112274210D01*
X170497737Y-112370184D01*
X170370184Y-112497737D01*
X170274210Y-112650478D01*
X170214630Y-112820750D01*
X170204837Y-112907668D01*
X170177770Y-112972082D01*
X170169298Y-112981465D01*
X168187584Y-114963181D01*
X168126261Y-114996666D01*
X168099903Y-114999500D01*
X167898626Y-114999500D01*
X167831587Y-114979815D01*
X167785832Y-114927011D01*
X167775888Y-114857853D01*
X167781584Y-114834547D01*
X167785366Y-114823736D01*
X167785369Y-114823724D01*
X167805565Y-114644478D01*
X167805565Y-114644471D01*
X167785369Y-114465225D01*
X167785368Y-114465220D01*
X167744884Y-114349523D01*
X167725789Y-114294953D01*
X167707059Y-114265145D01*
X167629815Y-114142212D01*
X167502262Y-114014659D01*
X167349523Y-113918686D01*
X167179254Y-113859106D01*
X167179249Y-113859105D01*
X167000004Y-113838910D01*
X166999996Y-113838910D01*
X166820750Y-113859105D01*
X166820745Y-113859106D01*
X166650476Y-113918686D01*
X166497736Y-114014660D01*
X166494903Y-114016920D01*
X166492724Y-114017809D01*
X166491842Y-114018364D01*
X166491744Y-114018209D01*
X166430217Y-114043330D01*
X166417588Y-114043975D01*
X159944572Y-114043975D01*
X159877533Y-114024290D01*
X159856891Y-114007656D01*
X157657624Y-111808389D01*
X165214500Y-111808389D01*
X165214500Y-111931610D01*
X165238535Y-112052444D01*
X165238538Y-112052454D01*
X165285687Y-112166283D01*
X165285692Y-112166292D01*
X165354141Y-112268732D01*
X165354144Y-112268736D01*
X165441263Y-112355855D01*
X165441267Y-112355858D01*
X165543707Y-112424307D01*
X165543716Y-112424312D01*
X165564739Y-112433020D01*
X165657548Y-112471463D01*
X165778389Y-112495499D01*
X165778393Y-112495500D01*
X165778394Y-112495500D01*
X165901607Y-112495500D01*
X165901608Y-112495499D01*
X166022452Y-112471463D01*
X166136286Y-112424311D01*
X166238733Y-112355858D01*
X166325858Y-112268733D01*
X166394311Y-112166286D01*
X166441463Y-112052452D01*
X166465500Y-111931606D01*
X166465500Y-111808394D01*
X166441463Y-111687548D01*
X166396293Y-111578498D01*
X166394312Y-111573716D01*
X166394307Y-111573707D01*
X166325858Y-111471267D01*
X166325855Y-111471263D01*
X166238736Y-111384144D01*
X166238732Y-111384141D01*
X166136292Y-111315692D01*
X166136283Y-111315687D01*
X166022454Y-111268538D01*
X166022455Y-111268538D01*
X166022452Y-111268537D01*
X166022448Y-111268536D01*
X166022444Y-111268535D01*
X165901610Y-111244500D01*
X165901606Y-111244500D01*
X165778394Y-111244500D01*
X165778389Y-111244500D01*
X165657555Y-111268535D01*
X165657545Y-111268538D01*
X165543716Y-111315687D01*
X165543707Y-111315692D01*
X165441267Y-111384141D01*
X165441263Y-111384144D01*
X165354144Y-111471263D01*
X165354141Y-111471267D01*
X165285692Y-111573707D01*
X165285687Y-111573716D01*
X165238538Y-111687545D01*
X165238535Y-111687555D01*
X165214500Y-111808389D01*
X157657624Y-111808389D01*
X154636819Y-108787584D01*
X154603334Y-108726261D01*
X154600500Y-108699903D01*
X154600500Y-94124500D01*
X154620185Y-94057461D01*
X154672989Y-94011706D01*
X154724500Y-94000500D01*
X166417588Y-94000500D01*
X166484627Y-94020185D01*
X166494903Y-94027555D01*
X166497736Y-94029814D01*
X166497738Y-94029816D01*
X166601578Y-94095063D01*
X166648426Y-94124500D01*
X166650478Y-94125789D01*
X166774820Y-94169298D01*
X166820745Y-94185368D01*
X166820750Y-94185369D01*
X166999996Y-94205565D01*
X167000000Y-94205565D01*
X167000004Y-94205565D01*
X167179249Y-94185369D01*
X167179252Y-94185368D01*
X167179255Y-94185368D01*
X167349522Y-94125789D01*
X167502262Y-94029816D01*
X167629816Y-93902262D01*
X167725789Y-93749522D01*
X167785368Y-93579255D01*
X167794043Y-93502262D01*
X167805565Y-93400003D01*
X167805565Y-93399996D01*
X167785369Y-93220750D01*
X167785368Y-93220745D01*
X167725788Y-93050476D01*
X167629815Y-92897737D01*
X167502262Y-92770184D01*
X167349523Y-92674211D01*
X167179254Y-92614631D01*
X167179249Y-92614630D01*
X167000004Y-92594435D01*
X166999996Y-92594435D01*
X166820750Y-92614630D01*
X166820745Y-92614631D01*
X166650476Y-92674211D01*
X166497736Y-92770185D01*
X166494903Y-92772445D01*
X166492724Y-92773334D01*
X166491842Y-92773889D01*
X166491744Y-92773734D01*
X166430217Y-92798855D01*
X166417588Y-92799500D01*
X146582412Y-92799500D01*
X146515373Y-92779815D01*
X146505097Y-92772445D01*
X146502263Y-92770185D01*
X146502262Y-92770184D01*
X146445496Y-92734515D01*
X146349523Y-92674211D01*
X146179254Y-92614631D01*
X146179249Y-92614630D01*
X146000004Y-92594435D01*
X145999996Y-92594435D01*
X145820750Y-92614630D01*
X145820745Y-92614631D01*
X145650476Y-92674211D01*
X145497736Y-92770185D01*
X145494903Y-92772445D01*
X145492724Y-92773334D01*
X145491842Y-92773889D01*
X145491744Y-92773734D01*
X145430217Y-92798855D01*
X145417588Y-92799500D01*
X137686670Y-92799500D01*
X137686654Y-92799499D01*
X137679058Y-92799499D01*
X137520943Y-92799499D01*
X137444579Y-92819961D01*
X137368214Y-92840423D01*
X137368209Y-92840426D01*
X137231290Y-92919475D01*
X137231282Y-92919481D01*
X135981465Y-94169298D01*
X135920142Y-94202783D01*
X135907668Y-94204837D01*
X135820750Y-94214630D01*
X135650478Y-94274210D01*
X135497737Y-94370184D01*
X135370184Y-94497737D01*
X135274211Y-94650476D01*
X135214631Y-94820745D01*
X135214630Y-94820750D01*
X135194435Y-94999996D01*
X135194435Y-95000003D01*
X135214630Y-95179249D01*
X135214631Y-95179254D01*
X135274211Y-95349523D01*
X135366785Y-95496853D01*
X135370184Y-95502262D01*
X135497738Y-95629816D01*
X135650478Y-95725789D01*
X135791815Y-95775245D01*
X135820745Y-95785368D01*
X135820750Y-95785369D01*
X135999996Y-95805565D01*
X136000000Y-95805565D01*
X136000004Y-95805565D01*
X136179249Y-95785369D01*
X136179252Y-95785368D01*
X136179255Y-95785368D01*
X136349522Y-95725789D01*
X136502262Y-95629816D01*
X136629816Y-95502262D01*
X136725789Y-95349522D01*
X136785368Y-95179255D01*
X136795161Y-95092329D01*
X136822226Y-95027918D01*
X136830690Y-95018543D01*
X137812417Y-94036819D01*
X137873740Y-94003334D01*
X137900098Y-94000500D01*
X145417588Y-94000500D01*
X145484627Y-94020185D01*
X145494903Y-94027555D01*
X145497736Y-94029814D01*
X145497738Y-94029816D01*
X145601578Y-94095063D01*
X145648426Y-94124500D01*
X145650478Y-94125789D01*
X145774820Y-94169298D01*
X145820745Y-94185368D01*
X145820750Y-94185369D01*
X145999996Y-94205565D01*
X146000000Y-94205565D01*
X146000004Y-94205565D01*
X146179249Y-94185369D01*
X146179252Y-94185368D01*
X146179255Y-94185368D01*
X146349522Y-94125789D01*
X146502262Y-94029816D01*
X146502267Y-94029810D01*
X146505097Y-94027555D01*
X146507275Y-94026665D01*
X146508158Y-94026111D01*
X146508255Y-94026265D01*
X146569783Y-94001145D01*
X146582412Y-94000500D01*
X149850903Y-94000500D01*
X149917942Y-94020185D01*
X149963697Y-94072989D01*
X149973641Y-94142147D01*
X149944616Y-94205703D01*
X149938584Y-94212181D01*
X135981465Y-108169298D01*
X135920142Y-108202783D01*
X135907668Y-108204837D01*
X135820750Y-108214630D01*
X135650478Y-108274210D01*
X135497737Y-108370184D01*
X135446258Y-108421663D01*
X135384935Y-108455147D01*
X135315243Y-108450162D01*
X135270897Y-108421662D01*
X132830700Y-105981465D01*
X132797215Y-105920142D01*
X132795163Y-105907686D01*
X132785368Y-105820745D01*
X132725789Y-105650478D01*
X132629816Y-105497738D01*
X132502262Y-105370184D01*
X132349523Y-105274211D01*
X132179254Y-105214631D01*
X132179249Y-105214630D01*
X132000004Y-105194435D01*
X131999996Y-105194435D01*
X131820750Y-105214630D01*
X131820745Y-105214631D01*
X131650476Y-105274211D01*
X131497737Y-105370184D01*
X131370184Y-105497737D01*
X131274211Y-105650476D01*
X131214631Y-105820745D01*
X131214630Y-105820750D01*
X131194435Y-105999996D01*
X128238308Y-105999996D01*
X128273903Y-105923663D01*
X128335063Y-105695408D01*
X128355659Y-105460000D01*
X128335063Y-105224592D01*
X128273903Y-104996337D01*
X128174035Y-104782171D01*
X128038495Y-104588599D01*
X128038494Y-104588597D01*
X127871402Y-104421506D01*
X127871396Y-104421501D01*
X127685842Y-104291575D01*
X127642217Y-104236998D01*
X127635023Y-104167500D01*
X127666546Y-104105145D01*
X127685842Y-104088425D01*
X127708026Y-104072891D01*
X127871401Y-103958495D01*
X128038495Y-103791401D01*
X128174035Y-103597830D01*
X128273903Y-103383663D01*
X128335063Y-103155408D01*
X128355659Y-102920000D01*
X128335063Y-102684592D01*
X128273903Y-102456337D01*
X128174035Y-102242171D01*
X128038495Y-102048599D01*
X128038494Y-102048597D01*
X127871402Y-101881506D01*
X127871396Y-101881501D01*
X127685842Y-101751575D01*
X127642217Y-101696998D01*
X127635023Y-101627500D01*
X127666546Y-101565145D01*
X127685842Y-101548425D01*
X127708026Y-101532891D01*
X127871401Y-101418495D01*
X128038495Y-101251401D01*
X128174035Y-101057830D01*
X128273903Y-100843663D01*
X128335063Y-100615408D01*
X128355659Y-100380000D01*
X128335063Y-100144592D01*
X128273903Y-99916337D01*
X128174035Y-99702171D01*
X128038495Y-99508599D01*
X128038494Y-99508597D01*
X127871402Y-99341506D01*
X127871396Y-99341501D01*
X127685842Y-99211575D01*
X127642217Y-99156998D01*
X127635023Y-99087500D01*
X127666546Y-99025145D01*
X127685842Y-99008425D01*
X127708026Y-98992891D01*
X127871401Y-98878495D01*
X128038495Y-98711401D01*
X128174035Y-98517830D01*
X128273903Y-98303663D01*
X128335063Y-98075408D01*
X128355659Y-97840000D01*
X128335063Y-97604592D01*
X128273903Y-97376337D01*
X128174035Y-97162171D01*
X128038495Y-96968599D01*
X127916567Y-96846671D01*
X127883084Y-96785351D01*
X127888068Y-96715659D01*
X127929939Y-96659725D01*
X127960915Y-96642810D01*
X128092331Y-96593796D01*
X128207546Y-96507546D01*
X128293796Y-96392331D01*
X128344091Y-96257483D01*
X128350500Y-96197873D01*
X128350499Y-94402128D01*
X128344091Y-94342517D01*
X128296392Y-94214630D01*
X128293797Y-94207671D01*
X128293793Y-94207664D01*
X128207547Y-94092455D01*
X128207544Y-94092452D01*
X128092335Y-94006206D01*
X128092328Y-94006202D01*
X127960917Y-93957189D01*
X127904983Y-93915318D01*
X127880566Y-93849853D01*
X127895418Y-93781580D01*
X127916563Y-93753332D01*
X128038495Y-93631401D01*
X128174035Y-93437830D01*
X128273903Y-93223663D01*
X128335063Y-92995408D01*
X128355659Y-92760000D01*
X128335063Y-92524592D01*
X128273903Y-92296337D01*
X128174035Y-92082171D01*
X128038495Y-91888599D01*
X128038494Y-91888597D01*
X127871402Y-91721506D01*
X127871396Y-91721501D01*
X127685842Y-91591575D01*
X127642217Y-91536998D01*
X127635023Y-91467500D01*
X127666546Y-91405145D01*
X127685842Y-91388425D01*
X127708026Y-91372891D01*
X127871401Y-91258495D01*
X128038495Y-91091401D01*
X128054608Y-91068389D01*
X144214500Y-91068389D01*
X144214500Y-91191610D01*
X144238535Y-91312444D01*
X144238538Y-91312454D01*
X144285687Y-91426283D01*
X144285692Y-91426292D01*
X144354141Y-91528732D01*
X144354144Y-91528736D01*
X144441263Y-91615855D01*
X144441267Y-91615858D01*
X144543707Y-91684307D01*
X144543713Y-91684310D01*
X144543714Y-91684311D01*
X144657548Y-91731463D01*
X144778389Y-91755499D01*
X144778393Y-91755500D01*
X144778394Y-91755500D01*
X144901607Y-91755500D01*
X144901608Y-91755499D01*
X145022452Y-91731463D01*
X145136286Y-91684311D01*
X145238733Y-91615858D01*
X145325858Y-91528733D01*
X145394311Y-91426286D01*
X145441463Y-91312452D01*
X145465500Y-91191606D01*
X145465500Y-91068394D01*
X145465499Y-91068389D01*
X165214500Y-91068389D01*
X165214500Y-91191610D01*
X165238535Y-91312444D01*
X165238538Y-91312454D01*
X165285687Y-91426283D01*
X165285692Y-91426292D01*
X165354141Y-91528732D01*
X165354144Y-91528736D01*
X165441263Y-91615855D01*
X165441267Y-91615858D01*
X165543707Y-91684307D01*
X165543713Y-91684310D01*
X165543714Y-91684311D01*
X165657548Y-91731463D01*
X165778389Y-91755499D01*
X165778393Y-91755500D01*
X165778394Y-91755500D01*
X165901607Y-91755500D01*
X165901608Y-91755499D01*
X166022452Y-91731463D01*
X166136286Y-91684311D01*
X166238733Y-91615858D01*
X166325858Y-91528733D01*
X166394311Y-91426286D01*
X166441463Y-91312452D01*
X166465500Y-91191606D01*
X166465500Y-91068394D01*
X166441463Y-90947548D01*
X166394311Y-90833714D01*
X166394310Y-90833713D01*
X166394307Y-90833707D01*
X166325858Y-90731267D01*
X166325855Y-90731263D01*
X166238736Y-90644144D01*
X166238732Y-90644141D01*
X166136292Y-90575692D01*
X166136283Y-90575687D01*
X166022454Y-90528538D01*
X166022455Y-90528538D01*
X166022452Y-90528537D01*
X166022448Y-90528536D01*
X166022444Y-90528535D01*
X165901610Y-90504500D01*
X165901606Y-90504500D01*
X165778394Y-90504500D01*
X165778389Y-90504500D01*
X165657555Y-90528535D01*
X165657545Y-90528538D01*
X165543716Y-90575687D01*
X165543707Y-90575692D01*
X165441267Y-90644141D01*
X165441263Y-90644144D01*
X165354144Y-90731263D01*
X165354141Y-90731267D01*
X165285692Y-90833707D01*
X165285687Y-90833716D01*
X165238538Y-90947545D01*
X165238535Y-90947555D01*
X165214500Y-91068389D01*
X145465499Y-91068389D01*
X145441463Y-90947548D01*
X145394311Y-90833714D01*
X145394310Y-90833713D01*
X145394307Y-90833707D01*
X145325858Y-90731267D01*
X145325855Y-90731263D01*
X145238736Y-90644144D01*
X145238732Y-90644141D01*
X145136292Y-90575692D01*
X145136283Y-90575687D01*
X145022454Y-90528538D01*
X145022455Y-90528538D01*
X145022452Y-90528537D01*
X145022448Y-90528536D01*
X145022444Y-90528535D01*
X144901610Y-90504500D01*
X144901606Y-90504500D01*
X144778394Y-90504500D01*
X144778389Y-90504500D01*
X144657555Y-90528535D01*
X144657545Y-90528538D01*
X144543716Y-90575687D01*
X144543707Y-90575692D01*
X144441267Y-90644141D01*
X144441263Y-90644144D01*
X144354144Y-90731263D01*
X144354141Y-90731267D01*
X144285692Y-90833707D01*
X144285687Y-90833716D01*
X144238538Y-90947545D01*
X144238535Y-90947555D01*
X144214500Y-91068389D01*
X128054608Y-91068389D01*
X128174035Y-90897830D01*
X128273903Y-90683663D01*
X128335063Y-90455408D01*
X128355659Y-90220000D01*
X128335063Y-89984592D01*
X128273903Y-89756337D01*
X128174035Y-89542171D01*
X128038495Y-89348599D01*
X128038494Y-89348597D01*
X127871402Y-89181506D01*
X127871396Y-89181501D01*
X127685842Y-89051575D01*
X127642217Y-88996998D01*
X127635023Y-88927500D01*
X127666546Y-88865145D01*
X127685842Y-88848425D01*
X127708026Y-88832891D01*
X127871401Y-88718495D01*
X128038495Y-88551401D01*
X128174035Y-88357830D01*
X128273903Y-88143663D01*
X128335063Y-87915408D01*
X128355659Y-87680000D01*
X128335063Y-87444592D01*
X128273903Y-87216337D01*
X128174035Y-87002171D01*
X128038495Y-86808599D01*
X128038494Y-86808597D01*
X127871402Y-86641506D01*
X127871396Y-86641501D01*
X127685842Y-86511575D01*
X127642217Y-86456998D01*
X127635023Y-86387500D01*
X127666546Y-86325145D01*
X127685842Y-86308425D01*
X127708026Y-86292891D01*
X127871401Y-86178495D01*
X128038495Y-86011401D01*
X128174035Y-85817830D01*
X128273903Y-85603663D01*
X128335063Y-85375408D01*
X128355659Y-85140000D01*
X128335063Y-84904592D01*
X128273903Y-84676337D01*
X128174035Y-84462171D01*
X128038495Y-84268599D01*
X127916567Y-84146671D01*
X127883084Y-84085351D01*
X127888068Y-84015659D01*
X127929939Y-83959725D01*
X127960915Y-83942810D01*
X128092331Y-83893796D01*
X128207546Y-83807546D01*
X128293796Y-83692331D01*
X128344091Y-83557483D01*
X128350500Y-83497873D01*
X128350499Y-81702128D01*
X128344091Y-81642517D01*
X128343748Y-81641598D01*
X128293797Y-81507671D01*
X128293793Y-81507664D01*
X128207547Y-81392455D01*
X128207544Y-81392452D01*
X128092335Y-81306206D01*
X128092328Y-81306202D01*
X127960917Y-81257189D01*
X127904983Y-81215318D01*
X127880566Y-81149853D01*
X127895418Y-81081580D01*
X127916563Y-81053332D01*
X128038495Y-80931401D01*
X128174035Y-80737830D01*
X128273903Y-80523663D01*
X128335063Y-80295408D01*
X128355659Y-80060000D01*
X128335063Y-79824592D01*
X128273903Y-79596337D01*
X128174035Y-79382171D01*
X128038495Y-79188599D01*
X128038494Y-79188597D01*
X127871402Y-79021506D01*
X127871396Y-79021501D01*
X127685842Y-78891575D01*
X127642217Y-78836998D01*
X127635023Y-78767500D01*
X127666546Y-78705145D01*
X127685842Y-78688425D01*
X127708026Y-78672891D01*
X127871401Y-78558495D01*
X128038495Y-78391401D01*
X128174035Y-78197830D01*
X128273903Y-77983663D01*
X128335063Y-77755408D01*
X128355659Y-77520000D01*
X128335063Y-77284592D01*
X128273903Y-77056337D01*
X128174035Y-76842171D01*
X128135301Y-76786852D01*
X128038494Y-76648597D01*
X127871402Y-76481506D01*
X127871395Y-76481501D01*
X127860018Y-76473535D01*
X127832521Y-76454281D01*
X127677834Y-76345967D01*
X127677830Y-76345965D01*
X127677828Y-76345964D01*
X127463663Y-76246097D01*
X127463659Y-76246096D01*
X127463655Y-76246094D01*
X127235413Y-76184938D01*
X127235403Y-76184936D01*
X127000001Y-76164341D01*
X126999999Y-76164341D01*
X126764596Y-76184936D01*
X126764586Y-76184938D01*
X126536344Y-76246094D01*
X126536335Y-76246098D01*
X126322171Y-76345964D01*
X126322169Y-76345965D01*
X126128597Y-76481505D01*
X125961505Y-76648597D01*
X125825965Y-76842169D01*
X125825964Y-76842171D01*
X125726098Y-77056335D01*
X125726094Y-77056344D01*
X125664938Y-77284586D01*
X125664936Y-77284596D01*
X125644341Y-77519999D01*
X122229529Y-77519999D01*
X122221135Y-77418702D01*
X122221133Y-77418691D01*
X122164157Y-77193699D01*
X122070924Y-76981151D01*
X121943983Y-76786852D01*
X121943980Y-76786849D01*
X121943979Y-76786847D01*
X121786784Y-76616087D01*
X121786779Y-76616083D01*
X121786777Y-76616081D01*
X121603634Y-76473535D01*
X121603628Y-76473531D01*
X121399504Y-76363064D01*
X121399495Y-76363061D01*
X121179984Y-76287702D01*
X121008282Y-76259050D01*
X120951049Y-76249500D01*
X120718951Y-76249500D01*
X120673164Y-76257140D01*
X120490015Y-76287702D01*
X120270504Y-76363061D01*
X120270495Y-76363064D01*
X120066371Y-76473531D01*
X120066365Y-76473535D01*
X119883222Y-76616081D01*
X119883219Y-76616084D01*
X119726016Y-76786852D01*
X119599075Y-76981151D01*
X119505842Y-77193699D01*
X119448866Y-77418691D01*
X119448864Y-77418702D01*
X119429700Y-77649993D01*
X116790300Y-77649993D01*
X116771135Y-77418702D01*
X116771133Y-77418691D01*
X116714157Y-77193699D01*
X116620924Y-76981151D01*
X116493983Y-76786852D01*
X116493980Y-76786849D01*
X116493979Y-76786847D01*
X116336784Y-76616087D01*
X116336779Y-76616083D01*
X116336777Y-76616081D01*
X116153634Y-76473535D01*
X116153628Y-76473531D01*
X115949504Y-76363064D01*
X115949495Y-76363061D01*
X115729984Y-76287702D01*
X115558282Y-76259050D01*
X115501049Y-76249500D01*
X115268951Y-76249500D01*
X115223164Y-76257140D01*
X115040015Y-76287702D01*
X114820504Y-76363061D01*
X114820495Y-76363064D01*
X114616371Y-76473531D01*
X114616365Y-76473535D01*
X114433222Y-76616081D01*
X114433219Y-76616084D01*
X114276016Y-76786852D01*
X114149075Y-76981151D01*
X114055842Y-77193699D01*
X113998866Y-77418691D01*
X113998864Y-77418702D01*
X113979700Y-77649993D01*
X110564286Y-77649993D01*
X110575659Y-77520000D01*
X110555063Y-77284592D01*
X110493903Y-77056337D01*
X110394035Y-76842171D01*
X110355301Y-76786852D01*
X110258494Y-76648597D01*
X110091402Y-76481506D01*
X110091395Y-76481501D01*
X110080018Y-76473535D01*
X110052521Y-76454281D01*
X109897834Y-76345967D01*
X109897830Y-76345965D01*
X109897828Y-76345964D01*
X109683663Y-76246097D01*
X109683659Y-76246096D01*
X109683655Y-76246094D01*
X109455413Y-76184938D01*
X109455403Y-76184936D01*
X109220001Y-76164341D01*
X109219999Y-76164341D01*
X108984596Y-76184936D01*
X108984586Y-76184938D01*
X108756344Y-76246094D01*
X108756335Y-76246098D01*
X108542171Y-76345964D01*
X108542169Y-76345965D01*
X108348597Y-76481505D01*
X108181505Y-76648597D01*
X108045965Y-76842169D01*
X108045964Y-76842171D01*
X107946098Y-77056335D01*
X107946094Y-77056344D01*
X107884938Y-77284586D01*
X107884936Y-77284596D01*
X107864341Y-77519999D01*
X75500500Y-77519999D01*
X75500500Y-74624500D01*
X75520185Y-74557461D01*
X75572989Y-74511706D01*
X75624500Y-74500500D01*
X173375500Y-74500500D01*
X173442539Y-74520185D01*
G37*
G04 #@! TD.AperFunction*
G04 #@! TD*
M02*
