G04 #@! TF.GenerationSoftware,KiCad,Pcbnew,8.0.8*
G04 #@! TF.CreationDate,2025-04-19T00:37:25+02:00*
G04 #@! TF.ProjectId,noise_reduction_microphone,6e6f6973-655f-4726-9564-756374696f6e,rev?*
G04 #@! TF.SameCoordinates,Original*
G04 #@! TF.FileFunction,Legend,Top*
G04 #@! TF.FilePolarity,Positive*
%FSLAX46Y46*%
G04 Gerber Fmt 4.6, Leading zero omitted, Abs format (unit mm)*
G04 Created by KiCad (PCBNEW 8.0.8) date 2025-04-19 00:37:25*
%MOMM*%
%LPD*%
G01*
G04 APERTURE LIST*
G04 Aperture macros list*
%AMRoundRect*
0 Rectangle with rounded corners*
0 $1 Rounding radius*
0 $2 $3 $4 $5 $6 $7 $8 $9 X,Y pos of 4 corners*
0 Add a 4 corners polygon primitive as box body*
4,1,4,$2,$3,$4,$5,$6,$7,$8,$9,$2,$3,0*
0 Add four circle primitives for the rounded corners*
1,1,$1+$1,$2,$3*
1,1,$1+$1,$4,$5*
1,1,$1+$1,$6,$7*
1,1,$1+$1,$8,$9*
0 Add four rect primitives between the rounded corners*
20,1,$1+$1,$2,$3,$4,$5,0*
20,1,$1+$1,$4,$5,$6,$7,0*
20,1,$1+$1,$6,$7,$8,$9,0*
20,1,$1+$1,$8,$9,$2,$3,0*%
G04 Aperture macros list end*
%ADD10C,0.150000*%
%ADD11C,0.120000*%
%ADD12C,0.200000*%
%ADD13C,0.127000*%
%ADD14C,0.880000*%
%ADD15C,3.000000*%
%ADD16O,1.800000X1.800000*%
%ADD17O,1.500000X1.500000*%
%ADD18O,1.700000X1.700000*%
%ADD19R,3.500000X1.700000*%
%ADD20R,1.700000X1.700000*%
%ADD21R,1.700000X3.500000*%
%ADD22RoundRect,0.100000X0.100000X-0.637500X0.100000X0.637500X-0.100000X0.637500X-0.100000X-0.637500X0*%
%ADD23RoundRect,0.250000X-0.450000X0.350000X-0.450000X-0.350000X0.450000X-0.350000X0.450000X0.350000X0*%
%ADD24RoundRect,0.102000X-0.200000X-0.300000X0.200000X-0.300000X0.200000X0.300000X-0.200000X0.300000X0*%
%ADD25C,0.750000*%
%ADD26RoundRect,0.250000X-0.475000X0.337500X-0.475000X-0.337500X0.475000X-0.337500X0.475000X0.337500X0*%
%ADD27RoundRect,0.250000X0.475000X-0.337500X0.475000X0.337500X-0.475000X0.337500X-0.475000X-0.337500X0*%
%ADD28RoundRect,0.250000X-0.337500X-0.475000X0.337500X-0.475000X0.337500X0.475000X-0.337500X0.475000X0*%
G04 APERTURE END LIST*
D10*
X85666666Y-117956819D02*
X85666666Y-118671104D01*
X85666666Y-118671104D02*
X85619047Y-118813961D01*
X85619047Y-118813961D02*
X85523809Y-118909200D01*
X85523809Y-118909200D02*
X85380952Y-118956819D01*
X85380952Y-118956819D02*
X85285714Y-118956819D01*
X86571428Y-118290152D02*
X86571428Y-118956819D01*
X86333333Y-117909200D02*
X86095238Y-118623485D01*
X86095238Y-118623485D02*
X86714285Y-118623485D01*
X85666666Y-110956819D02*
X85666666Y-111671104D01*
X85666666Y-111671104D02*
X85619047Y-111813961D01*
X85619047Y-111813961D02*
X85523809Y-111909200D01*
X85523809Y-111909200D02*
X85380952Y-111956819D01*
X85380952Y-111956819D02*
X85285714Y-111956819D01*
X86047619Y-110956819D02*
X86666666Y-110956819D01*
X86666666Y-110956819D02*
X86333333Y-111337771D01*
X86333333Y-111337771D02*
X86476190Y-111337771D01*
X86476190Y-111337771D02*
X86571428Y-111385390D01*
X86571428Y-111385390D02*
X86619047Y-111433009D01*
X86619047Y-111433009D02*
X86666666Y-111528247D01*
X86666666Y-111528247D02*
X86666666Y-111766342D01*
X86666666Y-111766342D02*
X86619047Y-111861580D01*
X86619047Y-111861580D02*
X86571428Y-111909200D01*
X86571428Y-111909200D02*
X86476190Y-111956819D01*
X86476190Y-111956819D02*
X86190476Y-111956819D01*
X86190476Y-111956819D02*
X86095238Y-111909200D01*
X86095238Y-111909200D02*
X86047619Y-111861580D01*
X78666666Y-110956819D02*
X78666666Y-111671104D01*
X78666666Y-111671104D02*
X78619047Y-111813961D01*
X78619047Y-111813961D02*
X78523809Y-111909200D01*
X78523809Y-111909200D02*
X78380952Y-111956819D01*
X78380952Y-111956819D02*
X78285714Y-111956819D01*
X79095238Y-111052057D02*
X79142857Y-111004438D01*
X79142857Y-111004438D02*
X79238095Y-110956819D01*
X79238095Y-110956819D02*
X79476190Y-110956819D01*
X79476190Y-110956819D02*
X79571428Y-111004438D01*
X79571428Y-111004438D02*
X79619047Y-111052057D01*
X79619047Y-111052057D02*
X79666666Y-111147295D01*
X79666666Y-111147295D02*
X79666666Y-111242533D01*
X79666666Y-111242533D02*
X79619047Y-111385390D01*
X79619047Y-111385390D02*
X79047619Y-111956819D01*
X79047619Y-111956819D02*
X79666666Y-111956819D01*
X78666666Y-117956819D02*
X78666666Y-118671104D01*
X78666666Y-118671104D02*
X78619047Y-118813961D01*
X78619047Y-118813961D02*
X78523809Y-118909200D01*
X78523809Y-118909200D02*
X78380952Y-118956819D01*
X78380952Y-118956819D02*
X78285714Y-118956819D01*
X79666666Y-118956819D02*
X79095238Y-118956819D01*
X79380952Y-118956819D02*
X79380952Y-117956819D01*
X79380952Y-117956819D02*
X79285714Y-118099676D01*
X79285714Y-118099676D02*
X79190476Y-118194914D01*
X79190476Y-118194914D02*
X79095238Y-118242533D01*
X117348095Y-101104819D02*
X117348095Y-101914342D01*
X117348095Y-101914342D02*
X117395714Y-102009580D01*
X117395714Y-102009580D02*
X117443333Y-102057200D01*
X117443333Y-102057200D02*
X117538571Y-102104819D01*
X117538571Y-102104819D02*
X117729047Y-102104819D01*
X117729047Y-102104819D02*
X117824285Y-102057200D01*
X117824285Y-102057200D02*
X117871904Y-102009580D01*
X117871904Y-102009580D02*
X117919523Y-101914342D01*
X117919523Y-101914342D02*
X117919523Y-101104819D01*
X118348095Y-101200057D02*
X118395714Y-101152438D01*
X118395714Y-101152438D02*
X118490952Y-101104819D01*
X118490952Y-101104819D02*
X118729047Y-101104819D01*
X118729047Y-101104819D02*
X118824285Y-101152438D01*
X118824285Y-101152438D02*
X118871904Y-101200057D01*
X118871904Y-101200057D02*
X118919523Y-101295295D01*
X118919523Y-101295295D02*
X118919523Y-101390533D01*
X118919523Y-101390533D02*
X118871904Y-101533390D01*
X118871904Y-101533390D02*
X118300476Y-102104819D01*
X118300476Y-102104819D02*
X118919523Y-102104819D01*
X103953998Y-113470868D02*
X103873185Y-113497805D01*
X103873185Y-113497805D02*
X103792373Y-113578618D01*
X103792373Y-113578618D02*
X103738498Y-113686367D01*
X103738498Y-113686367D02*
X103738498Y-113794117D01*
X103738498Y-113794117D02*
X103765436Y-113874929D01*
X103765436Y-113874929D02*
X103846248Y-114009616D01*
X103846248Y-114009616D02*
X103927060Y-114090428D01*
X103927060Y-114090428D02*
X104061747Y-114171241D01*
X104061747Y-114171241D02*
X104142560Y-114198178D01*
X104142560Y-114198178D02*
X104250309Y-114198178D01*
X104250309Y-114198178D02*
X104358059Y-114144303D01*
X104358059Y-114144303D02*
X104411934Y-114090428D01*
X104411934Y-114090428D02*
X104465808Y-113982679D01*
X104465808Y-113982679D02*
X104465808Y-113928804D01*
X104465808Y-113928804D02*
X104277247Y-113740242D01*
X104277247Y-113740242D02*
X104169497Y-113847992D01*
X104762120Y-113740242D02*
X104196434Y-113174557D01*
X104196434Y-113174557D02*
X104411934Y-112959057D01*
X104411934Y-112959057D02*
X104492746Y-112932120D01*
X104492746Y-112932120D02*
X104546621Y-112932120D01*
X104546621Y-112932120D02*
X104627433Y-112959057D01*
X104627433Y-112959057D02*
X104708245Y-113039870D01*
X104708245Y-113039870D02*
X104735182Y-113120682D01*
X104735182Y-113120682D02*
X104735182Y-113174557D01*
X104735182Y-113174557D02*
X104708245Y-113255369D01*
X104708245Y-113255369D02*
X104492746Y-113470868D01*
X105624117Y-112878245D02*
X105300868Y-113201494D01*
X105462492Y-113039870D02*
X104896807Y-112474184D01*
X104896807Y-112474184D02*
X104923744Y-112608871D01*
X104923744Y-112608871D02*
X104923744Y-112716621D01*
X104923744Y-112716621D02*
X104896807Y-112797433D01*
X106162865Y-112339497D02*
X105839616Y-112662746D01*
X106001240Y-112501121D02*
X105435555Y-111935436D01*
X105435555Y-111935436D02*
X105462492Y-112070123D01*
X105462492Y-112070123D02*
X105462492Y-112177873D01*
X105462492Y-112177873D02*
X105435555Y-112258685D01*
X130261873Y-96391240D02*
X130531247Y-96121866D01*
X130369623Y-96606739D02*
X129992499Y-95852492D01*
X129992499Y-95852492D02*
X130746746Y-96229615D01*
X130692871Y-95205994D02*
X130612059Y-95232932D01*
X130612059Y-95232932D02*
X130531247Y-95313744D01*
X130531247Y-95313744D02*
X130477372Y-95421494D01*
X130477372Y-95421494D02*
X130477372Y-95529243D01*
X130477372Y-95529243D02*
X130504310Y-95610055D01*
X130504310Y-95610055D02*
X130585122Y-95744742D01*
X130585122Y-95744742D02*
X130665934Y-95825555D01*
X130665934Y-95825555D02*
X130800621Y-95906367D01*
X130800621Y-95906367D02*
X130881433Y-95933304D01*
X130881433Y-95933304D02*
X130989183Y-95933304D01*
X130989183Y-95933304D02*
X131096932Y-95879429D01*
X131096932Y-95879429D02*
X131150807Y-95825555D01*
X131150807Y-95825555D02*
X131204682Y-95717805D01*
X131204682Y-95717805D02*
X131204682Y-95663930D01*
X131204682Y-95663930D02*
X131016120Y-95475368D01*
X131016120Y-95475368D02*
X130908371Y-95583118D01*
X131500993Y-95475368D02*
X130935308Y-94909683D01*
X130935308Y-94909683D02*
X131824242Y-95152120D01*
X131824242Y-95152120D02*
X131258557Y-94586434D01*
X132093616Y-94882746D02*
X131527931Y-94317060D01*
X131527931Y-94317060D02*
X131662618Y-94182373D01*
X131662618Y-94182373D02*
X131770367Y-94128498D01*
X131770367Y-94128498D02*
X131878117Y-94128498D01*
X131878117Y-94128498D02*
X131958929Y-94155436D01*
X131958929Y-94155436D02*
X132093616Y-94236248D01*
X132093616Y-94236248D02*
X132174428Y-94317060D01*
X132174428Y-94317060D02*
X132255241Y-94451747D01*
X132255241Y-94451747D02*
X132282178Y-94532560D01*
X132282178Y-94532560D02*
X132282178Y-94640309D01*
X132282178Y-94640309D02*
X132228303Y-94748059D01*
X132228303Y-94748059D02*
X132093616Y-94882746D01*
X130196435Y-120848431D02*
X130115623Y-120875368D01*
X130115623Y-120875368D02*
X130034811Y-120956180D01*
X130034811Y-120956180D02*
X129980936Y-121063930D01*
X129980936Y-121063930D02*
X129980936Y-121171680D01*
X129980936Y-121171680D02*
X130007873Y-121252492D01*
X130007873Y-121252492D02*
X130088685Y-121387179D01*
X130088685Y-121387179D02*
X130169498Y-121467991D01*
X130169498Y-121467991D02*
X130304185Y-121548803D01*
X130304185Y-121548803D02*
X130384997Y-121575741D01*
X130384997Y-121575741D02*
X130492746Y-121575741D01*
X130492746Y-121575741D02*
X130600496Y-121521866D01*
X130600496Y-121521866D02*
X130654371Y-121467991D01*
X130654371Y-121467991D02*
X130708246Y-121360241D01*
X130708246Y-121360241D02*
X130708246Y-121306367D01*
X130708246Y-121306367D02*
X130519684Y-121117805D01*
X130519684Y-121117805D02*
X130411934Y-121225554D01*
X131004557Y-121117805D02*
X130438872Y-120552119D01*
X130438872Y-120552119D02*
X131327806Y-120794556D01*
X131327806Y-120794556D02*
X130762120Y-120228871D01*
X131597180Y-120525182D02*
X131031494Y-119959497D01*
X131031494Y-119959497D02*
X131166181Y-119824810D01*
X131166181Y-119824810D02*
X131273931Y-119770935D01*
X131273931Y-119770935D02*
X131381680Y-119770935D01*
X131381680Y-119770935D02*
X131462493Y-119797872D01*
X131462493Y-119797872D02*
X131597180Y-119878685D01*
X131597180Y-119878685D02*
X131677992Y-119959497D01*
X131677992Y-119959497D02*
X131758804Y-120094184D01*
X131758804Y-120094184D02*
X131785741Y-120174996D01*
X131785741Y-120174996D02*
X131785741Y-120282746D01*
X131785741Y-120282746D02*
X131731867Y-120390495D01*
X131731867Y-120390495D02*
X131597180Y-120525182D01*
X130063406Y-78177585D02*
X130817653Y-78554709D01*
X130817653Y-78554709D02*
X130440529Y-77800462D01*
X131087027Y-77692712D02*
X131194776Y-77638838D01*
X131194776Y-77638838D02*
X131248651Y-77638838D01*
X131248651Y-77638838D02*
X131329463Y-77665775D01*
X131329463Y-77665775D02*
X131410276Y-77746587D01*
X131410276Y-77746587D02*
X131437213Y-77827399D01*
X131437213Y-77827399D02*
X131437213Y-77881274D01*
X131437213Y-77881274D02*
X131410276Y-77962086D01*
X131410276Y-77962086D02*
X131194776Y-78177586D01*
X131194776Y-78177586D02*
X130629091Y-77611900D01*
X130629091Y-77611900D02*
X130817653Y-77423338D01*
X130817653Y-77423338D02*
X130898465Y-77396401D01*
X130898465Y-77396401D02*
X130952340Y-77396401D01*
X130952340Y-77396401D02*
X131033152Y-77423338D01*
X131033152Y-77423338D02*
X131087027Y-77477213D01*
X131087027Y-77477213D02*
X131113964Y-77558025D01*
X131113964Y-77558025D02*
X131113964Y-77611900D01*
X131113964Y-77611900D02*
X131087027Y-77692712D01*
X131087027Y-77692712D02*
X130898465Y-77881274D01*
X131194776Y-77046215D02*
X131652712Y-77504151D01*
X131652712Y-77504151D02*
X131733524Y-77531088D01*
X131733524Y-77531088D02*
X131787399Y-77531088D01*
X131787399Y-77531088D02*
X131868211Y-77504151D01*
X131868211Y-77504151D02*
X131975961Y-77396401D01*
X131975961Y-77396401D02*
X132002898Y-77315589D01*
X132002898Y-77315589D02*
X132002898Y-77261714D01*
X132002898Y-77261714D02*
X131975961Y-77180902D01*
X131975961Y-77180902D02*
X131518025Y-76722966D01*
X132299210Y-77019277D02*
X132406959Y-76965403D01*
X132406959Y-76965403D02*
X132541646Y-76830716D01*
X132541646Y-76830716D02*
X132568584Y-76749903D01*
X132568584Y-76749903D02*
X132568584Y-76696029D01*
X132568584Y-76696029D02*
X132541646Y-76615216D01*
X132541646Y-76615216D02*
X132487771Y-76561342D01*
X132487771Y-76561342D02*
X132406959Y-76534404D01*
X132406959Y-76534404D02*
X132353084Y-76534404D01*
X132353084Y-76534404D02*
X132272272Y-76561342D01*
X132272272Y-76561342D02*
X132137585Y-76642154D01*
X132137585Y-76642154D02*
X132056773Y-76669091D01*
X132056773Y-76669091D02*
X132002898Y-76669091D01*
X132002898Y-76669091D02*
X131922086Y-76642154D01*
X131922086Y-76642154D02*
X131868211Y-76588279D01*
X131868211Y-76588279D02*
X131841274Y-76507467D01*
X131841274Y-76507467D02*
X131841274Y-76453592D01*
X131841274Y-76453592D02*
X131868211Y-76372780D01*
X131868211Y-76372780D02*
X132002898Y-76238093D01*
X132002898Y-76238093D02*
X132110648Y-76184218D01*
X130196435Y-82748431D02*
X130115623Y-82775368D01*
X130115623Y-82775368D02*
X130034811Y-82856180D01*
X130034811Y-82856180D02*
X129980936Y-82963930D01*
X129980936Y-82963930D02*
X129980936Y-83071680D01*
X129980936Y-83071680D02*
X130007873Y-83152492D01*
X130007873Y-83152492D02*
X130088685Y-83287179D01*
X130088685Y-83287179D02*
X130169498Y-83367991D01*
X130169498Y-83367991D02*
X130304185Y-83448803D01*
X130304185Y-83448803D02*
X130384997Y-83475741D01*
X130384997Y-83475741D02*
X130492746Y-83475741D01*
X130492746Y-83475741D02*
X130600496Y-83421866D01*
X130600496Y-83421866D02*
X130654371Y-83367991D01*
X130654371Y-83367991D02*
X130708246Y-83260241D01*
X130708246Y-83260241D02*
X130708246Y-83206367D01*
X130708246Y-83206367D02*
X130519684Y-83017805D01*
X130519684Y-83017805D02*
X130411934Y-83125554D01*
X131004557Y-83017805D02*
X130438872Y-82452119D01*
X130438872Y-82452119D02*
X131327806Y-82694556D01*
X131327806Y-82694556D02*
X130762120Y-82128871D01*
X131597180Y-82425182D02*
X131031494Y-81859497D01*
X131031494Y-81859497D02*
X131166181Y-81724810D01*
X131166181Y-81724810D02*
X131273931Y-81670935D01*
X131273931Y-81670935D02*
X131381680Y-81670935D01*
X131381680Y-81670935D02*
X131462493Y-81697872D01*
X131462493Y-81697872D02*
X131597180Y-81778685D01*
X131597180Y-81778685D02*
X131677992Y-81859497D01*
X131677992Y-81859497D02*
X131758804Y-81994184D01*
X131758804Y-81994184D02*
X131785741Y-82074996D01*
X131785741Y-82074996D02*
X131785741Y-82182746D01*
X131785741Y-82182746D02*
X131731867Y-82290495D01*
X131731867Y-82290495D02*
X131597180Y-82425182D01*
X104099998Y-118550868D02*
X104019185Y-118577805D01*
X104019185Y-118577805D02*
X103938373Y-118658618D01*
X103938373Y-118658618D02*
X103884498Y-118766367D01*
X103884498Y-118766367D02*
X103884498Y-118874117D01*
X103884498Y-118874117D02*
X103911436Y-118954929D01*
X103911436Y-118954929D02*
X103992248Y-119089616D01*
X103992248Y-119089616D02*
X104073060Y-119170428D01*
X104073060Y-119170428D02*
X104207747Y-119251241D01*
X104207747Y-119251241D02*
X104288560Y-119278178D01*
X104288560Y-119278178D02*
X104396309Y-119278178D01*
X104396309Y-119278178D02*
X104504059Y-119224303D01*
X104504059Y-119224303D02*
X104557934Y-119170428D01*
X104557934Y-119170428D02*
X104611808Y-119062679D01*
X104611808Y-119062679D02*
X104611808Y-119008804D01*
X104611808Y-119008804D02*
X104423247Y-118820242D01*
X104423247Y-118820242D02*
X104315497Y-118927992D01*
X104908120Y-118820242D02*
X104342434Y-118254557D01*
X104342434Y-118254557D02*
X104557934Y-118039057D01*
X104557934Y-118039057D02*
X104638746Y-118012120D01*
X104638746Y-118012120D02*
X104692621Y-118012120D01*
X104692621Y-118012120D02*
X104773433Y-118039057D01*
X104773433Y-118039057D02*
X104854245Y-118119870D01*
X104854245Y-118119870D02*
X104881182Y-118200682D01*
X104881182Y-118200682D02*
X104881182Y-118254557D01*
X104881182Y-118254557D02*
X104854245Y-118335369D01*
X104854245Y-118335369D02*
X104638746Y-118550868D01*
X105770117Y-117958245D02*
X105446868Y-118281494D01*
X105608492Y-118119870D02*
X105042807Y-117554184D01*
X105042807Y-117554184D02*
X105069744Y-117688871D01*
X105069744Y-117688871D02*
X105069744Y-117796621D01*
X105069744Y-117796621D02*
X105042807Y-117877433D01*
X105392993Y-117203998D02*
X105743179Y-116853812D01*
X105743179Y-116853812D02*
X105770117Y-117257873D01*
X105770117Y-117257873D02*
X105850929Y-117177060D01*
X105850929Y-117177060D02*
X105931741Y-117150123D01*
X105931741Y-117150123D02*
X105985616Y-117150123D01*
X105985616Y-117150123D02*
X106066428Y-117177060D01*
X106066428Y-117177060D02*
X106201115Y-117311747D01*
X106201115Y-117311747D02*
X106228053Y-117392560D01*
X106228053Y-117392560D02*
X106228053Y-117446434D01*
X106228053Y-117446434D02*
X106201115Y-117527247D01*
X106201115Y-117527247D02*
X106039491Y-117688871D01*
X106039491Y-117688871D02*
X105958679Y-117715808D01*
X105958679Y-117715808D02*
X105904804Y-117715808D01*
X130265064Y-91184049D02*
X130534438Y-90914675D01*
X130372813Y-91399549D02*
X129995690Y-90645301D01*
X129995690Y-90645301D02*
X130749937Y-91022425D01*
X130938499Y-90833863D02*
X130372813Y-90268178D01*
X130372813Y-90268178D02*
X130507500Y-90133491D01*
X130507500Y-90133491D02*
X130615250Y-90079616D01*
X130615250Y-90079616D02*
X130722999Y-90079616D01*
X130722999Y-90079616D02*
X130803812Y-90106553D01*
X130803812Y-90106553D02*
X130938499Y-90187366D01*
X130938499Y-90187366D02*
X131019311Y-90268178D01*
X131019311Y-90268178D02*
X131100123Y-90402865D01*
X131100123Y-90402865D02*
X131127060Y-90483677D01*
X131127060Y-90483677D02*
X131127060Y-90591427D01*
X131127060Y-90591427D02*
X131073186Y-90699176D01*
X131073186Y-90699176D02*
X130938499Y-90833863D01*
X131773558Y-89891054D02*
X131773558Y-89944929D01*
X131773558Y-89944929D02*
X131719683Y-90052679D01*
X131719683Y-90052679D02*
X131665808Y-90106553D01*
X131665808Y-90106553D02*
X131558059Y-90160428D01*
X131558059Y-90160428D02*
X131450309Y-90160428D01*
X131450309Y-90160428D02*
X131369497Y-90133491D01*
X131369497Y-90133491D02*
X131234810Y-90052679D01*
X131234810Y-90052679D02*
X131153998Y-89971866D01*
X131153998Y-89971866D02*
X131073186Y-89837179D01*
X131073186Y-89837179D02*
X131046248Y-89756367D01*
X131046248Y-89756367D02*
X131046248Y-89648618D01*
X131046248Y-89648618D02*
X131100123Y-89540868D01*
X131100123Y-89540868D02*
X131153998Y-89486993D01*
X131153998Y-89486993D02*
X131261747Y-89433118D01*
X131261747Y-89433118D02*
X131315622Y-89433118D01*
X131989057Y-89891054D02*
X132420056Y-89460056D01*
X131854370Y-88786621D02*
X132608618Y-89163744D01*
X132608618Y-89163744D02*
X132231494Y-88409497D01*
X133308990Y-88463372D02*
X132851054Y-88382560D01*
X132985741Y-88786621D02*
X132420056Y-88220935D01*
X132420056Y-88220935D02*
X132635555Y-88005436D01*
X132635555Y-88005436D02*
X132716367Y-87978499D01*
X132716367Y-87978499D02*
X132770242Y-87978499D01*
X132770242Y-87978499D02*
X132851054Y-88005436D01*
X132851054Y-88005436D02*
X132931866Y-88086248D01*
X132931866Y-88086248D02*
X132958804Y-88167061D01*
X132958804Y-88167061D02*
X132958804Y-88220935D01*
X132958804Y-88220935D02*
X132931866Y-88301748D01*
X132931866Y-88301748D02*
X132716367Y-88517247D01*
X133255115Y-87924624D02*
X133443677Y-87736062D01*
X133820800Y-87951561D02*
X133551426Y-88220935D01*
X133551426Y-88220935D02*
X132985741Y-87655250D01*
X132985741Y-87655250D02*
X133255115Y-87385876D01*
X133955488Y-87224251D02*
X133766926Y-87412813D01*
X134063237Y-87709125D02*
X133497552Y-87143439D01*
X133497552Y-87143439D02*
X133766926Y-86874065D01*
X104623372Y-90341494D02*
X104542560Y-90368431D01*
X104542560Y-90368431D02*
X104461748Y-90449243D01*
X104461748Y-90449243D02*
X104407873Y-90556993D01*
X104407873Y-90556993D02*
X104407873Y-90664742D01*
X104407873Y-90664742D02*
X104434810Y-90745555D01*
X104434810Y-90745555D02*
X104515623Y-90880242D01*
X104515623Y-90880242D02*
X104596435Y-90961054D01*
X104596435Y-90961054D02*
X104731122Y-91041866D01*
X104731122Y-91041866D02*
X104811934Y-91068803D01*
X104811934Y-91068803D02*
X104919684Y-91068803D01*
X104919684Y-91068803D02*
X105027433Y-91014929D01*
X105027433Y-91014929D02*
X105081308Y-90961054D01*
X105081308Y-90961054D02*
X105135183Y-90853304D01*
X105135183Y-90853304D02*
X105135183Y-90799429D01*
X105135183Y-90799429D02*
X104946621Y-90610868D01*
X104946621Y-90610868D02*
X104838871Y-90718617D01*
X105431494Y-90610868D02*
X104865809Y-90045182D01*
X104865809Y-90045182D02*
X105081308Y-89829683D01*
X105081308Y-89829683D02*
X105162120Y-89802746D01*
X105162120Y-89802746D02*
X105215995Y-89802746D01*
X105215995Y-89802746D02*
X105296807Y-89829683D01*
X105296807Y-89829683D02*
X105377619Y-89910495D01*
X105377619Y-89910495D02*
X105404557Y-89991307D01*
X105404557Y-89991307D02*
X105404557Y-90045182D01*
X105404557Y-90045182D02*
X105377619Y-90125994D01*
X105377619Y-90125994D02*
X105162120Y-90341494D01*
X105862493Y-89425622D02*
X106239616Y-89802746D01*
X105512306Y-89344810D02*
X105781680Y-89883558D01*
X105781680Y-89883558D02*
X106131867Y-89533372D01*
X104723372Y-100471494D02*
X104642560Y-100498431D01*
X104642560Y-100498431D02*
X104561748Y-100579243D01*
X104561748Y-100579243D02*
X104507873Y-100686993D01*
X104507873Y-100686993D02*
X104507873Y-100794742D01*
X104507873Y-100794742D02*
X104534810Y-100875555D01*
X104534810Y-100875555D02*
X104615623Y-101010242D01*
X104615623Y-101010242D02*
X104696435Y-101091054D01*
X104696435Y-101091054D02*
X104831122Y-101171866D01*
X104831122Y-101171866D02*
X104911934Y-101198803D01*
X104911934Y-101198803D02*
X105019684Y-101198803D01*
X105019684Y-101198803D02*
X105127433Y-101144929D01*
X105127433Y-101144929D02*
X105181308Y-101091054D01*
X105181308Y-101091054D02*
X105235183Y-100983304D01*
X105235183Y-100983304D02*
X105235183Y-100929429D01*
X105235183Y-100929429D02*
X105046621Y-100740868D01*
X105046621Y-100740868D02*
X104938871Y-100848617D01*
X105531494Y-100740868D02*
X104965809Y-100175182D01*
X104965809Y-100175182D02*
X105181308Y-99959683D01*
X105181308Y-99959683D02*
X105262120Y-99932746D01*
X105262120Y-99932746D02*
X105315995Y-99932746D01*
X105315995Y-99932746D02*
X105396807Y-99959683D01*
X105396807Y-99959683D02*
X105477619Y-100040495D01*
X105477619Y-100040495D02*
X105504557Y-100121307D01*
X105504557Y-100121307D02*
X105504557Y-100175182D01*
X105504557Y-100175182D02*
X105477619Y-100255994D01*
X105477619Y-100255994D02*
X105262120Y-100471494D01*
X105477619Y-99663372D02*
X105854743Y-99286248D01*
X105854743Y-99286248D02*
X106177992Y-100094370D01*
X104099998Y-126170868D02*
X104019185Y-126197805D01*
X104019185Y-126197805D02*
X103938373Y-126278618D01*
X103938373Y-126278618D02*
X103884498Y-126386367D01*
X103884498Y-126386367D02*
X103884498Y-126494117D01*
X103884498Y-126494117D02*
X103911436Y-126574929D01*
X103911436Y-126574929D02*
X103992248Y-126709616D01*
X103992248Y-126709616D02*
X104073060Y-126790428D01*
X104073060Y-126790428D02*
X104207747Y-126871241D01*
X104207747Y-126871241D02*
X104288560Y-126898178D01*
X104288560Y-126898178D02*
X104396309Y-126898178D01*
X104396309Y-126898178D02*
X104504059Y-126844303D01*
X104504059Y-126844303D02*
X104557934Y-126790428D01*
X104557934Y-126790428D02*
X104611808Y-126682679D01*
X104611808Y-126682679D02*
X104611808Y-126628804D01*
X104611808Y-126628804D02*
X104423247Y-126440242D01*
X104423247Y-126440242D02*
X104315497Y-126547992D01*
X104908120Y-126440242D02*
X104342434Y-125874557D01*
X104342434Y-125874557D02*
X104557934Y-125659057D01*
X104557934Y-125659057D02*
X104638746Y-125632120D01*
X104638746Y-125632120D02*
X104692621Y-125632120D01*
X104692621Y-125632120D02*
X104773433Y-125659057D01*
X104773433Y-125659057D02*
X104854245Y-125739870D01*
X104854245Y-125739870D02*
X104881182Y-125820682D01*
X104881182Y-125820682D02*
X104881182Y-125874557D01*
X104881182Y-125874557D02*
X104854245Y-125955369D01*
X104854245Y-125955369D02*
X104638746Y-126170868D01*
X105770117Y-125578245D02*
X105446868Y-125901494D01*
X105608492Y-125739870D02*
X105042807Y-125174184D01*
X105042807Y-125174184D02*
X105069744Y-125308871D01*
X105069744Y-125308871D02*
X105069744Y-125416621D01*
X105069744Y-125416621D02*
X105042807Y-125497433D01*
X105716242Y-124500749D02*
X105446868Y-124770123D01*
X105446868Y-124770123D02*
X105689305Y-125066434D01*
X105689305Y-125066434D02*
X105689305Y-125012560D01*
X105689305Y-125012560D02*
X105716242Y-124931747D01*
X105716242Y-124931747D02*
X105850929Y-124797060D01*
X105850929Y-124797060D02*
X105931741Y-124770123D01*
X105931741Y-124770123D02*
X105985616Y-124770123D01*
X105985616Y-124770123D02*
X106066428Y-124797060D01*
X106066428Y-124797060D02*
X106201115Y-124931747D01*
X106201115Y-124931747D02*
X106228053Y-125012560D01*
X106228053Y-125012560D02*
X106228053Y-125066434D01*
X106228053Y-125066434D02*
X106201115Y-125147247D01*
X106201115Y-125147247D02*
X106066428Y-125281934D01*
X106066428Y-125281934D02*
X105985616Y-125308871D01*
X105985616Y-125308871D02*
X105931741Y-125308871D01*
X130207998Y-123630868D02*
X130127185Y-123657805D01*
X130127185Y-123657805D02*
X130046373Y-123738618D01*
X130046373Y-123738618D02*
X129992498Y-123846367D01*
X129992498Y-123846367D02*
X129992498Y-123954117D01*
X129992498Y-123954117D02*
X130019436Y-124034929D01*
X130019436Y-124034929D02*
X130100248Y-124169616D01*
X130100248Y-124169616D02*
X130181060Y-124250428D01*
X130181060Y-124250428D02*
X130315747Y-124331241D01*
X130315747Y-124331241D02*
X130396560Y-124358178D01*
X130396560Y-124358178D02*
X130504309Y-124358178D01*
X130504309Y-124358178D02*
X130612059Y-124304303D01*
X130612059Y-124304303D02*
X130665934Y-124250428D01*
X130665934Y-124250428D02*
X130719808Y-124142679D01*
X130719808Y-124142679D02*
X130719808Y-124088804D01*
X130719808Y-124088804D02*
X130531247Y-123900242D01*
X130531247Y-123900242D02*
X130423497Y-124007992D01*
X131016120Y-123900242D02*
X130450434Y-123334557D01*
X130450434Y-123334557D02*
X130665934Y-123119057D01*
X130665934Y-123119057D02*
X130746746Y-123092120D01*
X130746746Y-123092120D02*
X130800621Y-123092120D01*
X130800621Y-123092120D02*
X130881433Y-123119057D01*
X130881433Y-123119057D02*
X130962245Y-123199870D01*
X130962245Y-123199870D02*
X130989182Y-123280682D01*
X130989182Y-123280682D02*
X130989182Y-123334557D01*
X130989182Y-123334557D02*
X130962245Y-123415369D01*
X130962245Y-123415369D02*
X130746746Y-123630868D01*
X131878117Y-123038245D02*
X131554868Y-123361494D01*
X131716492Y-123199870D02*
X131150807Y-122634184D01*
X131150807Y-122634184D02*
X131177744Y-122768871D01*
X131177744Y-122768871D02*
X131177744Y-122876621D01*
X131177744Y-122876621D02*
X131150807Y-122957433D01*
X131500993Y-122283998D02*
X131878117Y-121906874D01*
X131878117Y-121906874D02*
X132201366Y-122714996D01*
X130207998Y-100770868D02*
X130127185Y-100797805D01*
X130127185Y-100797805D02*
X130046373Y-100878618D01*
X130046373Y-100878618D02*
X129992498Y-100986367D01*
X129992498Y-100986367D02*
X129992498Y-101094117D01*
X129992498Y-101094117D02*
X130019436Y-101174929D01*
X130019436Y-101174929D02*
X130100248Y-101309616D01*
X130100248Y-101309616D02*
X130181060Y-101390428D01*
X130181060Y-101390428D02*
X130315747Y-101471241D01*
X130315747Y-101471241D02*
X130396560Y-101498178D01*
X130396560Y-101498178D02*
X130504309Y-101498178D01*
X130504309Y-101498178D02*
X130612059Y-101444303D01*
X130612059Y-101444303D02*
X130665934Y-101390428D01*
X130665934Y-101390428D02*
X130719808Y-101282679D01*
X130719808Y-101282679D02*
X130719808Y-101228804D01*
X130719808Y-101228804D02*
X130531247Y-101040242D01*
X130531247Y-101040242D02*
X130423497Y-101147992D01*
X131016120Y-101040242D02*
X130450434Y-100474557D01*
X130450434Y-100474557D02*
X130665934Y-100259057D01*
X130665934Y-100259057D02*
X130746746Y-100232120D01*
X130746746Y-100232120D02*
X130800621Y-100232120D01*
X130800621Y-100232120D02*
X130881433Y-100259057D01*
X130881433Y-100259057D02*
X130962245Y-100339870D01*
X130962245Y-100339870D02*
X130989182Y-100420682D01*
X130989182Y-100420682D02*
X130989182Y-100474557D01*
X130989182Y-100474557D02*
X130962245Y-100555369D01*
X130962245Y-100555369D02*
X130746746Y-100770868D01*
X131043057Y-99989683D02*
X131043057Y-99935809D01*
X131043057Y-99935809D02*
X131069995Y-99854996D01*
X131069995Y-99854996D02*
X131204682Y-99720309D01*
X131204682Y-99720309D02*
X131285494Y-99693372D01*
X131285494Y-99693372D02*
X131339369Y-99693372D01*
X131339369Y-99693372D02*
X131420181Y-99720309D01*
X131420181Y-99720309D02*
X131474056Y-99774184D01*
X131474056Y-99774184D02*
X131527930Y-99881934D01*
X131527930Y-99881934D02*
X131527930Y-100528431D01*
X131527930Y-100528431D02*
X131878117Y-100178245D01*
X131797305Y-99127686D02*
X131689555Y-99235436D01*
X131689555Y-99235436D02*
X131662618Y-99316248D01*
X131662618Y-99316248D02*
X131662618Y-99370123D01*
X131662618Y-99370123D02*
X131689555Y-99504810D01*
X131689555Y-99504810D02*
X131770367Y-99639497D01*
X131770367Y-99639497D02*
X131985866Y-99854996D01*
X131985866Y-99854996D02*
X132066679Y-99881934D01*
X132066679Y-99881934D02*
X132120553Y-99881934D01*
X132120553Y-99881934D02*
X132201366Y-99854996D01*
X132201366Y-99854996D02*
X132309115Y-99747247D01*
X132309115Y-99747247D02*
X132336053Y-99666434D01*
X132336053Y-99666434D02*
X132336053Y-99612560D01*
X132336053Y-99612560D02*
X132309115Y-99531747D01*
X132309115Y-99531747D02*
X132174428Y-99397060D01*
X132174428Y-99397060D02*
X132093616Y-99370123D01*
X132093616Y-99370123D02*
X132039741Y-99370123D01*
X132039741Y-99370123D02*
X131958929Y-99397060D01*
X131958929Y-99397060D02*
X131851179Y-99504810D01*
X131851179Y-99504810D02*
X131824242Y-99585622D01*
X131824242Y-99585622D02*
X131824242Y-99639497D01*
X131824242Y-99639497D02*
X131851179Y-99720309D01*
X110600475Y-128174200D02*
X110714761Y-128212295D01*
X110714761Y-128212295D02*
X110905237Y-128212295D01*
X110905237Y-128212295D02*
X110981428Y-128174200D01*
X110981428Y-128174200D02*
X111019523Y-128136104D01*
X111019523Y-128136104D02*
X111057618Y-128059914D01*
X111057618Y-128059914D02*
X111057618Y-127983723D01*
X111057618Y-127983723D02*
X111019523Y-127907533D01*
X111019523Y-127907533D02*
X110981428Y-127869438D01*
X110981428Y-127869438D02*
X110905237Y-127831342D01*
X110905237Y-127831342D02*
X110752856Y-127793247D01*
X110752856Y-127793247D02*
X110676666Y-127755152D01*
X110676666Y-127755152D02*
X110638571Y-127717057D01*
X110638571Y-127717057D02*
X110600475Y-127640866D01*
X110600475Y-127640866D02*
X110600475Y-127564676D01*
X110600475Y-127564676D02*
X110638571Y-127488485D01*
X110638571Y-127488485D02*
X110676666Y-127450390D01*
X110676666Y-127450390D02*
X110752856Y-127412295D01*
X110752856Y-127412295D02*
X110943333Y-127412295D01*
X110943333Y-127412295D02*
X111057618Y-127450390D01*
X111324285Y-127412295D02*
X111514761Y-128212295D01*
X111514761Y-128212295D02*
X111667142Y-127640866D01*
X111667142Y-127640866D02*
X111819523Y-128212295D01*
X111819523Y-128212295D02*
X112010000Y-127412295D01*
X112771905Y-128136104D02*
X112733809Y-128174200D01*
X112733809Y-128174200D02*
X112619524Y-128212295D01*
X112619524Y-128212295D02*
X112543333Y-128212295D01*
X112543333Y-128212295D02*
X112429047Y-128174200D01*
X112429047Y-128174200D02*
X112352857Y-128098009D01*
X112352857Y-128098009D02*
X112314762Y-128021819D01*
X112314762Y-128021819D02*
X112276666Y-127869438D01*
X112276666Y-127869438D02*
X112276666Y-127755152D01*
X112276666Y-127755152D02*
X112314762Y-127602771D01*
X112314762Y-127602771D02*
X112352857Y-127526580D01*
X112352857Y-127526580D02*
X112429047Y-127450390D01*
X112429047Y-127450390D02*
X112543333Y-127412295D01*
X112543333Y-127412295D02*
X112619524Y-127412295D01*
X112619524Y-127412295D02*
X112733809Y-127450390D01*
X112733809Y-127450390D02*
X112771905Y-127488485D01*
X113495714Y-128212295D02*
X113114762Y-128212295D01*
X113114762Y-128212295D02*
X113114762Y-127412295D01*
X113762381Y-128212295D02*
X113762381Y-127412295D01*
X114219524Y-128212295D02*
X113876666Y-127755152D01*
X114219524Y-127412295D02*
X113762381Y-127869438D01*
X130032407Y-85608584D02*
X130382593Y-85258398D01*
X130382593Y-85258398D02*
X130409531Y-85662459D01*
X130409531Y-85662459D02*
X130490343Y-85581646D01*
X130490343Y-85581646D02*
X130571155Y-85554709D01*
X130571155Y-85554709D02*
X130625030Y-85554709D01*
X130625030Y-85554709D02*
X130705842Y-85581646D01*
X130705842Y-85581646D02*
X130840529Y-85716333D01*
X130840529Y-85716333D02*
X130867467Y-85797146D01*
X130867467Y-85797146D02*
X130867467Y-85851020D01*
X130867467Y-85851020D02*
X130840529Y-85931833D01*
X130840529Y-85931833D02*
X130678905Y-86093457D01*
X130678905Y-86093457D02*
X130598093Y-86120394D01*
X130598093Y-86120394D02*
X130544218Y-86120394D01*
X130544218Y-85096773D02*
X131298465Y-85473897D01*
X131298465Y-85473897D02*
X130921342Y-84719649D01*
X131056028Y-84584963D02*
X131406215Y-84234776D01*
X131406215Y-84234776D02*
X131433152Y-84638837D01*
X131433152Y-84638837D02*
X131513964Y-84558025D01*
X131513964Y-84558025D02*
X131594776Y-84531088D01*
X131594776Y-84531088D02*
X131648651Y-84531088D01*
X131648651Y-84531088D02*
X131729464Y-84558025D01*
X131729464Y-84558025D02*
X131864151Y-84692712D01*
X131864151Y-84692712D02*
X131891088Y-84773524D01*
X131891088Y-84773524D02*
X131891088Y-84827399D01*
X131891088Y-84827399D02*
X131864151Y-84908211D01*
X131864151Y-84908211D02*
X131702526Y-85069836D01*
X131702526Y-85069836D02*
X131621714Y-85096773D01*
X131621714Y-85096773D02*
X131567839Y-85096773D01*
X132133525Y-84746587D02*
X132564523Y-84315588D01*
X132349024Y-83830715D02*
X132537586Y-83642153D01*
X132914709Y-83857652D02*
X132645335Y-84127026D01*
X132645335Y-84127026D02*
X132079650Y-83561341D01*
X132079650Y-83561341D02*
X132349024Y-83291967D01*
X133157146Y-83615215D02*
X132591461Y-83049530D01*
X132591461Y-83049530D02*
X133480395Y-83291967D01*
X133480395Y-83291967D02*
X132914710Y-82726281D01*
X130000123Y-88140868D02*
X130350309Y-87790682D01*
X130350309Y-87790682D02*
X130377247Y-88194743D01*
X130377247Y-88194743D02*
X130458059Y-88113931D01*
X130458059Y-88113931D02*
X130538871Y-88086993D01*
X130538871Y-88086993D02*
X130592746Y-88086993D01*
X130592746Y-88086993D02*
X130673558Y-88113931D01*
X130673558Y-88113931D02*
X130808245Y-88248618D01*
X130808245Y-88248618D02*
X130835182Y-88329430D01*
X130835182Y-88329430D02*
X130835182Y-88383305D01*
X130835182Y-88383305D02*
X130808245Y-88464117D01*
X130808245Y-88464117D02*
X130646621Y-88625741D01*
X130646621Y-88625741D02*
X130565808Y-88652679D01*
X130565808Y-88652679D02*
X130511934Y-88652679D01*
X130511934Y-87629057D02*
X131266181Y-88006181D01*
X131266181Y-88006181D02*
X130889057Y-87251934D01*
X131023744Y-87117247D02*
X131373930Y-86767061D01*
X131373930Y-86767061D02*
X131400868Y-87171122D01*
X131400868Y-87171122D02*
X131481680Y-87090309D01*
X131481680Y-87090309D02*
X131562492Y-87063372D01*
X131562492Y-87063372D02*
X131616367Y-87063372D01*
X131616367Y-87063372D02*
X131697179Y-87090309D01*
X131697179Y-87090309D02*
X131831866Y-87224996D01*
X131831866Y-87224996D02*
X131858804Y-87305809D01*
X131858804Y-87305809D02*
X131858804Y-87359683D01*
X131858804Y-87359683D02*
X131831866Y-87440496D01*
X131831866Y-87440496D02*
X131670242Y-87602120D01*
X131670242Y-87602120D02*
X131589430Y-87629057D01*
X131589430Y-87629057D02*
X131535555Y-87629057D01*
X104623372Y-103041494D02*
X104542560Y-103068431D01*
X104542560Y-103068431D02*
X104461748Y-103149243D01*
X104461748Y-103149243D02*
X104407873Y-103256993D01*
X104407873Y-103256993D02*
X104407873Y-103364742D01*
X104407873Y-103364742D02*
X104434810Y-103445555D01*
X104434810Y-103445555D02*
X104515623Y-103580242D01*
X104515623Y-103580242D02*
X104596435Y-103661054D01*
X104596435Y-103661054D02*
X104731122Y-103741866D01*
X104731122Y-103741866D02*
X104811934Y-103768803D01*
X104811934Y-103768803D02*
X104919684Y-103768803D01*
X104919684Y-103768803D02*
X105027433Y-103714929D01*
X105027433Y-103714929D02*
X105081308Y-103661054D01*
X105081308Y-103661054D02*
X105135183Y-103553304D01*
X105135183Y-103553304D02*
X105135183Y-103499429D01*
X105135183Y-103499429D02*
X104946621Y-103310868D01*
X104946621Y-103310868D02*
X104838871Y-103418617D01*
X105431494Y-103310868D02*
X104865809Y-102745182D01*
X104865809Y-102745182D02*
X105081308Y-102529683D01*
X105081308Y-102529683D02*
X105162120Y-102502746D01*
X105162120Y-102502746D02*
X105215995Y-102502746D01*
X105215995Y-102502746D02*
X105296807Y-102529683D01*
X105296807Y-102529683D02*
X105377619Y-102610495D01*
X105377619Y-102610495D02*
X105404557Y-102691307D01*
X105404557Y-102691307D02*
X105404557Y-102745182D01*
X105404557Y-102745182D02*
X105377619Y-102825994D01*
X105377619Y-102825994D02*
X105162120Y-103041494D01*
X105754743Y-102341121D02*
X105673931Y-102368059D01*
X105673931Y-102368059D02*
X105620056Y-102368059D01*
X105620056Y-102368059D02*
X105539244Y-102341121D01*
X105539244Y-102341121D02*
X105512306Y-102314184D01*
X105512306Y-102314184D02*
X105485369Y-102233372D01*
X105485369Y-102233372D02*
X105485369Y-102179497D01*
X105485369Y-102179497D02*
X105512306Y-102098685D01*
X105512306Y-102098685D02*
X105620056Y-101990935D01*
X105620056Y-101990935D02*
X105700868Y-101963998D01*
X105700868Y-101963998D02*
X105754743Y-101963998D01*
X105754743Y-101963998D02*
X105835555Y-101990935D01*
X105835555Y-101990935D02*
X105862493Y-102017872D01*
X105862493Y-102017872D02*
X105889430Y-102098685D01*
X105889430Y-102098685D02*
X105889430Y-102152559D01*
X105889430Y-102152559D02*
X105862493Y-102233372D01*
X105862493Y-102233372D02*
X105754743Y-102341121D01*
X105754743Y-102341121D02*
X105727806Y-102421933D01*
X105727806Y-102421933D02*
X105727806Y-102475808D01*
X105727806Y-102475808D02*
X105754743Y-102556620D01*
X105754743Y-102556620D02*
X105862493Y-102664370D01*
X105862493Y-102664370D02*
X105943305Y-102691307D01*
X105943305Y-102691307D02*
X105997180Y-102691307D01*
X105997180Y-102691307D02*
X106077992Y-102664370D01*
X106077992Y-102664370D02*
X106185741Y-102556620D01*
X106185741Y-102556620D02*
X106212679Y-102475808D01*
X106212679Y-102475808D02*
X106212679Y-102421933D01*
X106212679Y-102421933D02*
X106185741Y-102341121D01*
X106185741Y-102341121D02*
X106077992Y-102233372D01*
X106077992Y-102233372D02*
X105997180Y-102206434D01*
X105997180Y-102206434D02*
X105943305Y-102206434D01*
X105943305Y-102206434D02*
X105862493Y-102233372D01*
X130207998Y-126170868D02*
X130127185Y-126197805D01*
X130127185Y-126197805D02*
X130046373Y-126278618D01*
X130046373Y-126278618D02*
X129992498Y-126386367D01*
X129992498Y-126386367D02*
X129992498Y-126494117D01*
X129992498Y-126494117D02*
X130019436Y-126574929D01*
X130019436Y-126574929D02*
X130100248Y-126709616D01*
X130100248Y-126709616D02*
X130181060Y-126790428D01*
X130181060Y-126790428D02*
X130315747Y-126871241D01*
X130315747Y-126871241D02*
X130396560Y-126898178D01*
X130396560Y-126898178D02*
X130504309Y-126898178D01*
X130504309Y-126898178D02*
X130612059Y-126844303D01*
X130612059Y-126844303D02*
X130665934Y-126790428D01*
X130665934Y-126790428D02*
X130719808Y-126682679D01*
X130719808Y-126682679D02*
X130719808Y-126628804D01*
X130719808Y-126628804D02*
X130531247Y-126440242D01*
X130531247Y-126440242D02*
X130423497Y-126547992D01*
X131016120Y-126440242D02*
X130450434Y-125874557D01*
X130450434Y-125874557D02*
X130665934Y-125659057D01*
X130665934Y-125659057D02*
X130746746Y-125632120D01*
X130746746Y-125632120D02*
X130800621Y-125632120D01*
X130800621Y-125632120D02*
X130881433Y-125659057D01*
X130881433Y-125659057D02*
X130962245Y-125739870D01*
X130962245Y-125739870D02*
X130989182Y-125820682D01*
X130989182Y-125820682D02*
X130989182Y-125874557D01*
X130989182Y-125874557D02*
X130962245Y-125955369D01*
X130962245Y-125955369D02*
X130746746Y-126170868D01*
X131878117Y-125578245D02*
X131554868Y-125901494D01*
X131716492Y-125739870D02*
X131150807Y-125174184D01*
X131150807Y-125174184D02*
X131177744Y-125308871D01*
X131177744Y-125308871D02*
X131177744Y-125416621D01*
X131177744Y-125416621D02*
X131150807Y-125497433D01*
X131797305Y-124527686D02*
X131689555Y-124635436D01*
X131689555Y-124635436D02*
X131662618Y-124716248D01*
X131662618Y-124716248D02*
X131662618Y-124770123D01*
X131662618Y-124770123D02*
X131689555Y-124904810D01*
X131689555Y-124904810D02*
X131770367Y-125039497D01*
X131770367Y-125039497D02*
X131985866Y-125254996D01*
X131985866Y-125254996D02*
X132066679Y-125281934D01*
X132066679Y-125281934D02*
X132120553Y-125281934D01*
X132120553Y-125281934D02*
X132201366Y-125254996D01*
X132201366Y-125254996D02*
X132309115Y-125147247D01*
X132309115Y-125147247D02*
X132336053Y-125066434D01*
X132336053Y-125066434D02*
X132336053Y-125012560D01*
X132336053Y-125012560D02*
X132309115Y-124931747D01*
X132309115Y-124931747D02*
X132174428Y-124797060D01*
X132174428Y-124797060D02*
X132093616Y-124770123D01*
X132093616Y-124770123D02*
X132039741Y-124770123D01*
X132039741Y-124770123D02*
X131958929Y-124797060D01*
X131958929Y-124797060D02*
X131851179Y-124904810D01*
X131851179Y-124904810D02*
X131824242Y-124985622D01*
X131824242Y-124985622D02*
X131824242Y-125039497D01*
X131824242Y-125039497D02*
X131851179Y-125120309D01*
X130196435Y-108148431D02*
X130115623Y-108175368D01*
X130115623Y-108175368D02*
X130034811Y-108256180D01*
X130034811Y-108256180D02*
X129980936Y-108363930D01*
X129980936Y-108363930D02*
X129980936Y-108471680D01*
X129980936Y-108471680D02*
X130007873Y-108552492D01*
X130007873Y-108552492D02*
X130088685Y-108687179D01*
X130088685Y-108687179D02*
X130169498Y-108767991D01*
X130169498Y-108767991D02*
X130304185Y-108848803D01*
X130304185Y-108848803D02*
X130384997Y-108875741D01*
X130384997Y-108875741D02*
X130492746Y-108875741D01*
X130492746Y-108875741D02*
X130600496Y-108821866D01*
X130600496Y-108821866D02*
X130654371Y-108767991D01*
X130654371Y-108767991D02*
X130708246Y-108660241D01*
X130708246Y-108660241D02*
X130708246Y-108606367D01*
X130708246Y-108606367D02*
X130519684Y-108417805D01*
X130519684Y-108417805D02*
X130411934Y-108525554D01*
X131004557Y-108417805D02*
X130438872Y-107852119D01*
X130438872Y-107852119D02*
X131327806Y-108094556D01*
X131327806Y-108094556D02*
X130762120Y-107528871D01*
X131597180Y-107825182D02*
X131031494Y-107259497D01*
X131031494Y-107259497D02*
X131166181Y-107124810D01*
X131166181Y-107124810D02*
X131273931Y-107070935D01*
X131273931Y-107070935D02*
X131381680Y-107070935D01*
X131381680Y-107070935D02*
X131462493Y-107097872D01*
X131462493Y-107097872D02*
X131597180Y-107178685D01*
X131597180Y-107178685D02*
X131677992Y-107259497D01*
X131677992Y-107259497D02*
X131758804Y-107394184D01*
X131758804Y-107394184D02*
X131785741Y-107474996D01*
X131785741Y-107474996D02*
X131785741Y-107582746D01*
X131785741Y-107582746D02*
X131731867Y-107690495D01*
X131731867Y-107690495D02*
X131597180Y-107825182D01*
X104596435Y-95448431D02*
X104515623Y-95475368D01*
X104515623Y-95475368D02*
X104434811Y-95556180D01*
X104434811Y-95556180D02*
X104380936Y-95663930D01*
X104380936Y-95663930D02*
X104380936Y-95771680D01*
X104380936Y-95771680D02*
X104407873Y-95852492D01*
X104407873Y-95852492D02*
X104488685Y-95987179D01*
X104488685Y-95987179D02*
X104569498Y-96067991D01*
X104569498Y-96067991D02*
X104704185Y-96148803D01*
X104704185Y-96148803D02*
X104784997Y-96175741D01*
X104784997Y-96175741D02*
X104892746Y-96175741D01*
X104892746Y-96175741D02*
X105000496Y-96121866D01*
X105000496Y-96121866D02*
X105054371Y-96067991D01*
X105054371Y-96067991D02*
X105108246Y-95960241D01*
X105108246Y-95960241D02*
X105108246Y-95906367D01*
X105108246Y-95906367D02*
X104919684Y-95717805D01*
X104919684Y-95717805D02*
X104811934Y-95825554D01*
X105404557Y-95717805D02*
X104838872Y-95152119D01*
X104838872Y-95152119D02*
X105727806Y-95394556D01*
X105727806Y-95394556D02*
X105162120Y-94828871D01*
X105997180Y-95125182D02*
X105431494Y-94559497D01*
X105431494Y-94559497D02*
X105566181Y-94424810D01*
X105566181Y-94424810D02*
X105673931Y-94370935D01*
X105673931Y-94370935D02*
X105781680Y-94370935D01*
X105781680Y-94370935D02*
X105862493Y-94397872D01*
X105862493Y-94397872D02*
X105997180Y-94478685D01*
X105997180Y-94478685D02*
X106077992Y-94559497D01*
X106077992Y-94559497D02*
X106158804Y-94694184D01*
X106158804Y-94694184D02*
X106185741Y-94774996D01*
X106185741Y-94774996D02*
X106185741Y-94882746D01*
X106185741Y-94882746D02*
X106131867Y-94990495D01*
X106131867Y-94990495D02*
X105997180Y-95125182D01*
X130207998Y-92896868D02*
X130127185Y-92923805D01*
X130127185Y-92923805D02*
X130046373Y-93004618D01*
X130046373Y-93004618D02*
X129992498Y-93112367D01*
X129992498Y-93112367D02*
X129992498Y-93220117D01*
X129992498Y-93220117D02*
X130019436Y-93300929D01*
X130019436Y-93300929D02*
X130100248Y-93435616D01*
X130100248Y-93435616D02*
X130181060Y-93516428D01*
X130181060Y-93516428D02*
X130315747Y-93597241D01*
X130315747Y-93597241D02*
X130396560Y-93624178D01*
X130396560Y-93624178D02*
X130504309Y-93624178D01*
X130504309Y-93624178D02*
X130612059Y-93570303D01*
X130612059Y-93570303D02*
X130665934Y-93516428D01*
X130665934Y-93516428D02*
X130719808Y-93408679D01*
X130719808Y-93408679D02*
X130719808Y-93354804D01*
X130719808Y-93354804D02*
X130531247Y-93166242D01*
X130531247Y-93166242D02*
X130423497Y-93273992D01*
X131016120Y-93166242D02*
X130450434Y-92600557D01*
X130450434Y-92600557D02*
X130665934Y-92385057D01*
X130665934Y-92385057D02*
X130746746Y-92358120D01*
X130746746Y-92358120D02*
X130800621Y-92358120D01*
X130800621Y-92358120D02*
X130881433Y-92385057D01*
X130881433Y-92385057D02*
X130962245Y-92465870D01*
X130962245Y-92465870D02*
X130989182Y-92546682D01*
X130989182Y-92546682D02*
X130989182Y-92600557D01*
X130989182Y-92600557D02*
X130962245Y-92681369D01*
X130962245Y-92681369D02*
X130746746Y-92896868D01*
X131043057Y-92115683D02*
X131043057Y-92061809D01*
X131043057Y-92061809D02*
X131069995Y-91980996D01*
X131069995Y-91980996D02*
X131204682Y-91846309D01*
X131204682Y-91846309D02*
X131285494Y-91819372D01*
X131285494Y-91819372D02*
X131339369Y-91819372D01*
X131339369Y-91819372D02*
X131420181Y-91846309D01*
X131420181Y-91846309D02*
X131474056Y-91900184D01*
X131474056Y-91900184D02*
X131527930Y-92007934D01*
X131527930Y-92007934D02*
X131527930Y-92654431D01*
X131527930Y-92654431D02*
X131878117Y-92304245D01*
X131878117Y-91657747D02*
X131797305Y-91684685D01*
X131797305Y-91684685D02*
X131743430Y-91684685D01*
X131743430Y-91684685D02*
X131662618Y-91657747D01*
X131662618Y-91657747D02*
X131635680Y-91630810D01*
X131635680Y-91630810D02*
X131608743Y-91549998D01*
X131608743Y-91549998D02*
X131608743Y-91496123D01*
X131608743Y-91496123D02*
X131635680Y-91415311D01*
X131635680Y-91415311D02*
X131743430Y-91307561D01*
X131743430Y-91307561D02*
X131824242Y-91280624D01*
X131824242Y-91280624D02*
X131878117Y-91280624D01*
X131878117Y-91280624D02*
X131958929Y-91307561D01*
X131958929Y-91307561D02*
X131985866Y-91334499D01*
X131985866Y-91334499D02*
X132012804Y-91415311D01*
X132012804Y-91415311D02*
X132012804Y-91469186D01*
X132012804Y-91469186D02*
X131985866Y-91549998D01*
X131985866Y-91549998D02*
X131878117Y-91657747D01*
X131878117Y-91657747D02*
X131851179Y-91738560D01*
X131851179Y-91738560D02*
X131851179Y-91792434D01*
X131851179Y-91792434D02*
X131878117Y-91873247D01*
X131878117Y-91873247D02*
X131985866Y-91980996D01*
X131985866Y-91980996D02*
X132066679Y-92007934D01*
X132066679Y-92007934D02*
X132120553Y-92007934D01*
X132120553Y-92007934D02*
X132201366Y-91980996D01*
X132201366Y-91980996D02*
X132309115Y-91873247D01*
X132309115Y-91873247D02*
X132336053Y-91792434D01*
X132336053Y-91792434D02*
X132336053Y-91738560D01*
X132336053Y-91738560D02*
X132309115Y-91657747D01*
X132309115Y-91657747D02*
X132201366Y-91549998D01*
X132201366Y-91549998D02*
X132120553Y-91523060D01*
X132120553Y-91523060D02*
X132066679Y-91523060D01*
X132066679Y-91523060D02*
X131985866Y-91549998D01*
X104623372Y-105581494D02*
X104542560Y-105608431D01*
X104542560Y-105608431D02*
X104461748Y-105689243D01*
X104461748Y-105689243D02*
X104407873Y-105796993D01*
X104407873Y-105796993D02*
X104407873Y-105904742D01*
X104407873Y-105904742D02*
X104434810Y-105985555D01*
X104434810Y-105985555D02*
X104515623Y-106120242D01*
X104515623Y-106120242D02*
X104596435Y-106201054D01*
X104596435Y-106201054D02*
X104731122Y-106281866D01*
X104731122Y-106281866D02*
X104811934Y-106308803D01*
X104811934Y-106308803D02*
X104919684Y-106308803D01*
X104919684Y-106308803D02*
X105027433Y-106254929D01*
X105027433Y-106254929D02*
X105081308Y-106201054D01*
X105081308Y-106201054D02*
X105135183Y-106093304D01*
X105135183Y-106093304D02*
X105135183Y-106039429D01*
X105135183Y-106039429D02*
X104946621Y-105850868D01*
X104946621Y-105850868D02*
X104838871Y-105958617D01*
X105431494Y-105850868D02*
X104865809Y-105285182D01*
X104865809Y-105285182D02*
X105081308Y-105069683D01*
X105081308Y-105069683D02*
X105162120Y-105042746D01*
X105162120Y-105042746D02*
X105215995Y-105042746D01*
X105215995Y-105042746D02*
X105296807Y-105069683D01*
X105296807Y-105069683D02*
X105377619Y-105150495D01*
X105377619Y-105150495D02*
X105404557Y-105231307D01*
X105404557Y-105231307D02*
X105404557Y-105285182D01*
X105404557Y-105285182D02*
X105377619Y-105365994D01*
X105377619Y-105365994D02*
X105162120Y-105581494D01*
X106024117Y-105258245D02*
X106131867Y-105150495D01*
X106131867Y-105150495D02*
X106158804Y-105069683D01*
X106158804Y-105069683D02*
X106158804Y-105015808D01*
X106158804Y-105015808D02*
X106131867Y-104881121D01*
X106131867Y-104881121D02*
X106051054Y-104746434D01*
X106051054Y-104746434D02*
X105835555Y-104530935D01*
X105835555Y-104530935D02*
X105754743Y-104503998D01*
X105754743Y-104503998D02*
X105700868Y-104503998D01*
X105700868Y-104503998D02*
X105620056Y-104530935D01*
X105620056Y-104530935D02*
X105512306Y-104638685D01*
X105512306Y-104638685D02*
X105485369Y-104719497D01*
X105485369Y-104719497D02*
X105485369Y-104773372D01*
X105485369Y-104773372D02*
X105512306Y-104854184D01*
X105512306Y-104854184D02*
X105646993Y-104988871D01*
X105646993Y-104988871D02*
X105727806Y-105015808D01*
X105727806Y-105015808D02*
X105781680Y-105015808D01*
X105781680Y-105015808D02*
X105862493Y-104988871D01*
X105862493Y-104988871D02*
X105970242Y-104881121D01*
X105970242Y-104881121D02*
X105997180Y-104800309D01*
X105997180Y-104800309D02*
X105997180Y-104746434D01*
X105997180Y-104746434D02*
X105970242Y-104665622D01*
X122014761Y-128174200D02*
X122129047Y-128212295D01*
X122129047Y-128212295D02*
X122319523Y-128212295D01*
X122319523Y-128212295D02*
X122395714Y-128174200D01*
X122395714Y-128174200D02*
X122433809Y-128136104D01*
X122433809Y-128136104D02*
X122471904Y-128059914D01*
X122471904Y-128059914D02*
X122471904Y-127983723D01*
X122471904Y-127983723D02*
X122433809Y-127907533D01*
X122433809Y-127907533D02*
X122395714Y-127869438D01*
X122395714Y-127869438D02*
X122319523Y-127831342D01*
X122319523Y-127831342D02*
X122167142Y-127793247D01*
X122167142Y-127793247D02*
X122090952Y-127755152D01*
X122090952Y-127755152D02*
X122052857Y-127717057D01*
X122052857Y-127717057D02*
X122014761Y-127640866D01*
X122014761Y-127640866D02*
X122014761Y-127564676D01*
X122014761Y-127564676D02*
X122052857Y-127488485D01*
X122052857Y-127488485D02*
X122090952Y-127450390D01*
X122090952Y-127450390D02*
X122167142Y-127412295D01*
X122167142Y-127412295D02*
X122357619Y-127412295D01*
X122357619Y-127412295D02*
X122471904Y-127450390D01*
X122738571Y-127412295D02*
X122929047Y-128212295D01*
X122929047Y-128212295D02*
X123081428Y-127640866D01*
X123081428Y-127640866D02*
X123233809Y-128212295D01*
X123233809Y-128212295D02*
X123424286Y-127412295D01*
X123729048Y-128212295D02*
X123729048Y-127412295D01*
X123729048Y-127412295D02*
X123919524Y-127412295D01*
X123919524Y-127412295D02*
X124033810Y-127450390D01*
X124033810Y-127450390D02*
X124110000Y-127526580D01*
X124110000Y-127526580D02*
X124148095Y-127602771D01*
X124148095Y-127602771D02*
X124186191Y-127755152D01*
X124186191Y-127755152D02*
X124186191Y-127869438D01*
X124186191Y-127869438D02*
X124148095Y-128021819D01*
X124148095Y-128021819D02*
X124110000Y-128098009D01*
X124110000Y-128098009D02*
X124033810Y-128174200D01*
X124033810Y-128174200D02*
X123919524Y-128212295D01*
X123919524Y-128212295D02*
X123729048Y-128212295D01*
X124529048Y-128212295D02*
X124529048Y-127412295D01*
X125062381Y-127412295D02*
X125214762Y-127412295D01*
X125214762Y-127412295D02*
X125290952Y-127450390D01*
X125290952Y-127450390D02*
X125367143Y-127526580D01*
X125367143Y-127526580D02*
X125405238Y-127678961D01*
X125405238Y-127678961D02*
X125405238Y-127945628D01*
X125405238Y-127945628D02*
X125367143Y-128098009D01*
X125367143Y-128098009D02*
X125290952Y-128174200D01*
X125290952Y-128174200D02*
X125214762Y-128212295D01*
X125214762Y-128212295D02*
X125062381Y-128212295D01*
X125062381Y-128212295D02*
X124986190Y-128174200D01*
X124986190Y-128174200D02*
X124910000Y-128098009D01*
X124910000Y-128098009D02*
X124871904Y-127945628D01*
X124871904Y-127945628D02*
X124871904Y-127678961D01*
X124871904Y-127678961D02*
X124910000Y-127526580D01*
X124910000Y-127526580D02*
X124986190Y-127450390D01*
X124986190Y-127450390D02*
X125062381Y-127412295D01*
X104623372Y-92881494D02*
X104542560Y-92908431D01*
X104542560Y-92908431D02*
X104461748Y-92989243D01*
X104461748Y-92989243D02*
X104407873Y-93096993D01*
X104407873Y-93096993D02*
X104407873Y-93204742D01*
X104407873Y-93204742D02*
X104434810Y-93285555D01*
X104434810Y-93285555D02*
X104515623Y-93420242D01*
X104515623Y-93420242D02*
X104596435Y-93501054D01*
X104596435Y-93501054D02*
X104731122Y-93581866D01*
X104731122Y-93581866D02*
X104811934Y-93608803D01*
X104811934Y-93608803D02*
X104919684Y-93608803D01*
X104919684Y-93608803D02*
X105027433Y-93554929D01*
X105027433Y-93554929D02*
X105081308Y-93501054D01*
X105081308Y-93501054D02*
X105135183Y-93393304D01*
X105135183Y-93393304D02*
X105135183Y-93339429D01*
X105135183Y-93339429D02*
X104946621Y-93150868D01*
X104946621Y-93150868D02*
X104838871Y-93258617D01*
X105431494Y-93150868D02*
X104865809Y-92585182D01*
X104865809Y-92585182D02*
X105081308Y-92369683D01*
X105081308Y-92369683D02*
X105162120Y-92342746D01*
X105162120Y-92342746D02*
X105215995Y-92342746D01*
X105215995Y-92342746D02*
X105296807Y-92369683D01*
X105296807Y-92369683D02*
X105377619Y-92450495D01*
X105377619Y-92450495D02*
X105404557Y-92531307D01*
X105404557Y-92531307D02*
X105404557Y-92585182D01*
X105404557Y-92585182D02*
X105377619Y-92665994D01*
X105377619Y-92665994D02*
X105162120Y-92881494D01*
X105700868Y-91750123D02*
X105431494Y-92019497D01*
X105431494Y-92019497D02*
X105673931Y-92315808D01*
X105673931Y-92315808D02*
X105673931Y-92261933D01*
X105673931Y-92261933D02*
X105700868Y-92181121D01*
X105700868Y-92181121D02*
X105835555Y-92046434D01*
X105835555Y-92046434D02*
X105916367Y-92019497D01*
X105916367Y-92019497D02*
X105970242Y-92019497D01*
X105970242Y-92019497D02*
X106051054Y-92046434D01*
X106051054Y-92046434D02*
X106185741Y-92181121D01*
X106185741Y-92181121D02*
X106212679Y-92261933D01*
X106212679Y-92261933D02*
X106212679Y-92315808D01*
X106212679Y-92315808D02*
X106185741Y-92396620D01*
X106185741Y-92396620D02*
X106051054Y-92531307D01*
X106051054Y-92531307D02*
X105970242Y-92558245D01*
X105970242Y-92558245D02*
X105916367Y-92558245D01*
X104623372Y-77641494D02*
X104542560Y-77668431D01*
X104542560Y-77668431D02*
X104461748Y-77749243D01*
X104461748Y-77749243D02*
X104407873Y-77856993D01*
X104407873Y-77856993D02*
X104407873Y-77964742D01*
X104407873Y-77964742D02*
X104434810Y-78045555D01*
X104434810Y-78045555D02*
X104515623Y-78180242D01*
X104515623Y-78180242D02*
X104596435Y-78261054D01*
X104596435Y-78261054D02*
X104731122Y-78341866D01*
X104731122Y-78341866D02*
X104811934Y-78368803D01*
X104811934Y-78368803D02*
X104919684Y-78368803D01*
X104919684Y-78368803D02*
X105027433Y-78314929D01*
X105027433Y-78314929D02*
X105081308Y-78261054D01*
X105081308Y-78261054D02*
X105135183Y-78153304D01*
X105135183Y-78153304D02*
X105135183Y-78099429D01*
X105135183Y-78099429D02*
X104946621Y-77910868D01*
X104946621Y-77910868D02*
X104838871Y-78018617D01*
X105431494Y-77910868D02*
X104865809Y-77345182D01*
X104865809Y-77345182D02*
X105081308Y-77129683D01*
X105081308Y-77129683D02*
X105162120Y-77102746D01*
X105162120Y-77102746D02*
X105215995Y-77102746D01*
X105215995Y-77102746D02*
X105296807Y-77129683D01*
X105296807Y-77129683D02*
X105377619Y-77210495D01*
X105377619Y-77210495D02*
X105404557Y-77291307D01*
X105404557Y-77291307D02*
X105404557Y-77345182D01*
X105404557Y-77345182D02*
X105377619Y-77425994D01*
X105377619Y-77425994D02*
X105162120Y-77641494D01*
X105539244Y-76671747D02*
X105593119Y-76617872D01*
X105593119Y-76617872D02*
X105673931Y-76590935D01*
X105673931Y-76590935D02*
X105727806Y-76590935D01*
X105727806Y-76590935D02*
X105808618Y-76617872D01*
X105808618Y-76617872D02*
X105943305Y-76698685D01*
X105943305Y-76698685D02*
X106077992Y-76833372D01*
X106077992Y-76833372D02*
X106158804Y-76968059D01*
X106158804Y-76968059D02*
X106185741Y-77048871D01*
X106185741Y-77048871D02*
X106185741Y-77102746D01*
X106185741Y-77102746D02*
X106158804Y-77183558D01*
X106158804Y-77183558D02*
X106104929Y-77237433D01*
X106104929Y-77237433D02*
X106024117Y-77264370D01*
X106024117Y-77264370D02*
X105970242Y-77264370D01*
X105970242Y-77264370D02*
X105889430Y-77237433D01*
X105889430Y-77237433D02*
X105754743Y-77156620D01*
X105754743Y-77156620D02*
X105620056Y-77021933D01*
X105620056Y-77021933D02*
X105539244Y-76887246D01*
X105539244Y-76887246D02*
X105512306Y-76806434D01*
X105512306Y-76806434D02*
X105512306Y-76752559D01*
X105512306Y-76752559D02*
X105539244Y-76671747D01*
X104623372Y-87801494D02*
X104542560Y-87828431D01*
X104542560Y-87828431D02*
X104461748Y-87909243D01*
X104461748Y-87909243D02*
X104407873Y-88016993D01*
X104407873Y-88016993D02*
X104407873Y-88124742D01*
X104407873Y-88124742D02*
X104434810Y-88205555D01*
X104434810Y-88205555D02*
X104515623Y-88340242D01*
X104515623Y-88340242D02*
X104596435Y-88421054D01*
X104596435Y-88421054D02*
X104731122Y-88501866D01*
X104731122Y-88501866D02*
X104811934Y-88528803D01*
X104811934Y-88528803D02*
X104919684Y-88528803D01*
X104919684Y-88528803D02*
X105027433Y-88474929D01*
X105027433Y-88474929D02*
X105081308Y-88421054D01*
X105081308Y-88421054D02*
X105135183Y-88313304D01*
X105135183Y-88313304D02*
X105135183Y-88259429D01*
X105135183Y-88259429D02*
X104946621Y-88070868D01*
X104946621Y-88070868D02*
X104838871Y-88178617D01*
X105431494Y-88070868D02*
X104865809Y-87505182D01*
X104865809Y-87505182D02*
X105081308Y-87289683D01*
X105081308Y-87289683D02*
X105162120Y-87262746D01*
X105162120Y-87262746D02*
X105215995Y-87262746D01*
X105215995Y-87262746D02*
X105296807Y-87289683D01*
X105296807Y-87289683D02*
X105377619Y-87370495D01*
X105377619Y-87370495D02*
X105404557Y-87451307D01*
X105404557Y-87451307D02*
X105404557Y-87505182D01*
X105404557Y-87505182D02*
X105377619Y-87585994D01*
X105377619Y-87585994D02*
X105162120Y-87801494D01*
X105377619Y-86993372D02*
X105727806Y-86643185D01*
X105727806Y-86643185D02*
X105754743Y-87047246D01*
X105754743Y-87047246D02*
X105835555Y-86966434D01*
X105835555Y-86966434D02*
X105916367Y-86939497D01*
X105916367Y-86939497D02*
X105970242Y-86939497D01*
X105970242Y-86939497D02*
X106051054Y-86966434D01*
X106051054Y-86966434D02*
X106185741Y-87101121D01*
X106185741Y-87101121D02*
X106212679Y-87181933D01*
X106212679Y-87181933D02*
X106212679Y-87235808D01*
X106212679Y-87235808D02*
X106185741Y-87316620D01*
X106185741Y-87316620D02*
X106024117Y-87478245D01*
X106024117Y-87478245D02*
X105943305Y-87505182D01*
X105943305Y-87505182D02*
X105889430Y-87505182D01*
X104596435Y-120848431D02*
X104515623Y-120875368D01*
X104515623Y-120875368D02*
X104434811Y-120956180D01*
X104434811Y-120956180D02*
X104380936Y-121063930D01*
X104380936Y-121063930D02*
X104380936Y-121171680D01*
X104380936Y-121171680D02*
X104407873Y-121252492D01*
X104407873Y-121252492D02*
X104488685Y-121387179D01*
X104488685Y-121387179D02*
X104569498Y-121467991D01*
X104569498Y-121467991D02*
X104704185Y-121548803D01*
X104704185Y-121548803D02*
X104784997Y-121575741D01*
X104784997Y-121575741D02*
X104892746Y-121575741D01*
X104892746Y-121575741D02*
X105000496Y-121521866D01*
X105000496Y-121521866D02*
X105054371Y-121467991D01*
X105054371Y-121467991D02*
X105108246Y-121360241D01*
X105108246Y-121360241D02*
X105108246Y-121306367D01*
X105108246Y-121306367D02*
X104919684Y-121117805D01*
X104919684Y-121117805D02*
X104811934Y-121225554D01*
X105404557Y-121117805D02*
X104838872Y-120552119D01*
X104838872Y-120552119D02*
X105727806Y-120794556D01*
X105727806Y-120794556D02*
X105162120Y-120228871D01*
X105997180Y-120525182D02*
X105431494Y-119959497D01*
X105431494Y-119959497D02*
X105566181Y-119824810D01*
X105566181Y-119824810D02*
X105673931Y-119770935D01*
X105673931Y-119770935D02*
X105781680Y-119770935D01*
X105781680Y-119770935D02*
X105862493Y-119797872D01*
X105862493Y-119797872D02*
X105997180Y-119878685D01*
X105997180Y-119878685D02*
X106077992Y-119959497D01*
X106077992Y-119959497D02*
X106158804Y-120094184D01*
X106158804Y-120094184D02*
X106185741Y-120174996D01*
X106185741Y-120174996D02*
X106185741Y-120282746D01*
X106185741Y-120282746D02*
X106131867Y-120390495D01*
X106131867Y-120390495D02*
X105997180Y-120525182D01*
X104596435Y-82748431D02*
X104515623Y-82775368D01*
X104515623Y-82775368D02*
X104434811Y-82856180D01*
X104434811Y-82856180D02*
X104380936Y-82963930D01*
X104380936Y-82963930D02*
X104380936Y-83071680D01*
X104380936Y-83071680D02*
X104407873Y-83152492D01*
X104407873Y-83152492D02*
X104488685Y-83287179D01*
X104488685Y-83287179D02*
X104569498Y-83367991D01*
X104569498Y-83367991D02*
X104704185Y-83448803D01*
X104704185Y-83448803D02*
X104784997Y-83475741D01*
X104784997Y-83475741D02*
X104892746Y-83475741D01*
X104892746Y-83475741D02*
X105000496Y-83421866D01*
X105000496Y-83421866D02*
X105054371Y-83367991D01*
X105054371Y-83367991D02*
X105108246Y-83260241D01*
X105108246Y-83260241D02*
X105108246Y-83206367D01*
X105108246Y-83206367D02*
X104919684Y-83017805D01*
X104919684Y-83017805D02*
X104811934Y-83125554D01*
X105404557Y-83017805D02*
X104838872Y-82452119D01*
X104838872Y-82452119D02*
X105727806Y-82694556D01*
X105727806Y-82694556D02*
X105162120Y-82128871D01*
X105997180Y-82425182D02*
X105431494Y-81859497D01*
X105431494Y-81859497D02*
X105566181Y-81724810D01*
X105566181Y-81724810D02*
X105673931Y-81670935D01*
X105673931Y-81670935D02*
X105781680Y-81670935D01*
X105781680Y-81670935D02*
X105862493Y-81697872D01*
X105862493Y-81697872D02*
X105997180Y-81778685D01*
X105997180Y-81778685D02*
X106077992Y-81859497D01*
X106077992Y-81859497D02*
X106158804Y-81994184D01*
X106158804Y-81994184D02*
X106185741Y-82074996D01*
X106185741Y-82074996D02*
X106185741Y-82182746D01*
X106185741Y-82182746D02*
X106131867Y-82290495D01*
X106131867Y-82290495D02*
X105997180Y-82425182D01*
X130207998Y-113470868D02*
X130127185Y-113497805D01*
X130127185Y-113497805D02*
X130046373Y-113578618D01*
X130046373Y-113578618D02*
X129992498Y-113686367D01*
X129992498Y-113686367D02*
X129992498Y-113794117D01*
X129992498Y-113794117D02*
X130019436Y-113874929D01*
X130019436Y-113874929D02*
X130100248Y-114009616D01*
X130100248Y-114009616D02*
X130181060Y-114090428D01*
X130181060Y-114090428D02*
X130315747Y-114171241D01*
X130315747Y-114171241D02*
X130396560Y-114198178D01*
X130396560Y-114198178D02*
X130504309Y-114198178D01*
X130504309Y-114198178D02*
X130612059Y-114144303D01*
X130612059Y-114144303D02*
X130665934Y-114090428D01*
X130665934Y-114090428D02*
X130719808Y-113982679D01*
X130719808Y-113982679D02*
X130719808Y-113928804D01*
X130719808Y-113928804D02*
X130531247Y-113740242D01*
X130531247Y-113740242D02*
X130423497Y-113847992D01*
X131016120Y-113740242D02*
X130450434Y-113174557D01*
X130450434Y-113174557D02*
X130665934Y-112959057D01*
X130665934Y-112959057D02*
X130746746Y-112932120D01*
X130746746Y-112932120D02*
X130800621Y-112932120D01*
X130800621Y-112932120D02*
X130881433Y-112959057D01*
X130881433Y-112959057D02*
X130962245Y-113039870D01*
X130962245Y-113039870D02*
X130989182Y-113120682D01*
X130989182Y-113120682D02*
X130989182Y-113174557D01*
X130989182Y-113174557D02*
X130962245Y-113255369D01*
X130962245Y-113255369D02*
X130746746Y-113470868D01*
X131043057Y-112689683D02*
X131043057Y-112635809D01*
X131043057Y-112635809D02*
X131069995Y-112554996D01*
X131069995Y-112554996D02*
X131204682Y-112420309D01*
X131204682Y-112420309D02*
X131285494Y-112393372D01*
X131285494Y-112393372D02*
X131339369Y-112393372D01*
X131339369Y-112393372D02*
X131420181Y-112420309D01*
X131420181Y-112420309D02*
X131474056Y-112474184D01*
X131474056Y-112474184D02*
X131527930Y-112581934D01*
X131527930Y-112581934D02*
X131527930Y-113228431D01*
X131527930Y-113228431D02*
X131878117Y-112878245D01*
X131662618Y-111962373D02*
X131716492Y-111908499D01*
X131716492Y-111908499D02*
X131797305Y-111881561D01*
X131797305Y-111881561D02*
X131851179Y-111881561D01*
X131851179Y-111881561D02*
X131931992Y-111908499D01*
X131931992Y-111908499D02*
X132066679Y-111989311D01*
X132066679Y-111989311D02*
X132201366Y-112123998D01*
X132201366Y-112123998D02*
X132282178Y-112258685D01*
X132282178Y-112258685D02*
X132309115Y-112339497D01*
X132309115Y-112339497D02*
X132309115Y-112393372D01*
X132309115Y-112393372D02*
X132282178Y-112474184D01*
X132282178Y-112474184D02*
X132228303Y-112528059D01*
X132228303Y-112528059D02*
X132147491Y-112554996D01*
X132147491Y-112554996D02*
X132093616Y-112554996D01*
X132093616Y-112554996D02*
X132012804Y-112528059D01*
X132012804Y-112528059D02*
X131878117Y-112447247D01*
X131878117Y-112447247D02*
X131743430Y-112312560D01*
X131743430Y-112312560D02*
X131662618Y-112177873D01*
X131662618Y-112177873D02*
X131635680Y-112097060D01*
X131635680Y-112097060D02*
X131635680Y-112043186D01*
X131635680Y-112043186D02*
X131662618Y-111962373D01*
X130207998Y-116010868D02*
X130127185Y-116037805D01*
X130127185Y-116037805D02*
X130046373Y-116118618D01*
X130046373Y-116118618D02*
X129992498Y-116226367D01*
X129992498Y-116226367D02*
X129992498Y-116334117D01*
X129992498Y-116334117D02*
X130019436Y-116414929D01*
X130019436Y-116414929D02*
X130100248Y-116549616D01*
X130100248Y-116549616D02*
X130181060Y-116630428D01*
X130181060Y-116630428D02*
X130315747Y-116711241D01*
X130315747Y-116711241D02*
X130396560Y-116738178D01*
X130396560Y-116738178D02*
X130504309Y-116738178D01*
X130504309Y-116738178D02*
X130612059Y-116684303D01*
X130612059Y-116684303D02*
X130665934Y-116630428D01*
X130665934Y-116630428D02*
X130719808Y-116522679D01*
X130719808Y-116522679D02*
X130719808Y-116468804D01*
X130719808Y-116468804D02*
X130531247Y-116280242D01*
X130531247Y-116280242D02*
X130423497Y-116387992D01*
X131016120Y-116280242D02*
X130450434Y-115714557D01*
X130450434Y-115714557D02*
X130665934Y-115499057D01*
X130665934Y-115499057D02*
X130746746Y-115472120D01*
X130746746Y-115472120D02*
X130800621Y-115472120D01*
X130800621Y-115472120D02*
X130881433Y-115499057D01*
X130881433Y-115499057D02*
X130962245Y-115579870D01*
X130962245Y-115579870D02*
X130989182Y-115660682D01*
X130989182Y-115660682D02*
X130989182Y-115714557D01*
X130989182Y-115714557D02*
X130962245Y-115795369D01*
X130962245Y-115795369D02*
X130746746Y-116010868D01*
X131878117Y-115418245D02*
X131554868Y-115741494D01*
X131716492Y-115579870D02*
X131150807Y-115014184D01*
X131150807Y-115014184D02*
X131177744Y-115148871D01*
X131177744Y-115148871D02*
X131177744Y-115256621D01*
X131177744Y-115256621D02*
X131150807Y-115337433D01*
X132147491Y-115148871D02*
X132255240Y-115041121D01*
X132255240Y-115041121D02*
X132282178Y-114960309D01*
X132282178Y-114960309D02*
X132282178Y-114906434D01*
X132282178Y-114906434D02*
X132255240Y-114771747D01*
X132255240Y-114771747D02*
X132174428Y-114637060D01*
X132174428Y-114637060D02*
X131958929Y-114421561D01*
X131958929Y-114421561D02*
X131878117Y-114394624D01*
X131878117Y-114394624D02*
X131824242Y-114394624D01*
X131824242Y-114394624D02*
X131743430Y-114421561D01*
X131743430Y-114421561D02*
X131635680Y-114529311D01*
X131635680Y-114529311D02*
X131608743Y-114610123D01*
X131608743Y-114610123D02*
X131608743Y-114663998D01*
X131608743Y-114663998D02*
X131635680Y-114744810D01*
X131635680Y-114744810D02*
X131770367Y-114879497D01*
X131770367Y-114879497D02*
X131851179Y-114906434D01*
X131851179Y-114906434D02*
X131905054Y-114906434D01*
X131905054Y-114906434D02*
X131985866Y-114879497D01*
X131985866Y-114879497D02*
X132093616Y-114771747D01*
X132093616Y-114771747D02*
X132120553Y-114690935D01*
X132120553Y-114690935D02*
X132120553Y-114637060D01*
X132120553Y-114637060D02*
X132093616Y-114556248D01*
X104523372Y-85261494D02*
X104442560Y-85288431D01*
X104442560Y-85288431D02*
X104361748Y-85369243D01*
X104361748Y-85369243D02*
X104307873Y-85476993D01*
X104307873Y-85476993D02*
X104307873Y-85584742D01*
X104307873Y-85584742D02*
X104334810Y-85665555D01*
X104334810Y-85665555D02*
X104415623Y-85800242D01*
X104415623Y-85800242D02*
X104496435Y-85881054D01*
X104496435Y-85881054D02*
X104631122Y-85961866D01*
X104631122Y-85961866D02*
X104711934Y-85988803D01*
X104711934Y-85988803D02*
X104819684Y-85988803D01*
X104819684Y-85988803D02*
X104927433Y-85934929D01*
X104927433Y-85934929D02*
X104981308Y-85881054D01*
X104981308Y-85881054D02*
X105035183Y-85773304D01*
X105035183Y-85773304D02*
X105035183Y-85719429D01*
X105035183Y-85719429D02*
X104846621Y-85530868D01*
X104846621Y-85530868D02*
X104738871Y-85638617D01*
X105331494Y-85530868D02*
X104765809Y-84965182D01*
X104765809Y-84965182D02*
X104981308Y-84749683D01*
X104981308Y-84749683D02*
X105062120Y-84722746D01*
X105062120Y-84722746D02*
X105115995Y-84722746D01*
X105115995Y-84722746D02*
X105196807Y-84749683D01*
X105196807Y-84749683D02*
X105277619Y-84830495D01*
X105277619Y-84830495D02*
X105304557Y-84911307D01*
X105304557Y-84911307D02*
X105304557Y-84965182D01*
X105304557Y-84965182D02*
X105277619Y-85045994D01*
X105277619Y-85045994D02*
X105062120Y-85261494D01*
X105358432Y-84480309D02*
X105358432Y-84426434D01*
X105358432Y-84426434D02*
X105385369Y-84345622D01*
X105385369Y-84345622D02*
X105520056Y-84210935D01*
X105520056Y-84210935D02*
X105600868Y-84183998D01*
X105600868Y-84183998D02*
X105654743Y-84183998D01*
X105654743Y-84183998D02*
X105735555Y-84210935D01*
X105735555Y-84210935D02*
X105789430Y-84264810D01*
X105789430Y-84264810D02*
X105843305Y-84372559D01*
X105843305Y-84372559D02*
X105843305Y-85019057D01*
X105843305Y-85019057D02*
X106193491Y-84668871D01*
X130207998Y-118550868D02*
X130127185Y-118577805D01*
X130127185Y-118577805D02*
X130046373Y-118658618D01*
X130046373Y-118658618D02*
X129992498Y-118766367D01*
X129992498Y-118766367D02*
X129992498Y-118874117D01*
X129992498Y-118874117D02*
X130019436Y-118954929D01*
X130019436Y-118954929D02*
X130100248Y-119089616D01*
X130100248Y-119089616D02*
X130181060Y-119170428D01*
X130181060Y-119170428D02*
X130315747Y-119251241D01*
X130315747Y-119251241D02*
X130396560Y-119278178D01*
X130396560Y-119278178D02*
X130504309Y-119278178D01*
X130504309Y-119278178D02*
X130612059Y-119224303D01*
X130612059Y-119224303D02*
X130665934Y-119170428D01*
X130665934Y-119170428D02*
X130719808Y-119062679D01*
X130719808Y-119062679D02*
X130719808Y-119008804D01*
X130719808Y-119008804D02*
X130531247Y-118820242D01*
X130531247Y-118820242D02*
X130423497Y-118927992D01*
X131016120Y-118820242D02*
X130450434Y-118254557D01*
X130450434Y-118254557D02*
X130665934Y-118039057D01*
X130665934Y-118039057D02*
X130746746Y-118012120D01*
X130746746Y-118012120D02*
X130800621Y-118012120D01*
X130800621Y-118012120D02*
X130881433Y-118039057D01*
X130881433Y-118039057D02*
X130962245Y-118119870D01*
X130962245Y-118119870D02*
X130989182Y-118200682D01*
X130989182Y-118200682D02*
X130989182Y-118254557D01*
X130989182Y-118254557D02*
X130962245Y-118335369D01*
X130962245Y-118335369D02*
X130746746Y-118550868D01*
X131878117Y-117958245D02*
X131554868Y-118281494D01*
X131716492Y-118119870D02*
X131150807Y-117554184D01*
X131150807Y-117554184D02*
X131177744Y-117688871D01*
X131177744Y-117688871D02*
X131177744Y-117796621D01*
X131177744Y-117796621D02*
X131150807Y-117877433D01*
X131878117Y-117311747D02*
X131797305Y-117338685D01*
X131797305Y-117338685D02*
X131743430Y-117338685D01*
X131743430Y-117338685D02*
X131662618Y-117311747D01*
X131662618Y-117311747D02*
X131635680Y-117284810D01*
X131635680Y-117284810D02*
X131608743Y-117203998D01*
X131608743Y-117203998D02*
X131608743Y-117150123D01*
X131608743Y-117150123D02*
X131635680Y-117069311D01*
X131635680Y-117069311D02*
X131743430Y-116961561D01*
X131743430Y-116961561D02*
X131824242Y-116934624D01*
X131824242Y-116934624D02*
X131878117Y-116934624D01*
X131878117Y-116934624D02*
X131958929Y-116961561D01*
X131958929Y-116961561D02*
X131985866Y-116988499D01*
X131985866Y-116988499D02*
X132012804Y-117069311D01*
X132012804Y-117069311D02*
X132012804Y-117123186D01*
X132012804Y-117123186D02*
X131985866Y-117203998D01*
X131985866Y-117203998D02*
X131878117Y-117311747D01*
X131878117Y-117311747D02*
X131851179Y-117392560D01*
X131851179Y-117392560D02*
X131851179Y-117446434D01*
X131851179Y-117446434D02*
X131878117Y-117527247D01*
X131878117Y-117527247D02*
X131985866Y-117634996D01*
X131985866Y-117634996D02*
X132066679Y-117661934D01*
X132066679Y-117661934D02*
X132120553Y-117661934D01*
X132120553Y-117661934D02*
X132201366Y-117634996D01*
X132201366Y-117634996D02*
X132309115Y-117527247D01*
X132309115Y-117527247D02*
X132336053Y-117446434D01*
X132336053Y-117446434D02*
X132336053Y-117392560D01*
X132336053Y-117392560D02*
X132309115Y-117311747D01*
X132309115Y-117311747D02*
X132201366Y-117203998D01*
X132201366Y-117203998D02*
X132120553Y-117177060D01*
X132120553Y-117177060D02*
X132066679Y-117177060D01*
X132066679Y-117177060D02*
X131985866Y-117203998D01*
X104623372Y-97961494D02*
X104542560Y-97988431D01*
X104542560Y-97988431D02*
X104461748Y-98069243D01*
X104461748Y-98069243D02*
X104407873Y-98176993D01*
X104407873Y-98176993D02*
X104407873Y-98284742D01*
X104407873Y-98284742D02*
X104434810Y-98365555D01*
X104434810Y-98365555D02*
X104515623Y-98500242D01*
X104515623Y-98500242D02*
X104596435Y-98581054D01*
X104596435Y-98581054D02*
X104731122Y-98661866D01*
X104731122Y-98661866D02*
X104811934Y-98688803D01*
X104811934Y-98688803D02*
X104919684Y-98688803D01*
X104919684Y-98688803D02*
X105027433Y-98634929D01*
X105027433Y-98634929D02*
X105081308Y-98581054D01*
X105081308Y-98581054D02*
X105135183Y-98473304D01*
X105135183Y-98473304D02*
X105135183Y-98419429D01*
X105135183Y-98419429D02*
X104946621Y-98230868D01*
X104946621Y-98230868D02*
X104838871Y-98338617D01*
X105431494Y-98230868D02*
X104865809Y-97665182D01*
X104865809Y-97665182D02*
X105081308Y-97449683D01*
X105081308Y-97449683D02*
X105162120Y-97422746D01*
X105162120Y-97422746D02*
X105215995Y-97422746D01*
X105215995Y-97422746D02*
X105296807Y-97449683D01*
X105296807Y-97449683D02*
X105377619Y-97530495D01*
X105377619Y-97530495D02*
X105404557Y-97611307D01*
X105404557Y-97611307D02*
X105404557Y-97665182D01*
X105404557Y-97665182D02*
X105377619Y-97745994D01*
X105377619Y-97745994D02*
X105162120Y-97961494D01*
X105673931Y-96857060D02*
X105566181Y-96964810D01*
X105566181Y-96964810D02*
X105539244Y-97045622D01*
X105539244Y-97045622D02*
X105539244Y-97099497D01*
X105539244Y-97099497D02*
X105566181Y-97234184D01*
X105566181Y-97234184D02*
X105646993Y-97368871D01*
X105646993Y-97368871D02*
X105862493Y-97584370D01*
X105862493Y-97584370D02*
X105943305Y-97611307D01*
X105943305Y-97611307D02*
X105997180Y-97611307D01*
X105997180Y-97611307D02*
X106077992Y-97584370D01*
X106077992Y-97584370D02*
X106185741Y-97476620D01*
X106185741Y-97476620D02*
X106212679Y-97395808D01*
X106212679Y-97395808D02*
X106212679Y-97341933D01*
X106212679Y-97341933D02*
X106185741Y-97261121D01*
X106185741Y-97261121D02*
X106051054Y-97126434D01*
X106051054Y-97126434D02*
X105970242Y-97099497D01*
X105970242Y-97099497D02*
X105916367Y-97099497D01*
X105916367Y-97099497D02*
X105835555Y-97126434D01*
X105835555Y-97126434D02*
X105727806Y-97234184D01*
X105727806Y-97234184D02*
X105700868Y-97314996D01*
X105700868Y-97314996D02*
X105700868Y-97368871D01*
X105700868Y-97368871D02*
X105727806Y-97449683D01*
X130207998Y-110940868D02*
X130127185Y-110967805D01*
X130127185Y-110967805D02*
X130046373Y-111048618D01*
X130046373Y-111048618D02*
X129992498Y-111156367D01*
X129992498Y-111156367D02*
X129992498Y-111264117D01*
X129992498Y-111264117D02*
X130019436Y-111344929D01*
X130019436Y-111344929D02*
X130100248Y-111479616D01*
X130100248Y-111479616D02*
X130181060Y-111560428D01*
X130181060Y-111560428D02*
X130315747Y-111641241D01*
X130315747Y-111641241D02*
X130396560Y-111668178D01*
X130396560Y-111668178D02*
X130504309Y-111668178D01*
X130504309Y-111668178D02*
X130612059Y-111614303D01*
X130612059Y-111614303D02*
X130665934Y-111560428D01*
X130665934Y-111560428D02*
X130719808Y-111452679D01*
X130719808Y-111452679D02*
X130719808Y-111398804D01*
X130719808Y-111398804D02*
X130531247Y-111210242D01*
X130531247Y-111210242D02*
X130423497Y-111317992D01*
X131016120Y-111210242D02*
X130450434Y-110644557D01*
X130450434Y-110644557D02*
X130665934Y-110429057D01*
X130665934Y-110429057D02*
X130746746Y-110402120D01*
X130746746Y-110402120D02*
X130800621Y-110402120D01*
X130800621Y-110402120D02*
X130881433Y-110429057D01*
X130881433Y-110429057D02*
X130962245Y-110509870D01*
X130962245Y-110509870D02*
X130989182Y-110590682D01*
X130989182Y-110590682D02*
X130989182Y-110644557D01*
X130989182Y-110644557D02*
X130962245Y-110725369D01*
X130962245Y-110725369D02*
X130746746Y-110940868D01*
X131043057Y-110159683D02*
X131043057Y-110105809D01*
X131043057Y-110105809D02*
X131069995Y-110024996D01*
X131069995Y-110024996D02*
X131204682Y-109890309D01*
X131204682Y-109890309D02*
X131285494Y-109863372D01*
X131285494Y-109863372D02*
X131339369Y-109863372D01*
X131339369Y-109863372D02*
X131420181Y-109890309D01*
X131420181Y-109890309D02*
X131474056Y-109944184D01*
X131474056Y-109944184D02*
X131527930Y-110051934D01*
X131527930Y-110051934D02*
X131527930Y-110698431D01*
X131527930Y-110698431D02*
X131878117Y-110348245D01*
X132416865Y-109809497D02*
X132093616Y-110132746D01*
X132255240Y-109971121D02*
X131689555Y-109405436D01*
X131689555Y-109405436D02*
X131716492Y-109540123D01*
X131716492Y-109540123D02*
X131716492Y-109647873D01*
X131716492Y-109647873D02*
X131689555Y-109728685D01*
X130207998Y-105850868D02*
X130127185Y-105877805D01*
X130127185Y-105877805D02*
X130046373Y-105958618D01*
X130046373Y-105958618D02*
X129992498Y-106066367D01*
X129992498Y-106066367D02*
X129992498Y-106174117D01*
X129992498Y-106174117D02*
X130019436Y-106254929D01*
X130019436Y-106254929D02*
X130100248Y-106389616D01*
X130100248Y-106389616D02*
X130181060Y-106470428D01*
X130181060Y-106470428D02*
X130315747Y-106551241D01*
X130315747Y-106551241D02*
X130396560Y-106578178D01*
X130396560Y-106578178D02*
X130504309Y-106578178D01*
X130504309Y-106578178D02*
X130612059Y-106524303D01*
X130612059Y-106524303D02*
X130665934Y-106470428D01*
X130665934Y-106470428D02*
X130719808Y-106362679D01*
X130719808Y-106362679D02*
X130719808Y-106308804D01*
X130719808Y-106308804D02*
X130531247Y-106120242D01*
X130531247Y-106120242D02*
X130423497Y-106227992D01*
X131016120Y-106120242D02*
X130450434Y-105554557D01*
X130450434Y-105554557D02*
X130665934Y-105339057D01*
X130665934Y-105339057D02*
X130746746Y-105312120D01*
X130746746Y-105312120D02*
X130800621Y-105312120D01*
X130800621Y-105312120D02*
X130881433Y-105339057D01*
X130881433Y-105339057D02*
X130962245Y-105419870D01*
X130962245Y-105419870D02*
X130989182Y-105500682D01*
X130989182Y-105500682D02*
X130989182Y-105554557D01*
X130989182Y-105554557D02*
X130962245Y-105635369D01*
X130962245Y-105635369D02*
X130746746Y-105850868D01*
X131043057Y-105069683D02*
X131043057Y-105015809D01*
X131043057Y-105015809D02*
X131069995Y-104934996D01*
X131069995Y-104934996D02*
X131204682Y-104800309D01*
X131204682Y-104800309D02*
X131285494Y-104773372D01*
X131285494Y-104773372D02*
X131339369Y-104773372D01*
X131339369Y-104773372D02*
X131420181Y-104800309D01*
X131420181Y-104800309D02*
X131474056Y-104854184D01*
X131474056Y-104854184D02*
X131527930Y-104961934D01*
X131527930Y-104961934D02*
X131527930Y-105608431D01*
X131527930Y-105608431D02*
X131878117Y-105258245D01*
X131581805Y-104530935D02*
X131581805Y-104477060D01*
X131581805Y-104477060D02*
X131608743Y-104396248D01*
X131608743Y-104396248D02*
X131743430Y-104261561D01*
X131743430Y-104261561D02*
X131824242Y-104234624D01*
X131824242Y-104234624D02*
X131878117Y-104234624D01*
X131878117Y-104234624D02*
X131958929Y-104261561D01*
X131958929Y-104261561D02*
X132012804Y-104315436D01*
X132012804Y-104315436D02*
X132066679Y-104423186D01*
X132066679Y-104423186D02*
X132066679Y-105069683D01*
X132066679Y-105069683D02*
X132416865Y-104719497D01*
X104596435Y-108148431D02*
X104515623Y-108175368D01*
X104515623Y-108175368D02*
X104434811Y-108256180D01*
X104434811Y-108256180D02*
X104380936Y-108363930D01*
X104380936Y-108363930D02*
X104380936Y-108471680D01*
X104380936Y-108471680D02*
X104407873Y-108552492D01*
X104407873Y-108552492D02*
X104488685Y-108687179D01*
X104488685Y-108687179D02*
X104569498Y-108767991D01*
X104569498Y-108767991D02*
X104704185Y-108848803D01*
X104704185Y-108848803D02*
X104784997Y-108875741D01*
X104784997Y-108875741D02*
X104892746Y-108875741D01*
X104892746Y-108875741D02*
X105000496Y-108821866D01*
X105000496Y-108821866D02*
X105054371Y-108767991D01*
X105054371Y-108767991D02*
X105108246Y-108660241D01*
X105108246Y-108660241D02*
X105108246Y-108606367D01*
X105108246Y-108606367D02*
X104919684Y-108417805D01*
X104919684Y-108417805D02*
X104811934Y-108525554D01*
X105404557Y-108417805D02*
X104838872Y-107852119D01*
X104838872Y-107852119D02*
X105727806Y-108094556D01*
X105727806Y-108094556D02*
X105162120Y-107528871D01*
X105997180Y-107825182D02*
X105431494Y-107259497D01*
X105431494Y-107259497D02*
X105566181Y-107124810D01*
X105566181Y-107124810D02*
X105673931Y-107070935D01*
X105673931Y-107070935D02*
X105781680Y-107070935D01*
X105781680Y-107070935D02*
X105862493Y-107097872D01*
X105862493Y-107097872D02*
X105997180Y-107178685D01*
X105997180Y-107178685D02*
X106077992Y-107259497D01*
X106077992Y-107259497D02*
X106158804Y-107394184D01*
X106158804Y-107394184D02*
X106185741Y-107474996D01*
X106185741Y-107474996D02*
X106185741Y-107582746D01*
X106185741Y-107582746D02*
X106131867Y-107690495D01*
X106131867Y-107690495D02*
X105997180Y-107825182D01*
X104053998Y-123630868D02*
X103973185Y-123657805D01*
X103973185Y-123657805D02*
X103892373Y-123738618D01*
X103892373Y-123738618D02*
X103838498Y-123846367D01*
X103838498Y-123846367D02*
X103838498Y-123954117D01*
X103838498Y-123954117D02*
X103865436Y-124034929D01*
X103865436Y-124034929D02*
X103946248Y-124169616D01*
X103946248Y-124169616D02*
X104027060Y-124250428D01*
X104027060Y-124250428D02*
X104161747Y-124331241D01*
X104161747Y-124331241D02*
X104242560Y-124358178D01*
X104242560Y-124358178D02*
X104350309Y-124358178D01*
X104350309Y-124358178D02*
X104458059Y-124304303D01*
X104458059Y-124304303D02*
X104511934Y-124250428D01*
X104511934Y-124250428D02*
X104565808Y-124142679D01*
X104565808Y-124142679D02*
X104565808Y-124088804D01*
X104565808Y-124088804D02*
X104377247Y-123900242D01*
X104377247Y-123900242D02*
X104269497Y-124007992D01*
X104862120Y-123900242D02*
X104296434Y-123334557D01*
X104296434Y-123334557D02*
X104511934Y-123119057D01*
X104511934Y-123119057D02*
X104592746Y-123092120D01*
X104592746Y-123092120D02*
X104646621Y-123092120D01*
X104646621Y-123092120D02*
X104727433Y-123119057D01*
X104727433Y-123119057D02*
X104808245Y-123199870D01*
X104808245Y-123199870D02*
X104835182Y-123280682D01*
X104835182Y-123280682D02*
X104835182Y-123334557D01*
X104835182Y-123334557D02*
X104808245Y-123415369D01*
X104808245Y-123415369D02*
X104592746Y-123630868D01*
X105724117Y-123038245D02*
X105400868Y-123361494D01*
X105562492Y-123199870D02*
X104996807Y-122634184D01*
X104996807Y-122634184D02*
X105023744Y-122768871D01*
X105023744Y-122768871D02*
X105023744Y-122876621D01*
X105023744Y-122876621D02*
X104996807Y-122957433D01*
X105831866Y-122176248D02*
X106208990Y-122553372D01*
X105481680Y-122095436D02*
X105751054Y-122634184D01*
X105751054Y-122634184D02*
X106101240Y-122283998D01*
X130030749Y-80720242D02*
X130784996Y-81097366D01*
X130784996Y-81097366D02*
X130407873Y-80343118D01*
X131108245Y-80720242D02*
X131215995Y-80666367D01*
X131215995Y-80666367D02*
X131350682Y-80531680D01*
X131350682Y-80531680D02*
X131377619Y-80450868D01*
X131377619Y-80450868D02*
X131377619Y-80396993D01*
X131377619Y-80396993D02*
X131350682Y-80316181D01*
X131350682Y-80316181D02*
X131296807Y-80262306D01*
X131296807Y-80262306D02*
X131215995Y-80235369D01*
X131215995Y-80235369D02*
X131162120Y-80235369D01*
X131162120Y-80235369D02*
X131081308Y-80262306D01*
X131081308Y-80262306D02*
X130946621Y-80343118D01*
X130946621Y-80343118D02*
X130865808Y-80370056D01*
X130865808Y-80370056D02*
X130811934Y-80370056D01*
X130811934Y-80370056D02*
X130731121Y-80343118D01*
X130731121Y-80343118D02*
X130677247Y-80289244D01*
X130677247Y-80289244D02*
X130650309Y-80208431D01*
X130650309Y-80208431D02*
X130650309Y-80154557D01*
X130650309Y-80154557D02*
X130677247Y-80073744D01*
X130677247Y-80073744D02*
X130811934Y-79939057D01*
X130811934Y-79939057D02*
X130919683Y-79885183D01*
X131539244Y-79804370D02*
X131808618Y-80073744D01*
X131054370Y-79696621D02*
X131539244Y-79804370D01*
X131539244Y-79804370D02*
X131431494Y-79319497D01*
X132131866Y-79696621D02*
X132239616Y-79642746D01*
X132239616Y-79642746D02*
X132374303Y-79508059D01*
X132374303Y-79508059D02*
X132401240Y-79427247D01*
X132401240Y-79427247D02*
X132401240Y-79373372D01*
X132401240Y-79373372D02*
X132374303Y-79292560D01*
X132374303Y-79292560D02*
X132320428Y-79238685D01*
X132320428Y-79238685D02*
X132239616Y-79211748D01*
X132239616Y-79211748D02*
X132185741Y-79211748D01*
X132185741Y-79211748D02*
X132104929Y-79238685D01*
X132104929Y-79238685D02*
X131970242Y-79319497D01*
X131970242Y-79319497D02*
X131889430Y-79346435D01*
X131889430Y-79346435D02*
X131835555Y-79346435D01*
X131835555Y-79346435D02*
X131754743Y-79319497D01*
X131754743Y-79319497D02*
X131700868Y-79265622D01*
X131700868Y-79265622D02*
X131673930Y-79184810D01*
X131673930Y-79184810D02*
X131673930Y-79130935D01*
X131673930Y-79130935D02*
X131700868Y-79050123D01*
X131700868Y-79050123D02*
X131835555Y-78915436D01*
X131835555Y-78915436D02*
X131943304Y-78861561D01*
X103953998Y-116010868D02*
X103873185Y-116037805D01*
X103873185Y-116037805D02*
X103792373Y-116118618D01*
X103792373Y-116118618D02*
X103738498Y-116226367D01*
X103738498Y-116226367D02*
X103738498Y-116334117D01*
X103738498Y-116334117D02*
X103765436Y-116414929D01*
X103765436Y-116414929D02*
X103846248Y-116549616D01*
X103846248Y-116549616D02*
X103927060Y-116630428D01*
X103927060Y-116630428D02*
X104061747Y-116711241D01*
X104061747Y-116711241D02*
X104142560Y-116738178D01*
X104142560Y-116738178D02*
X104250309Y-116738178D01*
X104250309Y-116738178D02*
X104358059Y-116684303D01*
X104358059Y-116684303D02*
X104411934Y-116630428D01*
X104411934Y-116630428D02*
X104465808Y-116522679D01*
X104465808Y-116522679D02*
X104465808Y-116468804D01*
X104465808Y-116468804D02*
X104277247Y-116280242D01*
X104277247Y-116280242D02*
X104169497Y-116387992D01*
X104762120Y-116280242D02*
X104196434Y-115714557D01*
X104196434Y-115714557D02*
X104411934Y-115499057D01*
X104411934Y-115499057D02*
X104492746Y-115472120D01*
X104492746Y-115472120D02*
X104546621Y-115472120D01*
X104546621Y-115472120D02*
X104627433Y-115499057D01*
X104627433Y-115499057D02*
X104708245Y-115579870D01*
X104708245Y-115579870D02*
X104735182Y-115660682D01*
X104735182Y-115660682D02*
X104735182Y-115714557D01*
X104735182Y-115714557D02*
X104708245Y-115795369D01*
X104708245Y-115795369D02*
X104492746Y-116010868D01*
X105624117Y-115418245D02*
X105300868Y-115741494D01*
X105462492Y-115579870D02*
X104896807Y-115014184D01*
X104896807Y-115014184D02*
X104923744Y-115148871D01*
X104923744Y-115148871D02*
X104923744Y-115256621D01*
X104923744Y-115256621D02*
X104896807Y-115337433D01*
X105327805Y-114690935D02*
X105327805Y-114637060D01*
X105327805Y-114637060D02*
X105354743Y-114556248D01*
X105354743Y-114556248D02*
X105489430Y-114421561D01*
X105489430Y-114421561D02*
X105570242Y-114394624D01*
X105570242Y-114394624D02*
X105624117Y-114394624D01*
X105624117Y-114394624D02*
X105704929Y-114421561D01*
X105704929Y-114421561D02*
X105758804Y-114475436D01*
X105758804Y-114475436D02*
X105812679Y-114583186D01*
X105812679Y-114583186D02*
X105812679Y-115229683D01*
X105812679Y-115229683D02*
X106162865Y-114879497D01*
X104523372Y-80171494D02*
X104442560Y-80198431D01*
X104442560Y-80198431D02*
X104361748Y-80279243D01*
X104361748Y-80279243D02*
X104307873Y-80386993D01*
X104307873Y-80386993D02*
X104307873Y-80494742D01*
X104307873Y-80494742D02*
X104334810Y-80575555D01*
X104334810Y-80575555D02*
X104415623Y-80710242D01*
X104415623Y-80710242D02*
X104496435Y-80791054D01*
X104496435Y-80791054D02*
X104631122Y-80871866D01*
X104631122Y-80871866D02*
X104711934Y-80898803D01*
X104711934Y-80898803D02*
X104819684Y-80898803D01*
X104819684Y-80898803D02*
X104927433Y-80844929D01*
X104927433Y-80844929D02*
X104981308Y-80791054D01*
X104981308Y-80791054D02*
X105035183Y-80683304D01*
X105035183Y-80683304D02*
X105035183Y-80629429D01*
X105035183Y-80629429D02*
X104846621Y-80440868D01*
X104846621Y-80440868D02*
X104738871Y-80548617D01*
X105331494Y-80440868D02*
X104765809Y-79875182D01*
X104765809Y-79875182D02*
X104981308Y-79659683D01*
X104981308Y-79659683D02*
X105062120Y-79632746D01*
X105062120Y-79632746D02*
X105115995Y-79632746D01*
X105115995Y-79632746D02*
X105196807Y-79659683D01*
X105196807Y-79659683D02*
X105277619Y-79740495D01*
X105277619Y-79740495D02*
X105304557Y-79821307D01*
X105304557Y-79821307D02*
X105304557Y-79875182D01*
X105304557Y-79875182D02*
X105277619Y-79955994D01*
X105277619Y-79955994D02*
X105062120Y-80171494D01*
X106193491Y-79578871D02*
X105870242Y-79902120D01*
X106031867Y-79740495D02*
X105466181Y-79174810D01*
X105466181Y-79174810D02*
X105493119Y-79309497D01*
X105493119Y-79309497D02*
X105493119Y-79417246D01*
X105493119Y-79417246D02*
X105466181Y-79498059D01*
X104099998Y-110930868D02*
X104019185Y-110957805D01*
X104019185Y-110957805D02*
X103938373Y-111038618D01*
X103938373Y-111038618D02*
X103884498Y-111146367D01*
X103884498Y-111146367D02*
X103884498Y-111254117D01*
X103884498Y-111254117D02*
X103911436Y-111334929D01*
X103911436Y-111334929D02*
X103992248Y-111469616D01*
X103992248Y-111469616D02*
X104073060Y-111550428D01*
X104073060Y-111550428D02*
X104207747Y-111631241D01*
X104207747Y-111631241D02*
X104288560Y-111658178D01*
X104288560Y-111658178D02*
X104396309Y-111658178D01*
X104396309Y-111658178D02*
X104504059Y-111604303D01*
X104504059Y-111604303D02*
X104557934Y-111550428D01*
X104557934Y-111550428D02*
X104611808Y-111442679D01*
X104611808Y-111442679D02*
X104611808Y-111388804D01*
X104611808Y-111388804D02*
X104423247Y-111200242D01*
X104423247Y-111200242D02*
X104315497Y-111307992D01*
X104908120Y-111200242D02*
X104342434Y-110634557D01*
X104342434Y-110634557D02*
X104557934Y-110419057D01*
X104557934Y-110419057D02*
X104638746Y-110392120D01*
X104638746Y-110392120D02*
X104692621Y-110392120D01*
X104692621Y-110392120D02*
X104773433Y-110419057D01*
X104773433Y-110419057D02*
X104854245Y-110499870D01*
X104854245Y-110499870D02*
X104881182Y-110580682D01*
X104881182Y-110580682D02*
X104881182Y-110634557D01*
X104881182Y-110634557D02*
X104854245Y-110715369D01*
X104854245Y-110715369D02*
X104638746Y-110930868D01*
X105770117Y-110338245D02*
X105446868Y-110661494D01*
X105608492Y-110499870D02*
X105042807Y-109934184D01*
X105042807Y-109934184D02*
X105069744Y-110068871D01*
X105069744Y-110068871D02*
X105069744Y-110176621D01*
X105069744Y-110176621D02*
X105042807Y-110257433D01*
X105554618Y-109422373D02*
X105608492Y-109368499D01*
X105608492Y-109368499D02*
X105689305Y-109341561D01*
X105689305Y-109341561D02*
X105743179Y-109341561D01*
X105743179Y-109341561D02*
X105823992Y-109368499D01*
X105823992Y-109368499D02*
X105958679Y-109449311D01*
X105958679Y-109449311D02*
X106093366Y-109583998D01*
X106093366Y-109583998D02*
X106174178Y-109718685D01*
X106174178Y-109718685D02*
X106201115Y-109799497D01*
X106201115Y-109799497D02*
X106201115Y-109853372D01*
X106201115Y-109853372D02*
X106174178Y-109934184D01*
X106174178Y-109934184D02*
X106120303Y-109988059D01*
X106120303Y-109988059D02*
X106039491Y-110014996D01*
X106039491Y-110014996D02*
X105985616Y-110014996D01*
X105985616Y-110014996D02*
X105904804Y-109988059D01*
X105904804Y-109988059D02*
X105770117Y-109907247D01*
X105770117Y-109907247D02*
X105635430Y-109772560D01*
X105635430Y-109772560D02*
X105554618Y-109637873D01*
X105554618Y-109637873D02*
X105527680Y-109557060D01*
X105527680Y-109557060D02*
X105527680Y-109503186D01*
X105527680Y-109503186D02*
X105554618Y-109422373D01*
X130948651Y-103593710D02*
X130490716Y-103512898D01*
X130625403Y-103916959D02*
X130059717Y-103351274D01*
X130059717Y-103351274D02*
X130275216Y-103135775D01*
X130275216Y-103135775D02*
X130356029Y-103108837D01*
X130356029Y-103108837D02*
X130409903Y-103108837D01*
X130409903Y-103108837D02*
X130490716Y-103135775D01*
X130490716Y-103135775D02*
X130571528Y-103216587D01*
X130571528Y-103216587D02*
X130598465Y-103297399D01*
X130598465Y-103297399D02*
X130598465Y-103351274D01*
X130598465Y-103351274D02*
X130571528Y-103432086D01*
X130571528Y-103432086D02*
X130356029Y-103647585D01*
X130625403Y-102785588D02*
X131083338Y-103243524D01*
X131083338Y-103243524D02*
X131164151Y-103270462D01*
X131164151Y-103270462D02*
X131218025Y-103270462D01*
X131218025Y-103270462D02*
X131298838Y-103243524D01*
X131298838Y-103243524D02*
X131406587Y-103135775D01*
X131406587Y-103135775D02*
X131433525Y-103054962D01*
X131433525Y-103054962D02*
X131433525Y-103001088D01*
X131433525Y-103001088D02*
X131406587Y-102920275D01*
X131406587Y-102920275D02*
X130948651Y-102462340D01*
X131783711Y-102758651D02*
X131218025Y-102192966D01*
X131218025Y-102192966D02*
X132106959Y-102435402D01*
X132106959Y-102435402D02*
X131541274Y-101869717D01*
X130207998Y-98240868D02*
X130127185Y-98267805D01*
X130127185Y-98267805D02*
X130046373Y-98348618D01*
X130046373Y-98348618D02*
X129992498Y-98456367D01*
X129992498Y-98456367D02*
X129992498Y-98564117D01*
X129992498Y-98564117D02*
X130019436Y-98644929D01*
X130019436Y-98644929D02*
X130100248Y-98779616D01*
X130100248Y-98779616D02*
X130181060Y-98860428D01*
X130181060Y-98860428D02*
X130315747Y-98941241D01*
X130315747Y-98941241D02*
X130396560Y-98968178D01*
X130396560Y-98968178D02*
X130504309Y-98968178D01*
X130504309Y-98968178D02*
X130612059Y-98914303D01*
X130612059Y-98914303D02*
X130665934Y-98860428D01*
X130665934Y-98860428D02*
X130719808Y-98752679D01*
X130719808Y-98752679D02*
X130719808Y-98698804D01*
X130719808Y-98698804D02*
X130531247Y-98510242D01*
X130531247Y-98510242D02*
X130423497Y-98617992D01*
X131016120Y-98510242D02*
X130450434Y-97944557D01*
X130450434Y-97944557D02*
X130665934Y-97729057D01*
X130665934Y-97729057D02*
X130746746Y-97702120D01*
X130746746Y-97702120D02*
X130800621Y-97702120D01*
X130800621Y-97702120D02*
X130881433Y-97729057D01*
X130881433Y-97729057D02*
X130962245Y-97809870D01*
X130962245Y-97809870D02*
X130989182Y-97890682D01*
X130989182Y-97890682D02*
X130989182Y-97944557D01*
X130989182Y-97944557D02*
X130962245Y-98025369D01*
X130962245Y-98025369D02*
X130746746Y-98240868D01*
X131043057Y-97459683D02*
X131043057Y-97405809D01*
X131043057Y-97405809D02*
X131069995Y-97324996D01*
X131069995Y-97324996D02*
X131204682Y-97190309D01*
X131204682Y-97190309D02*
X131285494Y-97163372D01*
X131285494Y-97163372D02*
X131339369Y-97163372D01*
X131339369Y-97163372D02*
X131420181Y-97190309D01*
X131420181Y-97190309D02*
X131474056Y-97244184D01*
X131474056Y-97244184D02*
X131527930Y-97351934D01*
X131527930Y-97351934D02*
X131527930Y-97998431D01*
X131527930Y-97998431D02*
X131878117Y-97648245D01*
X131500993Y-96893998D02*
X131878117Y-96516874D01*
X131878117Y-96516874D02*
X132201366Y-97324996D01*
X87229819Y-99036904D02*
X88039342Y-99036904D01*
X88039342Y-99036904D02*
X88134580Y-98989285D01*
X88134580Y-98989285D02*
X88182200Y-98941666D01*
X88182200Y-98941666D02*
X88229819Y-98846428D01*
X88229819Y-98846428D02*
X88229819Y-98655952D01*
X88229819Y-98655952D02*
X88182200Y-98560714D01*
X88182200Y-98560714D02*
X88134580Y-98513095D01*
X88134580Y-98513095D02*
X88039342Y-98465476D01*
X88039342Y-98465476D02*
X87229819Y-98465476D01*
X88229819Y-97465476D02*
X88229819Y-98036904D01*
X88229819Y-97751190D02*
X87229819Y-97751190D01*
X87229819Y-97751190D02*
X87372676Y-97846428D01*
X87372676Y-97846428D02*
X87467914Y-97941666D01*
X87467914Y-97941666D02*
X87515533Y-98036904D01*
X94529819Y-113441666D02*
X94053628Y-113774999D01*
X94529819Y-114013094D02*
X93529819Y-114013094D01*
X93529819Y-114013094D02*
X93529819Y-113632142D01*
X93529819Y-113632142D02*
X93577438Y-113536904D01*
X93577438Y-113536904D02*
X93625057Y-113489285D01*
X93625057Y-113489285D02*
X93720295Y-113441666D01*
X93720295Y-113441666D02*
X93863152Y-113441666D01*
X93863152Y-113441666D02*
X93958390Y-113489285D01*
X93958390Y-113489285D02*
X94006009Y-113536904D01*
X94006009Y-113536904D02*
X94053628Y-113632142D01*
X94053628Y-113632142D02*
X94053628Y-114013094D01*
X93625057Y-113060713D02*
X93577438Y-113013094D01*
X93577438Y-113013094D02*
X93529819Y-112917856D01*
X93529819Y-112917856D02*
X93529819Y-112679761D01*
X93529819Y-112679761D02*
X93577438Y-112584523D01*
X93577438Y-112584523D02*
X93625057Y-112536904D01*
X93625057Y-112536904D02*
X93720295Y-112489285D01*
X93720295Y-112489285D02*
X93815533Y-112489285D01*
X93815533Y-112489285D02*
X93958390Y-112536904D01*
X93958390Y-112536904D02*
X94529819Y-113108332D01*
X94529819Y-113108332D02*
X94529819Y-112489285D01*
X98529819Y-113441666D02*
X98053628Y-113774999D01*
X98529819Y-114013094D02*
X97529819Y-114013094D01*
X97529819Y-114013094D02*
X97529819Y-113632142D01*
X97529819Y-113632142D02*
X97577438Y-113536904D01*
X97577438Y-113536904D02*
X97625057Y-113489285D01*
X97625057Y-113489285D02*
X97720295Y-113441666D01*
X97720295Y-113441666D02*
X97863152Y-113441666D01*
X97863152Y-113441666D02*
X97958390Y-113489285D01*
X97958390Y-113489285D02*
X98006009Y-113536904D01*
X98006009Y-113536904D02*
X98053628Y-113632142D01*
X98053628Y-113632142D02*
X98053628Y-114013094D01*
X98529819Y-112489285D02*
X98529819Y-113060713D01*
X98529819Y-112774999D02*
X97529819Y-112774999D01*
X97529819Y-112774999D02*
X97672676Y-112870237D01*
X97672676Y-112870237D02*
X97767914Y-112965475D01*
X97767914Y-112965475D02*
X97815533Y-113060713D01*
X145122381Y-88234295D02*
X145122381Y-87434295D01*
X145122381Y-87434295D02*
X145389047Y-88005723D01*
X145389047Y-88005723D02*
X145655714Y-87434295D01*
X145655714Y-87434295D02*
X145655714Y-88234295D01*
X146036667Y-88234295D02*
X146036667Y-87434295D01*
X146493810Y-88234295D02*
X146150952Y-87777152D01*
X146493810Y-87434295D02*
X146036667Y-87891438D01*
X147255714Y-88234295D02*
X146798571Y-88234295D01*
X147027143Y-88234295D02*
X147027143Y-87434295D01*
X147027143Y-87434295D02*
X146950952Y-87548580D01*
X146950952Y-87548580D02*
X146874762Y-87624771D01*
X146874762Y-87624771D02*
X146798571Y-87662866D01*
X170559580Y-117642857D02*
X170607200Y-117690476D01*
X170607200Y-117690476D02*
X170654819Y-117833333D01*
X170654819Y-117833333D02*
X170654819Y-117928571D01*
X170654819Y-117928571D02*
X170607200Y-118071428D01*
X170607200Y-118071428D02*
X170511961Y-118166666D01*
X170511961Y-118166666D02*
X170416723Y-118214285D01*
X170416723Y-118214285D02*
X170226247Y-118261904D01*
X170226247Y-118261904D02*
X170083390Y-118261904D01*
X170083390Y-118261904D02*
X169892914Y-118214285D01*
X169892914Y-118214285D02*
X169797676Y-118166666D01*
X169797676Y-118166666D02*
X169702438Y-118071428D01*
X169702438Y-118071428D02*
X169654819Y-117928571D01*
X169654819Y-117928571D02*
X169654819Y-117833333D01*
X169654819Y-117833333D02*
X169702438Y-117690476D01*
X169702438Y-117690476D02*
X169750057Y-117642857D01*
X170654819Y-116690476D02*
X170654819Y-117261904D01*
X170654819Y-116976190D02*
X169654819Y-116976190D01*
X169654819Y-116976190D02*
X169797676Y-117071428D01*
X169797676Y-117071428D02*
X169892914Y-117166666D01*
X169892914Y-117166666D02*
X169940533Y-117261904D01*
X169654819Y-115785714D02*
X169654819Y-116261904D01*
X169654819Y-116261904D02*
X170131009Y-116309523D01*
X170131009Y-116309523D02*
X170083390Y-116261904D01*
X170083390Y-116261904D02*
X170035771Y-116166666D01*
X170035771Y-116166666D02*
X170035771Y-115928571D01*
X170035771Y-115928571D02*
X170083390Y-115833333D01*
X170083390Y-115833333D02*
X170131009Y-115785714D01*
X170131009Y-115785714D02*
X170226247Y-115738095D01*
X170226247Y-115738095D02*
X170464342Y-115738095D01*
X170464342Y-115738095D02*
X170559580Y-115785714D01*
X170559580Y-115785714D02*
X170607200Y-115833333D01*
X170607200Y-115833333D02*
X170654819Y-115928571D01*
X170654819Y-115928571D02*
X170654819Y-116166666D01*
X170654819Y-116166666D02*
X170607200Y-116261904D01*
X170607200Y-116261904D02*
X170559580Y-116309523D01*
X149559580Y-117642857D02*
X149607200Y-117690476D01*
X149607200Y-117690476D02*
X149654819Y-117833333D01*
X149654819Y-117833333D02*
X149654819Y-117928571D01*
X149654819Y-117928571D02*
X149607200Y-118071428D01*
X149607200Y-118071428D02*
X149511961Y-118166666D01*
X149511961Y-118166666D02*
X149416723Y-118214285D01*
X149416723Y-118214285D02*
X149226247Y-118261904D01*
X149226247Y-118261904D02*
X149083390Y-118261904D01*
X149083390Y-118261904D02*
X148892914Y-118214285D01*
X148892914Y-118214285D02*
X148797676Y-118166666D01*
X148797676Y-118166666D02*
X148702438Y-118071428D01*
X148702438Y-118071428D02*
X148654819Y-117928571D01*
X148654819Y-117928571D02*
X148654819Y-117833333D01*
X148654819Y-117833333D02*
X148702438Y-117690476D01*
X148702438Y-117690476D02*
X148750057Y-117642857D01*
X149654819Y-116690476D02*
X149654819Y-117261904D01*
X149654819Y-116976190D02*
X148654819Y-116976190D01*
X148654819Y-116976190D02*
X148797676Y-117071428D01*
X148797676Y-117071428D02*
X148892914Y-117166666D01*
X148892914Y-117166666D02*
X148940533Y-117261904D01*
X148988152Y-115833333D02*
X149654819Y-115833333D01*
X148607200Y-116071428D02*
X149321485Y-116309523D01*
X149321485Y-116309523D02*
X149321485Y-115690476D01*
X170559580Y-96642857D02*
X170607200Y-96690476D01*
X170607200Y-96690476D02*
X170654819Y-96833333D01*
X170654819Y-96833333D02*
X170654819Y-96928571D01*
X170654819Y-96928571D02*
X170607200Y-97071428D01*
X170607200Y-97071428D02*
X170511961Y-97166666D01*
X170511961Y-97166666D02*
X170416723Y-97214285D01*
X170416723Y-97214285D02*
X170226247Y-97261904D01*
X170226247Y-97261904D02*
X170083390Y-97261904D01*
X170083390Y-97261904D02*
X169892914Y-97214285D01*
X169892914Y-97214285D02*
X169797676Y-97166666D01*
X169797676Y-97166666D02*
X169702438Y-97071428D01*
X169702438Y-97071428D02*
X169654819Y-96928571D01*
X169654819Y-96928571D02*
X169654819Y-96833333D01*
X169654819Y-96833333D02*
X169702438Y-96690476D01*
X169702438Y-96690476D02*
X169750057Y-96642857D01*
X170654819Y-95690476D02*
X170654819Y-96261904D01*
X170654819Y-95976190D02*
X169654819Y-95976190D01*
X169654819Y-95976190D02*
X169797676Y-96071428D01*
X169797676Y-96071428D02*
X169892914Y-96166666D01*
X169892914Y-96166666D02*
X169940533Y-96261904D01*
X169654819Y-95357142D02*
X169654819Y-94738095D01*
X169654819Y-94738095D02*
X170035771Y-95071428D01*
X170035771Y-95071428D02*
X170035771Y-94928571D01*
X170035771Y-94928571D02*
X170083390Y-94833333D01*
X170083390Y-94833333D02*
X170131009Y-94785714D01*
X170131009Y-94785714D02*
X170226247Y-94738095D01*
X170226247Y-94738095D02*
X170464342Y-94738095D01*
X170464342Y-94738095D02*
X170559580Y-94785714D01*
X170559580Y-94785714D02*
X170607200Y-94833333D01*
X170607200Y-94833333D02*
X170654819Y-94928571D01*
X170654819Y-94928571D02*
X170654819Y-95214285D01*
X170654819Y-95214285D02*
X170607200Y-95309523D01*
X170607200Y-95309523D02*
X170559580Y-95357142D01*
X149559580Y-96680357D02*
X149607200Y-96727976D01*
X149607200Y-96727976D02*
X149654819Y-96870833D01*
X149654819Y-96870833D02*
X149654819Y-96966071D01*
X149654819Y-96966071D02*
X149607200Y-97108928D01*
X149607200Y-97108928D02*
X149511961Y-97204166D01*
X149511961Y-97204166D02*
X149416723Y-97251785D01*
X149416723Y-97251785D02*
X149226247Y-97299404D01*
X149226247Y-97299404D02*
X149083390Y-97299404D01*
X149083390Y-97299404D02*
X148892914Y-97251785D01*
X148892914Y-97251785D02*
X148797676Y-97204166D01*
X148797676Y-97204166D02*
X148702438Y-97108928D01*
X148702438Y-97108928D02*
X148654819Y-96966071D01*
X148654819Y-96966071D02*
X148654819Y-96870833D01*
X148654819Y-96870833D02*
X148702438Y-96727976D01*
X148702438Y-96727976D02*
X148750057Y-96680357D01*
X149654819Y-95727976D02*
X149654819Y-96299404D01*
X149654819Y-96013690D02*
X148654819Y-96013690D01*
X148654819Y-96013690D02*
X148797676Y-96108928D01*
X148797676Y-96108928D02*
X148892914Y-96204166D01*
X148892914Y-96204166D02*
X148940533Y-96299404D01*
X148750057Y-95347023D02*
X148702438Y-95299404D01*
X148702438Y-95299404D02*
X148654819Y-95204166D01*
X148654819Y-95204166D02*
X148654819Y-94966071D01*
X148654819Y-94966071D02*
X148702438Y-94870833D01*
X148702438Y-94870833D02*
X148750057Y-94823214D01*
X148750057Y-94823214D02*
X148845295Y-94775595D01*
X148845295Y-94775595D02*
X148940533Y-94775595D01*
X148940533Y-94775595D02*
X149083390Y-94823214D01*
X149083390Y-94823214D02*
X149654819Y-95394642D01*
X149654819Y-95394642D02*
X149654819Y-94775595D01*
X79154580Y-89955357D02*
X79202200Y-90002976D01*
X79202200Y-90002976D02*
X79249819Y-90145833D01*
X79249819Y-90145833D02*
X79249819Y-90241071D01*
X79249819Y-90241071D02*
X79202200Y-90383928D01*
X79202200Y-90383928D02*
X79106961Y-90479166D01*
X79106961Y-90479166D02*
X79011723Y-90526785D01*
X79011723Y-90526785D02*
X78821247Y-90574404D01*
X78821247Y-90574404D02*
X78678390Y-90574404D01*
X78678390Y-90574404D02*
X78487914Y-90526785D01*
X78487914Y-90526785D02*
X78392676Y-90479166D01*
X78392676Y-90479166D02*
X78297438Y-90383928D01*
X78297438Y-90383928D02*
X78249819Y-90241071D01*
X78249819Y-90241071D02*
X78249819Y-90145833D01*
X78249819Y-90145833D02*
X78297438Y-90002976D01*
X78297438Y-90002976D02*
X78345057Y-89955357D01*
X79249819Y-89002976D02*
X79249819Y-89574404D01*
X79249819Y-89288690D02*
X78249819Y-89288690D01*
X78249819Y-89288690D02*
X78392676Y-89383928D01*
X78392676Y-89383928D02*
X78487914Y-89479166D01*
X78487914Y-89479166D02*
X78535533Y-89574404D01*
X79249819Y-88050595D02*
X79249819Y-88622023D01*
X79249819Y-88336309D02*
X78249819Y-88336309D01*
X78249819Y-88336309D02*
X78392676Y-88431547D01*
X78392676Y-88431547D02*
X78487914Y-88526785D01*
X78487914Y-88526785D02*
X78535533Y-88622023D01*
X84154580Y-89955357D02*
X84202200Y-90002976D01*
X84202200Y-90002976D02*
X84249819Y-90145833D01*
X84249819Y-90145833D02*
X84249819Y-90241071D01*
X84249819Y-90241071D02*
X84202200Y-90383928D01*
X84202200Y-90383928D02*
X84106961Y-90479166D01*
X84106961Y-90479166D02*
X84011723Y-90526785D01*
X84011723Y-90526785D02*
X83821247Y-90574404D01*
X83821247Y-90574404D02*
X83678390Y-90574404D01*
X83678390Y-90574404D02*
X83487914Y-90526785D01*
X83487914Y-90526785D02*
X83392676Y-90479166D01*
X83392676Y-90479166D02*
X83297438Y-90383928D01*
X83297438Y-90383928D02*
X83249819Y-90241071D01*
X83249819Y-90241071D02*
X83249819Y-90145833D01*
X83249819Y-90145833D02*
X83297438Y-90002976D01*
X83297438Y-90002976D02*
X83345057Y-89955357D01*
X84249819Y-89002976D02*
X84249819Y-89574404D01*
X84249819Y-89288690D02*
X83249819Y-89288690D01*
X83249819Y-89288690D02*
X83392676Y-89383928D01*
X83392676Y-89383928D02*
X83487914Y-89479166D01*
X83487914Y-89479166D02*
X83535533Y-89574404D01*
X83249819Y-88383928D02*
X83249819Y-88288690D01*
X83249819Y-88288690D02*
X83297438Y-88193452D01*
X83297438Y-88193452D02*
X83345057Y-88145833D01*
X83345057Y-88145833D02*
X83440295Y-88098214D01*
X83440295Y-88098214D02*
X83630771Y-88050595D01*
X83630771Y-88050595D02*
X83868866Y-88050595D01*
X83868866Y-88050595D02*
X84059342Y-88098214D01*
X84059342Y-88098214D02*
X84154580Y-88145833D01*
X84154580Y-88145833D02*
X84202200Y-88193452D01*
X84202200Y-88193452D02*
X84249819Y-88288690D01*
X84249819Y-88288690D02*
X84249819Y-88383928D01*
X84249819Y-88383928D02*
X84202200Y-88479166D01*
X84202200Y-88479166D02*
X84154580Y-88526785D01*
X84154580Y-88526785D02*
X84059342Y-88574404D01*
X84059342Y-88574404D02*
X83868866Y-88622023D01*
X83868866Y-88622023D02*
X83630771Y-88622023D01*
X83630771Y-88622023D02*
X83440295Y-88574404D01*
X83440295Y-88574404D02*
X83345057Y-88526785D01*
X83345057Y-88526785D02*
X83297438Y-88479166D01*
X83297438Y-88479166D02*
X83249819Y-88383928D01*
X79154580Y-98479166D02*
X79202200Y-98526785D01*
X79202200Y-98526785D02*
X79249819Y-98669642D01*
X79249819Y-98669642D02*
X79249819Y-98764880D01*
X79249819Y-98764880D02*
X79202200Y-98907737D01*
X79202200Y-98907737D02*
X79106961Y-99002975D01*
X79106961Y-99002975D02*
X79011723Y-99050594D01*
X79011723Y-99050594D02*
X78821247Y-99098213D01*
X78821247Y-99098213D02*
X78678390Y-99098213D01*
X78678390Y-99098213D02*
X78487914Y-99050594D01*
X78487914Y-99050594D02*
X78392676Y-99002975D01*
X78392676Y-99002975D02*
X78297438Y-98907737D01*
X78297438Y-98907737D02*
X78249819Y-98764880D01*
X78249819Y-98764880D02*
X78249819Y-98669642D01*
X78249819Y-98669642D02*
X78297438Y-98526785D01*
X78297438Y-98526785D02*
X78345057Y-98479166D01*
X79249819Y-98002975D02*
X79249819Y-97812499D01*
X79249819Y-97812499D02*
X79202200Y-97717261D01*
X79202200Y-97717261D02*
X79154580Y-97669642D01*
X79154580Y-97669642D02*
X79011723Y-97574404D01*
X79011723Y-97574404D02*
X78821247Y-97526785D01*
X78821247Y-97526785D02*
X78440295Y-97526785D01*
X78440295Y-97526785D02*
X78345057Y-97574404D01*
X78345057Y-97574404D02*
X78297438Y-97622023D01*
X78297438Y-97622023D02*
X78249819Y-97717261D01*
X78249819Y-97717261D02*
X78249819Y-97907737D01*
X78249819Y-97907737D02*
X78297438Y-98002975D01*
X78297438Y-98002975D02*
X78345057Y-98050594D01*
X78345057Y-98050594D02*
X78440295Y-98098213D01*
X78440295Y-98098213D02*
X78678390Y-98098213D01*
X78678390Y-98098213D02*
X78773628Y-98050594D01*
X78773628Y-98050594D02*
X78821247Y-98002975D01*
X78821247Y-98002975D02*
X78868866Y-97907737D01*
X78868866Y-97907737D02*
X78868866Y-97717261D01*
X78868866Y-97717261D02*
X78821247Y-97622023D01*
X78821247Y-97622023D02*
X78773628Y-97574404D01*
X78773628Y-97574404D02*
X78678390Y-97526785D01*
X84154580Y-98479166D02*
X84202200Y-98526785D01*
X84202200Y-98526785D02*
X84249819Y-98669642D01*
X84249819Y-98669642D02*
X84249819Y-98764880D01*
X84249819Y-98764880D02*
X84202200Y-98907737D01*
X84202200Y-98907737D02*
X84106961Y-99002975D01*
X84106961Y-99002975D02*
X84011723Y-99050594D01*
X84011723Y-99050594D02*
X83821247Y-99098213D01*
X83821247Y-99098213D02*
X83678390Y-99098213D01*
X83678390Y-99098213D02*
X83487914Y-99050594D01*
X83487914Y-99050594D02*
X83392676Y-99002975D01*
X83392676Y-99002975D02*
X83297438Y-98907737D01*
X83297438Y-98907737D02*
X83249819Y-98764880D01*
X83249819Y-98764880D02*
X83249819Y-98669642D01*
X83249819Y-98669642D02*
X83297438Y-98526785D01*
X83297438Y-98526785D02*
X83345057Y-98479166D01*
X83678390Y-97907737D02*
X83630771Y-98002975D01*
X83630771Y-98002975D02*
X83583152Y-98050594D01*
X83583152Y-98050594D02*
X83487914Y-98098213D01*
X83487914Y-98098213D02*
X83440295Y-98098213D01*
X83440295Y-98098213D02*
X83345057Y-98050594D01*
X83345057Y-98050594D02*
X83297438Y-98002975D01*
X83297438Y-98002975D02*
X83249819Y-97907737D01*
X83249819Y-97907737D02*
X83249819Y-97717261D01*
X83249819Y-97717261D02*
X83297438Y-97622023D01*
X83297438Y-97622023D02*
X83345057Y-97574404D01*
X83345057Y-97574404D02*
X83440295Y-97526785D01*
X83440295Y-97526785D02*
X83487914Y-97526785D01*
X83487914Y-97526785D02*
X83583152Y-97574404D01*
X83583152Y-97574404D02*
X83630771Y-97622023D01*
X83630771Y-97622023D02*
X83678390Y-97717261D01*
X83678390Y-97717261D02*
X83678390Y-97907737D01*
X83678390Y-97907737D02*
X83726009Y-98002975D01*
X83726009Y-98002975D02*
X83773628Y-98050594D01*
X83773628Y-98050594D02*
X83868866Y-98098213D01*
X83868866Y-98098213D02*
X84059342Y-98098213D01*
X84059342Y-98098213D02*
X84154580Y-98050594D01*
X84154580Y-98050594D02*
X84202200Y-98002975D01*
X84202200Y-98002975D02*
X84249819Y-97907737D01*
X84249819Y-97907737D02*
X84249819Y-97717261D01*
X84249819Y-97717261D02*
X84202200Y-97622023D01*
X84202200Y-97622023D02*
X84154580Y-97574404D01*
X84154580Y-97574404D02*
X84059342Y-97526785D01*
X84059342Y-97526785D02*
X83868866Y-97526785D01*
X83868866Y-97526785D02*
X83773628Y-97574404D01*
X83773628Y-97574404D02*
X83726009Y-97622023D01*
X83726009Y-97622023D02*
X83678390Y-97717261D01*
X79154580Y-107479166D02*
X79202200Y-107526785D01*
X79202200Y-107526785D02*
X79249819Y-107669642D01*
X79249819Y-107669642D02*
X79249819Y-107764880D01*
X79249819Y-107764880D02*
X79202200Y-107907737D01*
X79202200Y-107907737D02*
X79106961Y-108002975D01*
X79106961Y-108002975D02*
X79011723Y-108050594D01*
X79011723Y-108050594D02*
X78821247Y-108098213D01*
X78821247Y-108098213D02*
X78678390Y-108098213D01*
X78678390Y-108098213D02*
X78487914Y-108050594D01*
X78487914Y-108050594D02*
X78392676Y-108002975D01*
X78392676Y-108002975D02*
X78297438Y-107907737D01*
X78297438Y-107907737D02*
X78249819Y-107764880D01*
X78249819Y-107764880D02*
X78249819Y-107669642D01*
X78249819Y-107669642D02*
X78297438Y-107526785D01*
X78297438Y-107526785D02*
X78345057Y-107479166D01*
X78249819Y-107145832D02*
X78249819Y-106479166D01*
X78249819Y-106479166D02*
X79249819Y-106907737D01*
X84154580Y-107479166D02*
X84202200Y-107526785D01*
X84202200Y-107526785D02*
X84249819Y-107669642D01*
X84249819Y-107669642D02*
X84249819Y-107764880D01*
X84249819Y-107764880D02*
X84202200Y-107907737D01*
X84202200Y-107907737D02*
X84106961Y-108002975D01*
X84106961Y-108002975D02*
X84011723Y-108050594D01*
X84011723Y-108050594D02*
X83821247Y-108098213D01*
X83821247Y-108098213D02*
X83678390Y-108098213D01*
X83678390Y-108098213D02*
X83487914Y-108050594D01*
X83487914Y-108050594D02*
X83392676Y-108002975D01*
X83392676Y-108002975D02*
X83297438Y-107907737D01*
X83297438Y-107907737D02*
X83249819Y-107764880D01*
X83249819Y-107764880D02*
X83249819Y-107669642D01*
X83249819Y-107669642D02*
X83297438Y-107526785D01*
X83297438Y-107526785D02*
X83345057Y-107479166D01*
X83249819Y-106622023D02*
X83249819Y-106812499D01*
X83249819Y-106812499D02*
X83297438Y-106907737D01*
X83297438Y-106907737D02*
X83345057Y-106955356D01*
X83345057Y-106955356D02*
X83487914Y-107050594D01*
X83487914Y-107050594D02*
X83678390Y-107098213D01*
X83678390Y-107098213D02*
X84059342Y-107098213D01*
X84059342Y-107098213D02*
X84154580Y-107050594D01*
X84154580Y-107050594D02*
X84202200Y-107002975D01*
X84202200Y-107002975D02*
X84249819Y-106907737D01*
X84249819Y-106907737D02*
X84249819Y-106717261D01*
X84249819Y-106717261D02*
X84202200Y-106622023D01*
X84202200Y-106622023D02*
X84154580Y-106574404D01*
X84154580Y-106574404D02*
X84059342Y-106526785D01*
X84059342Y-106526785D02*
X83821247Y-106526785D01*
X83821247Y-106526785D02*
X83726009Y-106574404D01*
X83726009Y-106574404D02*
X83678390Y-106622023D01*
X83678390Y-106622023D02*
X83630771Y-106717261D01*
X83630771Y-106717261D02*
X83630771Y-106907737D01*
X83630771Y-106907737D02*
X83678390Y-107002975D01*
X83678390Y-107002975D02*
X83726009Y-107050594D01*
X83726009Y-107050594D02*
X83821247Y-107098213D01*
X95134580Y-121166666D02*
X95182200Y-121214285D01*
X95182200Y-121214285D02*
X95229819Y-121357142D01*
X95229819Y-121357142D02*
X95229819Y-121452380D01*
X95229819Y-121452380D02*
X95182200Y-121595237D01*
X95182200Y-121595237D02*
X95086961Y-121690475D01*
X95086961Y-121690475D02*
X94991723Y-121738094D01*
X94991723Y-121738094D02*
X94801247Y-121785713D01*
X94801247Y-121785713D02*
X94658390Y-121785713D01*
X94658390Y-121785713D02*
X94467914Y-121738094D01*
X94467914Y-121738094D02*
X94372676Y-121690475D01*
X94372676Y-121690475D02*
X94277438Y-121595237D01*
X94277438Y-121595237D02*
X94229819Y-121452380D01*
X94229819Y-121452380D02*
X94229819Y-121357142D01*
X94229819Y-121357142D02*
X94277438Y-121214285D01*
X94277438Y-121214285D02*
X94325057Y-121166666D01*
X94229819Y-120261904D02*
X94229819Y-120738094D01*
X94229819Y-120738094D02*
X94706009Y-120785713D01*
X94706009Y-120785713D02*
X94658390Y-120738094D01*
X94658390Y-120738094D02*
X94610771Y-120642856D01*
X94610771Y-120642856D02*
X94610771Y-120404761D01*
X94610771Y-120404761D02*
X94658390Y-120309523D01*
X94658390Y-120309523D02*
X94706009Y-120261904D01*
X94706009Y-120261904D02*
X94801247Y-120214285D01*
X94801247Y-120214285D02*
X95039342Y-120214285D01*
X95039342Y-120214285D02*
X95134580Y-120261904D01*
X95134580Y-120261904D02*
X95182200Y-120309523D01*
X95182200Y-120309523D02*
X95229819Y-120404761D01*
X95229819Y-120404761D02*
X95229819Y-120642856D01*
X95229819Y-120642856D02*
X95182200Y-120738094D01*
X95182200Y-120738094D02*
X95134580Y-120785713D01*
X96345833Y-104954580D02*
X96298214Y-105002200D01*
X96298214Y-105002200D02*
X96155357Y-105049819D01*
X96155357Y-105049819D02*
X96060119Y-105049819D01*
X96060119Y-105049819D02*
X95917262Y-105002200D01*
X95917262Y-105002200D02*
X95822024Y-104906961D01*
X95822024Y-104906961D02*
X95774405Y-104811723D01*
X95774405Y-104811723D02*
X95726786Y-104621247D01*
X95726786Y-104621247D02*
X95726786Y-104478390D01*
X95726786Y-104478390D02*
X95774405Y-104287914D01*
X95774405Y-104287914D02*
X95822024Y-104192676D01*
X95822024Y-104192676D02*
X95917262Y-104097438D01*
X95917262Y-104097438D02*
X96060119Y-104049819D01*
X96060119Y-104049819D02*
X96155357Y-104049819D01*
X96155357Y-104049819D02*
X96298214Y-104097438D01*
X96298214Y-104097438D02*
X96345833Y-104145057D01*
X97202976Y-104383152D02*
X97202976Y-105049819D01*
X96964881Y-104002200D02*
X96726786Y-104716485D01*
X96726786Y-104716485D02*
X97345833Y-104716485D01*
X91270833Y-104954580D02*
X91223214Y-105002200D01*
X91223214Y-105002200D02*
X91080357Y-105049819D01*
X91080357Y-105049819D02*
X90985119Y-105049819D01*
X90985119Y-105049819D02*
X90842262Y-105002200D01*
X90842262Y-105002200D02*
X90747024Y-104906961D01*
X90747024Y-104906961D02*
X90699405Y-104811723D01*
X90699405Y-104811723D02*
X90651786Y-104621247D01*
X90651786Y-104621247D02*
X90651786Y-104478390D01*
X90651786Y-104478390D02*
X90699405Y-104287914D01*
X90699405Y-104287914D02*
X90747024Y-104192676D01*
X90747024Y-104192676D02*
X90842262Y-104097438D01*
X90842262Y-104097438D02*
X90985119Y-104049819D01*
X90985119Y-104049819D02*
X91080357Y-104049819D01*
X91080357Y-104049819D02*
X91223214Y-104097438D01*
X91223214Y-104097438D02*
X91270833Y-104145057D01*
X91604167Y-104049819D02*
X92223214Y-104049819D01*
X92223214Y-104049819D02*
X91889881Y-104430771D01*
X91889881Y-104430771D02*
X92032738Y-104430771D01*
X92032738Y-104430771D02*
X92127976Y-104478390D01*
X92127976Y-104478390D02*
X92175595Y-104526009D01*
X92175595Y-104526009D02*
X92223214Y-104621247D01*
X92223214Y-104621247D02*
X92223214Y-104859342D01*
X92223214Y-104859342D02*
X92175595Y-104954580D01*
X92175595Y-104954580D02*
X92127976Y-105002200D01*
X92127976Y-105002200D02*
X92032738Y-105049819D01*
X92032738Y-105049819D02*
X91747024Y-105049819D01*
X91747024Y-105049819D02*
X91651786Y-105002200D01*
X91651786Y-105002200D02*
X91604167Y-104954580D01*
X91154580Y-85479166D02*
X91202200Y-85526785D01*
X91202200Y-85526785D02*
X91249819Y-85669642D01*
X91249819Y-85669642D02*
X91249819Y-85764880D01*
X91249819Y-85764880D02*
X91202200Y-85907737D01*
X91202200Y-85907737D02*
X91106961Y-86002975D01*
X91106961Y-86002975D02*
X91011723Y-86050594D01*
X91011723Y-86050594D02*
X90821247Y-86098213D01*
X90821247Y-86098213D02*
X90678390Y-86098213D01*
X90678390Y-86098213D02*
X90487914Y-86050594D01*
X90487914Y-86050594D02*
X90392676Y-86002975D01*
X90392676Y-86002975D02*
X90297438Y-85907737D01*
X90297438Y-85907737D02*
X90249819Y-85764880D01*
X90249819Y-85764880D02*
X90249819Y-85669642D01*
X90249819Y-85669642D02*
X90297438Y-85526785D01*
X90297438Y-85526785D02*
X90345057Y-85479166D01*
X90345057Y-85098213D02*
X90297438Y-85050594D01*
X90297438Y-85050594D02*
X90249819Y-84955356D01*
X90249819Y-84955356D02*
X90249819Y-84717261D01*
X90249819Y-84717261D02*
X90297438Y-84622023D01*
X90297438Y-84622023D02*
X90345057Y-84574404D01*
X90345057Y-84574404D02*
X90440295Y-84526785D01*
X90440295Y-84526785D02*
X90535533Y-84526785D01*
X90535533Y-84526785D02*
X90678390Y-84574404D01*
X90678390Y-84574404D02*
X91249819Y-85145832D01*
X91249819Y-85145832D02*
X91249819Y-84526785D01*
X94494580Y-118166666D02*
X94542200Y-118214285D01*
X94542200Y-118214285D02*
X94589819Y-118357142D01*
X94589819Y-118357142D02*
X94589819Y-118452380D01*
X94589819Y-118452380D02*
X94542200Y-118595237D01*
X94542200Y-118595237D02*
X94446961Y-118690475D01*
X94446961Y-118690475D02*
X94351723Y-118738094D01*
X94351723Y-118738094D02*
X94161247Y-118785713D01*
X94161247Y-118785713D02*
X94018390Y-118785713D01*
X94018390Y-118785713D02*
X93827914Y-118738094D01*
X93827914Y-118738094D02*
X93732676Y-118690475D01*
X93732676Y-118690475D02*
X93637438Y-118595237D01*
X93637438Y-118595237D02*
X93589819Y-118452380D01*
X93589819Y-118452380D02*
X93589819Y-118357142D01*
X93589819Y-118357142D02*
X93637438Y-118214285D01*
X93637438Y-118214285D02*
X93685057Y-118166666D01*
X94589819Y-117214285D02*
X94589819Y-117785713D01*
X94589819Y-117499999D02*
X93589819Y-117499999D01*
X93589819Y-117499999D02*
X93732676Y-117595237D01*
X93732676Y-117595237D02*
X93827914Y-117690475D01*
X93827914Y-117690475D02*
X93875533Y-117785713D01*
X145122381Y-109234295D02*
X145122381Y-108434295D01*
X145122381Y-108434295D02*
X145389047Y-109005723D01*
X145389047Y-109005723D02*
X145655714Y-108434295D01*
X145655714Y-108434295D02*
X145655714Y-109234295D01*
X146036667Y-109234295D02*
X146036667Y-108434295D01*
X146493810Y-109234295D02*
X146150952Y-108777152D01*
X146493810Y-108434295D02*
X146036667Y-108891438D01*
X147179524Y-108700961D02*
X147179524Y-109234295D01*
X146989048Y-108396200D02*
X146798571Y-108967628D01*
X146798571Y-108967628D02*
X147293810Y-108967628D01*
X166122381Y-88234295D02*
X166122381Y-87434295D01*
X166122381Y-87434295D02*
X166389047Y-88005723D01*
X166389047Y-88005723D02*
X166655714Y-87434295D01*
X166655714Y-87434295D02*
X166655714Y-88234295D01*
X167036667Y-88234295D02*
X167036667Y-87434295D01*
X167493810Y-88234295D02*
X167150952Y-87777152D01*
X167493810Y-87434295D02*
X167036667Y-87891438D01*
X167798571Y-87510485D02*
X167836667Y-87472390D01*
X167836667Y-87472390D02*
X167912857Y-87434295D01*
X167912857Y-87434295D02*
X168103333Y-87434295D01*
X168103333Y-87434295D02*
X168179524Y-87472390D01*
X168179524Y-87472390D02*
X168217619Y-87510485D01*
X168217619Y-87510485D02*
X168255714Y-87586676D01*
X168255714Y-87586676D02*
X168255714Y-87662866D01*
X168255714Y-87662866D02*
X168217619Y-87777152D01*
X168217619Y-87777152D02*
X167760476Y-88234295D01*
X167760476Y-88234295D02*
X168255714Y-88234295D01*
X166122381Y-108974295D02*
X166122381Y-108174295D01*
X166122381Y-108174295D02*
X166389047Y-108745723D01*
X166389047Y-108745723D02*
X166655714Y-108174295D01*
X166655714Y-108174295D02*
X166655714Y-108974295D01*
X167036667Y-108974295D02*
X167036667Y-108174295D01*
X167493810Y-108974295D02*
X167150952Y-108517152D01*
X167493810Y-108174295D02*
X167036667Y-108631438D01*
X167760476Y-108174295D02*
X168255714Y-108174295D01*
X168255714Y-108174295D02*
X167989048Y-108479057D01*
X167989048Y-108479057D02*
X168103333Y-108479057D01*
X168103333Y-108479057D02*
X168179524Y-108517152D01*
X168179524Y-108517152D02*
X168217619Y-108555247D01*
X168217619Y-108555247D02*
X168255714Y-108631438D01*
X168255714Y-108631438D02*
X168255714Y-108821914D01*
X168255714Y-108821914D02*
X168217619Y-108898104D01*
X168217619Y-108898104D02*
X168179524Y-108936200D01*
X168179524Y-108936200D02*
X168103333Y-108974295D01*
X168103333Y-108974295D02*
X167874762Y-108974295D01*
X167874762Y-108974295D02*
X167798571Y-108936200D01*
X167798571Y-108936200D02*
X167760476Y-108898104D01*
D11*
G04 #@! TO.C,J4*
X87700000Y-121000000D02*
G75*
G02*
X84300000Y-121000000I-1700000J0D01*
G01*
X84300000Y-121000000D02*
G75*
G02*
X87700000Y-121000000I1700000J0D01*
G01*
G04 #@! TO.C,J3*
X87700000Y-114000000D02*
G75*
G02*
X84300000Y-114000000I-1700000J0D01*
G01*
X84300000Y-114000000D02*
G75*
G02*
X87700000Y-114000000I1700000J0D01*
G01*
G04 #@! TO.C,J2*
X80700000Y-114000000D02*
G75*
G02*
X77300000Y-114000000I-1700000J0D01*
G01*
X77300000Y-114000000D02*
G75*
G02*
X80700000Y-114000000I1700000J0D01*
G01*
G04 #@! TO.C,J1*
X80700000Y-121000000D02*
G75*
G02*
X77300000Y-121000000I-1700000J0D01*
G01*
X77300000Y-121000000D02*
G75*
G02*
X80700000Y-121000000I1700000J0D01*
G01*
G04 #@! TO.C,U2*
X107610000Y-76150000D02*
X107610000Y-76450000D01*
X107610000Y-76150000D02*
X128610000Y-76150000D01*
X107610000Y-78550000D02*
X107610000Y-78950000D01*
X107610000Y-78817000D02*
X110617000Y-78817000D01*
X107610000Y-81150000D02*
X107610000Y-81550000D01*
X107610000Y-83650000D02*
X107610000Y-84050000D01*
X107610000Y-86250000D02*
X107610000Y-86650000D01*
X107610000Y-88750000D02*
X107610000Y-89150000D01*
X107610000Y-91250000D02*
X107610000Y-91650000D01*
X107610000Y-93850000D02*
X107610000Y-94250000D01*
X107610000Y-96350000D02*
X107610000Y-96750000D01*
X107610000Y-98950000D02*
X107610000Y-99350000D01*
X107610000Y-101450000D02*
X107610000Y-101850000D01*
X107610000Y-103950000D02*
X107610000Y-104350000D01*
X107610000Y-106550000D02*
X107610000Y-106950000D01*
X107610000Y-109050000D02*
X107610000Y-109450000D01*
X107610000Y-111650000D02*
X107610000Y-112050000D01*
X107610000Y-114150000D02*
X107610000Y-114550000D01*
X107610000Y-116750000D02*
X107610000Y-117150000D01*
X107610000Y-119250000D02*
X107610000Y-119650000D01*
X107610000Y-121750000D02*
X107610000Y-122150000D01*
X107610000Y-124350000D02*
X107610000Y-124750000D01*
X110617000Y-78817000D02*
X110617000Y-76150000D01*
X114410000Y-127150000D02*
X107610000Y-127150000D01*
X116610000Y-127150000D02*
X117010000Y-127150000D01*
X119210000Y-127150000D02*
X119610000Y-127150000D01*
X128610000Y-76150000D02*
X128610000Y-76450000D01*
X128610000Y-78550000D02*
X128610000Y-78950000D01*
X128610000Y-81150000D02*
X128610000Y-81550000D01*
X128610000Y-83650000D02*
X128610000Y-84050000D01*
X128610000Y-86250000D02*
X128610000Y-86650000D01*
X128610000Y-88750000D02*
X128610000Y-89150000D01*
X128610000Y-91250000D02*
X128610000Y-91650000D01*
X128610000Y-93850000D02*
X128610000Y-94250000D01*
X128610000Y-96350000D02*
X128610000Y-96750000D01*
X128610000Y-98950000D02*
X128610000Y-99350000D01*
X128610000Y-101450000D02*
X128610000Y-101850000D01*
X128610000Y-103950000D02*
X128610000Y-104350000D01*
X128610000Y-106550000D02*
X128610000Y-106950000D01*
X128610000Y-109050000D02*
X128610000Y-109450000D01*
X128610000Y-111650000D02*
X128610000Y-112050000D01*
X128610000Y-114150000D02*
X128610000Y-114550000D01*
X128610000Y-116750000D02*
X128610000Y-117150000D01*
X128610000Y-119250000D02*
X128610000Y-119650000D01*
X128610000Y-121750000D02*
X128610000Y-122150000D01*
X128610000Y-124350000D02*
X128610000Y-124750000D01*
X128610000Y-127150000D02*
X121810000Y-127150000D01*
G04 #@! TO.C,U1*
X90590000Y-98137500D02*
X90590000Y-100337500D01*
X90590000Y-98137500D02*
X90590000Y-95937500D01*
X97360000Y-98137500D02*
X97360000Y-100337500D01*
X97360000Y-98137500D02*
X97360000Y-95937500D01*
X91290000Y-102327500D02*
X90810000Y-102327500D01*
X91050000Y-101997500D01*
X91290000Y-102327500D01*
G36*
X91290000Y-102327500D02*
G01*
X90810000Y-102327500D01*
X91050000Y-101997500D01*
X91290000Y-102327500D01*
G37*
G04 #@! TO.C,R2*
X93160000Y-113047936D02*
X93160000Y-113502064D01*
X91690000Y-113047936D02*
X91690000Y-113502064D01*
G04 #@! TO.C,R1*
X97160000Y-113047936D02*
X97160000Y-113502064D01*
X95690000Y-113047936D02*
X95690000Y-113502064D01*
D12*
G04 #@! TO.C,MK1*
X148100000Y-88730000D02*
G75*
G02*
X147900000Y-88730000I-100000J0D01*
G01*
X147900000Y-88730000D02*
G75*
G02*
X148100000Y-88730000I100000J0D01*
G01*
D13*
X143770000Y-91880000D02*
X143770000Y-93010000D01*
X143770000Y-89250000D02*
X143770000Y-90380000D01*
X148490000Y-89250000D02*
X143770000Y-89250000D01*
X148490000Y-93010000D02*
X143770000Y-93010000D01*
X148490000Y-89250000D02*
X148490000Y-93010000D01*
D11*
G04 #@! TO.C,C15*
X169255000Y-116738748D02*
X169255000Y-117261252D01*
X167785000Y-116738748D02*
X167785000Y-117261252D01*
G04 #@! TO.C,C14*
X148255000Y-116738748D02*
X148255000Y-117261252D01*
X146785000Y-116738748D02*
X146785000Y-117261252D01*
G04 #@! TO.C,C13*
X169255000Y-95738748D02*
X169255000Y-96261252D01*
X167785000Y-95738748D02*
X167785000Y-96261252D01*
G04 #@! TO.C,C12*
X148255000Y-95776248D02*
X148255000Y-96298752D01*
X146785000Y-95776248D02*
X146785000Y-96298752D01*
G04 #@! TO.C,C11*
X79740000Y-89573752D02*
X79740000Y-89051248D01*
X81210000Y-89573752D02*
X81210000Y-89051248D01*
G04 #@! TO.C,C10*
X84740000Y-89573752D02*
X84740000Y-89051248D01*
X86210000Y-89573752D02*
X86210000Y-89051248D01*
G04 #@! TO.C,C9*
X79740000Y-98573752D02*
X79740000Y-98051248D01*
X81210000Y-98573752D02*
X81210000Y-98051248D01*
G04 #@! TO.C,C8*
X84740000Y-98573752D02*
X84740000Y-98051248D01*
X86210000Y-98573752D02*
X86210000Y-98051248D01*
G04 #@! TO.C,C7*
X79740000Y-107573752D02*
X79740000Y-107051248D01*
X81210000Y-107573752D02*
X81210000Y-107051248D01*
G04 #@! TO.C,C6*
X84740000Y-107573752D02*
X84740000Y-107051248D01*
X86210000Y-107573752D02*
X86210000Y-107051248D01*
G04 #@! TO.C,C5*
X97190000Y-120266252D02*
X97190000Y-119743748D01*
X95720000Y-120266252D02*
X95720000Y-119743748D01*
G04 #@! TO.C,C4*
X96251248Y-105540000D02*
X96773752Y-105540000D01*
X96251248Y-107010000D02*
X96773752Y-107010000D01*
G04 #@! TO.C,C3*
X91176248Y-105540000D02*
X91698752Y-105540000D01*
X91176248Y-107010000D02*
X91698752Y-107010000D01*
G04 #@! TO.C,C2*
X91740000Y-85573752D02*
X91740000Y-85051248D01*
X93210000Y-85573752D02*
X93210000Y-85051248D01*
G04 #@! TO.C,C1*
X93190000Y-119743748D02*
X93190000Y-120266252D01*
X91720000Y-119743748D02*
X91720000Y-120266252D01*
D13*
G04 #@! TO.C,MK4*
X148490000Y-110250000D02*
X148490000Y-114010000D01*
X148490000Y-114010000D02*
X143770000Y-114010000D01*
X148490000Y-110250000D02*
X143770000Y-110250000D01*
X143770000Y-110250000D02*
X143770000Y-111380000D01*
X143770000Y-112880000D02*
X143770000Y-114010000D01*
D12*
X148100000Y-109730000D02*
G75*
G02*
X147900000Y-109730000I-100000J0D01*
G01*
X147900000Y-109730000D02*
G75*
G02*
X148100000Y-109730000I100000J0D01*
G01*
G04 #@! TO.C,MK2*
X169100000Y-88730000D02*
G75*
G02*
X168900000Y-88730000I-100000J0D01*
G01*
X168900000Y-88730000D02*
G75*
G02*
X169100000Y-88730000I100000J0D01*
G01*
D13*
X164770000Y-91880000D02*
X164770000Y-93010000D01*
X164770000Y-89250000D02*
X164770000Y-90380000D01*
X169490000Y-89250000D02*
X164770000Y-89250000D01*
X169490000Y-93010000D02*
X164770000Y-93010000D01*
X169490000Y-89250000D02*
X169490000Y-93010000D01*
G04 #@! TO.C,MK3*
X169490000Y-109990000D02*
X169490000Y-113750000D01*
X169490000Y-113750000D02*
X164770000Y-113750000D01*
X169490000Y-109990000D02*
X164770000Y-109990000D01*
X164770000Y-109990000D02*
X164770000Y-111120000D01*
X164770000Y-112620000D02*
X164770000Y-113750000D01*
D12*
X169100000Y-109470000D02*
G75*
G02*
X168900000Y-109470000I-100000J0D01*
G01*
X168900000Y-109470000D02*
G75*
G02*
X169100000Y-109470000I100000J0D01*
G01*
G04 #@! TD*
%LPC*%
D14*
G04 #@! TO.C,MK1*
X145280000Y-91130000D02*
G75*
G02*
X144400000Y-91130000I-440000J0D01*
G01*
X144400000Y-91130000D02*
G75*
G02*
X145280000Y-91130000I440000J0D01*
G01*
G04 #@! TO.C,MK4*
X145280000Y-112130000D02*
G75*
G02*
X144400000Y-112130000I-440000J0D01*
G01*
X144400000Y-112130000D02*
G75*
G02*
X145280000Y-112130000I440000J0D01*
G01*
G04 #@! TO.C,MK2*
X166280000Y-91130000D02*
G75*
G02*
X165400000Y-91130000I-440000J0D01*
G01*
X165400000Y-91130000D02*
G75*
G02*
X166280000Y-91130000I440000J0D01*
G01*
G04 #@! TO.C,MK3*
X166280000Y-111870000D02*
G75*
G02*
X165400000Y-111870000I-440000J0D01*
G01*
X165400000Y-111870000D02*
G75*
G02*
X166280000Y-111870000I440000J0D01*
G01*
G04 #@! TD*
D15*
G04 #@! TO.C,J4*
X86000000Y-121000000D03*
G04 #@! TD*
G04 #@! TO.C,J3*
X86000000Y-114000000D03*
G04 #@! TD*
G04 #@! TO.C,J2*
X79000000Y-114000000D03*
G04 #@! TD*
G04 #@! TO.C,J1*
X79000000Y-121000000D03*
G04 #@! TD*
D16*
G04 #@! TO.C,U2*
X115385000Y-77650000D03*
D17*
X115685000Y-80680000D03*
X120535000Y-80680000D03*
D16*
X120835000Y-77650000D03*
D18*
X109220000Y-77520000D03*
D19*
X108320000Y-77520000D03*
D18*
X109220000Y-80060000D03*
D19*
X108320000Y-80060000D03*
D20*
X109220000Y-82600000D03*
D19*
X108320000Y-82600000D03*
D18*
X109220000Y-85140000D03*
D19*
X108320000Y-85140000D03*
D18*
X109220000Y-87680000D03*
D19*
X108320000Y-87680000D03*
D18*
X109220000Y-90220000D03*
D19*
X108320000Y-90220000D03*
D18*
X109220000Y-92760000D03*
D19*
X108320000Y-92760000D03*
D20*
X109220000Y-95300000D03*
D19*
X108320000Y-95300000D03*
D18*
X109220000Y-97840000D03*
D19*
X108320000Y-97840000D03*
D18*
X109220000Y-100380000D03*
D19*
X108320000Y-100380000D03*
D18*
X109220000Y-102920000D03*
D19*
X108320000Y-102920000D03*
D18*
X109220000Y-105460000D03*
D19*
X108320000Y-105460000D03*
D20*
X109220000Y-108000000D03*
D19*
X108320000Y-108000000D03*
D18*
X109220000Y-110540000D03*
D19*
X108320000Y-110540000D03*
D18*
X109220000Y-113080000D03*
D19*
X108320000Y-113080000D03*
D18*
X109220000Y-115620000D03*
D19*
X108320000Y-115620000D03*
D18*
X109220000Y-118160000D03*
D19*
X108320000Y-118160000D03*
D20*
X109220000Y-120700000D03*
D19*
X108320000Y-120700000D03*
D18*
X109220000Y-123240000D03*
D19*
X108320000Y-123240000D03*
D18*
X109220000Y-125780000D03*
D19*
X108320000Y-125780000D03*
D18*
X127000000Y-125780000D03*
D19*
X127900000Y-125780000D03*
D18*
X127000000Y-123240000D03*
D19*
X127900000Y-123240000D03*
D20*
X127000000Y-120700000D03*
D19*
X127900000Y-120700000D03*
D18*
X127000000Y-118160000D03*
D19*
X127900000Y-118160000D03*
D18*
X127000000Y-115620000D03*
D19*
X127900000Y-115620000D03*
D18*
X127000000Y-113080000D03*
D19*
X127900000Y-113080000D03*
D18*
X127000000Y-110540000D03*
D19*
X127900000Y-110540000D03*
D20*
X127000000Y-108000000D03*
D19*
X127900000Y-108000000D03*
D18*
X127000000Y-105460000D03*
D19*
X127900000Y-105460000D03*
D18*
X127000000Y-102920000D03*
D19*
X127900000Y-102920000D03*
D18*
X127000000Y-100380000D03*
D19*
X127900000Y-100380000D03*
D18*
X127000000Y-97840000D03*
D19*
X127900000Y-97840000D03*
D20*
X127000000Y-95300000D03*
D19*
X127900000Y-95300000D03*
D18*
X127000000Y-92760000D03*
D19*
X127900000Y-92760000D03*
D18*
X127000000Y-90220000D03*
D19*
X127900000Y-90220000D03*
D18*
X127000000Y-87680000D03*
D19*
X127900000Y-87680000D03*
D18*
X127000000Y-85140000D03*
D19*
X127900000Y-85140000D03*
D20*
X127000000Y-82600000D03*
D19*
X127900000Y-82600000D03*
D18*
X127000000Y-80060000D03*
D19*
X127900000Y-80060000D03*
D18*
X127000000Y-77520000D03*
D19*
X127900000Y-77520000D03*
D18*
X115570000Y-125550000D03*
D21*
X115570000Y-126450000D03*
D20*
X118110000Y-125550000D03*
D21*
X118110000Y-126450000D03*
D18*
X120650000Y-125550000D03*
D21*
X120650000Y-126450000D03*
G04 #@! TD*
D22*
G04 #@! TO.C,U1*
X91050000Y-101000000D03*
X91700000Y-101000000D03*
X92350000Y-101000000D03*
X93000000Y-101000000D03*
X93650000Y-101000000D03*
X94300000Y-101000000D03*
X94950000Y-101000000D03*
X95600000Y-101000000D03*
X96250000Y-101000000D03*
X96900000Y-101000000D03*
X96900000Y-95275000D03*
X96250000Y-95275000D03*
X95600000Y-95275000D03*
X94950000Y-95275000D03*
X94300000Y-95275000D03*
X93650000Y-95275000D03*
X93000000Y-95275000D03*
X92350000Y-95275000D03*
X91700000Y-95275000D03*
X91050000Y-95275000D03*
G04 #@! TD*
D23*
G04 #@! TO.C,R2*
X92425000Y-112275000D03*
X92425000Y-114275000D03*
G04 #@! TD*
G04 #@! TO.C,R1*
X96425000Y-112275000D03*
X96425000Y-114275000D03*
G04 #@! TD*
D24*
G04 #@! TO.C,MK1*
X144850000Y-92460000D03*
X145900000Y-92460000D03*
X144850000Y-89800000D03*
X145900000Y-89800000D03*
D25*
X144840000Y-91130000D03*
D24*
X146950000Y-92460000D03*
X148000000Y-92460000D03*
X146950000Y-89800000D03*
X148000000Y-89800000D03*
G04 #@! TD*
D26*
G04 #@! TO.C,C15*
X168520000Y-115962500D03*
X168520000Y-118037500D03*
G04 #@! TD*
G04 #@! TO.C,C14*
X147520000Y-115962500D03*
X147520000Y-118037500D03*
G04 #@! TD*
G04 #@! TO.C,C13*
X168520000Y-94962500D03*
X168520000Y-97037500D03*
G04 #@! TD*
G04 #@! TO.C,C12*
X147520000Y-95000000D03*
X147520000Y-97075000D03*
G04 #@! TD*
D27*
G04 #@! TO.C,C11*
X80475000Y-90350000D03*
X80475000Y-88275000D03*
G04 #@! TD*
G04 #@! TO.C,C10*
X85475000Y-90350000D03*
X85475000Y-88275000D03*
G04 #@! TD*
G04 #@! TO.C,C9*
X80475000Y-99350000D03*
X80475000Y-97275000D03*
G04 #@! TD*
G04 #@! TO.C,C8*
X85475000Y-99350000D03*
X85475000Y-97275000D03*
G04 #@! TD*
G04 #@! TO.C,C7*
X80475000Y-108350000D03*
X80475000Y-106275000D03*
G04 #@! TD*
G04 #@! TO.C,C6*
X85475000Y-108350000D03*
X85475000Y-106275000D03*
G04 #@! TD*
G04 #@! TO.C,C5*
X96455000Y-118967500D03*
X96455000Y-121042500D03*
G04 #@! TD*
D28*
G04 #@! TO.C,C4*
X95475000Y-106275000D03*
X97550000Y-106275000D03*
G04 #@! TD*
G04 #@! TO.C,C3*
X90400000Y-106275000D03*
X92475000Y-106275000D03*
G04 #@! TD*
D27*
G04 #@! TO.C,C2*
X92475000Y-86350000D03*
X92475000Y-84275000D03*
G04 #@! TD*
D26*
G04 #@! TO.C,C1*
X92455000Y-118967500D03*
X92455000Y-121042500D03*
G04 #@! TD*
D24*
G04 #@! TO.C,MK4*
X148000000Y-110800000D03*
X146950000Y-110800000D03*
X148000000Y-113460000D03*
X146950000Y-113460000D03*
D25*
X144840000Y-112130000D03*
D24*
X145900000Y-110800000D03*
X144850000Y-110800000D03*
X145900000Y-113460000D03*
X144850000Y-113460000D03*
G04 #@! TD*
G04 #@! TO.C,MK2*
X165850000Y-92460000D03*
X166900000Y-92460000D03*
X165850000Y-89800000D03*
X166900000Y-89800000D03*
D25*
X165840000Y-91130000D03*
D24*
X167950000Y-92460000D03*
X169000000Y-92460000D03*
X167950000Y-89800000D03*
X169000000Y-89800000D03*
G04 #@! TD*
G04 #@! TO.C,MK3*
X169000000Y-110540000D03*
X167950000Y-110540000D03*
X169000000Y-113200000D03*
X167950000Y-113200000D03*
D25*
X165840000Y-111870000D03*
D24*
X166900000Y-110540000D03*
X165850000Y-110540000D03*
X166900000Y-113200000D03*
X165850000Y-113200000D03*
G04 #@! TD*
%LPD*%
M02*
